<ttFont>
    <TTGlyph name=".notdef" xMin="147" yMin="0" xMax="1082" yMax="1349">
      <contour>
        <pt x="147" y="0" on="1"/>
        <pt x="147" y="1349" on="1"/>
        <pt x="1082" y="1349" on="1"/>
        <pt x="1082" y="0" on="1"/>
      </contour>
      <contour>
        <pt x="963" y="1230" on="1"/>
        <pt x="266" y="1230" on="1"/>
        <pt x="266" y="119" on="1"/>
        <pt x="963" y="119" on="1"/>
      </contour>
    </TTGlyph>
    <TTGlyph name="A" xMin="-105" yMin="0" xMax="1124" yMax="1349">
      <contour>
        <pt x="1124" y="0" on="1"/>
        <pt x="830" y="0" on="1"/>
        <pt x="802" y="330" on="1"/>
        <pt x="346" y="330" on="1"/>
        <pt x="190" y="0" on="1"/>
        <pt x="-105" y="0" on="1"/>
        <pt x="600" y="1349" on="1"/>
        <pt x="944" y="1349" on="1"/>
      </contour>
      <contour>
        <pt x="737" y="1167" on="1"/>
        <pt x="721" y="1126" on="0"/>
        <pt x="660" y="990" on="0"/>
        <pt x="451" y="552" on="1"/>
        <pt x="783" y="552" on="1"/>
        <pt x="749" y="932" on="1"/>
        <pt x="738" y="1132" on="1"/>
      </contour>
    </TTGlyph>
    <TTGlyph name="AE" xMin="-105" yMin="0" xMax="1333" yMax="1349">
      <contour>
        <pt x="586" y="387" on="1"/>
        <pt x="333" y="387" on="1"/>
        <pt x="156" y="0" on="1"/>
        <pt x="-105" y="0" on="1"/>
        <pt x="529" y="1349" on="1"/>
        <pt x="1333" y="1349" on="1"/>
        <pt x="1294" y="1147" on="1"/>
        <pt x="985" y="1147" on="1"/>
        <pt x="916" y="792" on="1"/>
        <pt x="1213" y="792" on="1"/>
        <pt x="1174" y="592" on="1"/>
        <pt x="877" y="592" on="1"/>
        <pt x="801" y="202" on="1"/>
        <pt x="1149" y="202" on="1"/>
        <pt x="1110" y="0" on="1"/>
        <pt x="511" y="0" on="1"/>
      </contour>
      <contour>
        <pt x="735" y="1152" on="1"/>
        <pt x="677" y="1152" on="1"/>
        <pt x="592" y="952" on="1"/>
        <pt x="423" y="586" on="1"/>
        <pt x="625" y="586" on="1"/>
      </contour>
    </TTGlyph>
    <TTGlyph name="AEacute" xMin="-105" yMin="0" xMax="1348" yMax="1703">
      <component glyphName="AE" x="0" y="0" flags="0x204"/>
      <component glyphName="acute" x="293" y="245" flags="0x4"/>
    </TTGlyph>
    <TTGlyph name="Aacute" xMin="-105" yMin="0" xMax="1195" yMax="1702">
      <component glyphName="A" x="0" y="0" flags="0x204"/>
      <component glyphName="acute" x="140" y="244" flags="0x4"/>
    </TTGlyph>
    <TTGlyph name="Abreve" xMin="-105" yMin="0" xMax="1194" yMax="1705">
      <component glyphName="A" x="0" y="0" flags="0x204"/>
      <component glyphName="breve" x="47" y="244" flags="0x4"/>
    </TTGlyph>
    <TTGlyph name="Abreveacute" xMin="-105" yMin="0" xMax="1148" yMax="1802">
      <component glyphName="A" x="0" y="0" flags="0x204"/>
      <component glyphName="breveacute" x="614" y="0" flags="0x4"/>
    </TTGlyph>
    <TTGlyph name="Abrevedotbelow" xMin="-105" yMin="-366" xMax="1187" yMax="1707">
      <component glyphName="A" x="0" y="0" flags="0x204"/>
      <component glyphName="dotbelow.alt1" x="825" y="0" flags="0x4"/>
      <component glyphName="breve.uc" x="265" y="0" flags="0x4"/>
    </TTGlyph>
    <TTGlyph name="Abrevegrave" xMin="-105" yMin="0" xMax="1148" yMax="1802">
      <component glyphName="A" x="0" y="0" flags="0x204"/>
      <component glyphName="brevegrave" x="614" y="0" flags="0x4"/>
    </TTGlyph>
    <TTGlyph name="Abrevehookabove" xMin="-105" yMin="0" xMax="1148" yMax="1802">
      <component glyphName="A" x="0" y="0" flags="0x204"/>
      <component glyphName="brevehook" x="614" y="0" flags="0x4"/>
    </TTGlyph>
    <TTGlyph name="Abrevetilde" xMin="-105" yMin="0" xMax="1178" yMax="1802">
      <component glyphName="A" x="0" y="0" flags="0x204"/>
      <component glyphName="brevetilde" x="614" y="0" flags="0x4"/>
    </TTGlyph>
    <TTGlyph name="Acircumflex" xMin="-105" yMin="0" xMax="1160" yMax="1705">
      <component glyphName="A" x="0" y="0" flags="0x204"/>
      <component glyphName="circumflex" x="47" y="244" flags="0x4"/>
    </TTGlyph>
    <TTGlyph name="Acircumflexacute" xMin="-105" yMin="0" xMax="1388" yMax="1800">
      <component glyphName="A" x="0" y="0" flags="0x204"/>
      <component glyphName="circumflexacute" x="614" y="0" flags="0x4"/>
    </TTGlyph>
    <TTGlyph name="Acircumflexdotbelow" xMin="-105" yMin="-366" xMax="1161" yMax="1707">
      <component glyphName="A" x="0" y="0" flags="0x204"/>
      <component glyphName="dotbelow.alt1" x="825" y="0" flags="0x4"/>
      <component glyphName="circumflex.uc" x="273" y="0" flags="0x4"/>
    </TTGlyph>
    <TTGlyph name="Acircumflexgrave" xMin="-105" yMin="0" xMax="1124" yMax="1800">
      <component glyphName="A" x="0" y="0" flags="0x204"/>
      <component glyphName="circumflexgrave" x="614" y="0" flags="0x4"/>
    </TTGlyph>
    <TTGlyph name="Acircumflexhookabove" xMin="-105" yMin="0" xMax="1289" yMax="1799">
      <component glyphName="A" x="0" y="0" flags="0x204"/>
      <component glyphName="circumflexhook" x="614" y="0" flags="0x4"/>
    </TTGlyph>
    <TTGlyph name="Acircumflextilde" xMin="-105" yMin="0" xMax="1178" yMax="1800">
      <component glyphName="A" x="0" y="0" flags="0x204"/>
      <component glyphName="circumflextilde" x="614" y="0" flags="0x4"/>
    </TTGlyph>
    <TTGlyph name="Adieresis" xMin="-105" yMin="0" xMax="1159" yMax="1664">
      <component glyphName="A" x="0" y="0" flags="0x204"/>
      <component glyphName="dieresis" x="44" y="226" flags="0x4"/>
    </TTGlyph>
    <TTGlyph name="Adotbelow" xMin="-105" yMin="-366" xMax="1124" yMax="1349">
      <component glyphName="A" x="0" y="0" flags="0x204"/>
      <component glyphName="dotbelow.alt1" x="825" y="0" flags="0x4"/>
    </TTGlyph>
    <TTGlyph name="Agrave" xMin="-105" yMin="0" xMax="1124" yMax="1701">
      <component glyphName="A" x="0" y="0" flags="0x204"/>
      <component glyphName="grave" x="-46" y="243" flags="0x4"/>
    </TTGlyph>
    <TTGlyph name="Ahookabove" xMin="-105" yMin="0" xMax="1124" yMax="1785">
      <component glyphName="A" x="0" y="0" flags="0x204"/>
      <component glyphName="hookabovecomb" x="903" y="0" flags="0x4"/>
    </TTGlyph>
    <TTGlyph name="Alpha" xMin="-105" yMin="0" xMax="1124" yMax="1349">
      <component glyphName="A" x="0" y="0" flags="0x204"/>
    </TTGlyph>
    <TTGlyph name="Alphatonos" xMin="-105" yMin="0" xMax="1124" yMax="1350">
      <component glyphName="A" x="0" y="0" flags="0x204"/>
      <component glyphName="tonos" x="-512" y="-206" flags="0x4"/>
    </TTGlyph>
    <TTGlyph name="Amacron" xMin="-105" yMin="0" xMax="1135" yMax="1638">
      <component glyphName="A" x="0" y="0" flags="0x204"/>
      <component glyphName="uni02C9" x="54" y="267" flags="0x4"/>
    </TTGlyph>
    <TTGlyph name="Aogonek" xMin="-105" yMin="-414" xMax="1124" yMax="1349">
      <component glyphName="A" x="0" y="0" flags="0x204"/>
      <component glyphName="ogonek" x="422" y="11" flags="0x4"/>
    </TTGlyph>
    <TTGlyph name="Aring" xMin="-105" yMin="0" xMax="1124" yMax="1678">
      <component glyphName="A" x="0" y="0" flags="0x204"/>
      <component glyphName="ring" x="28" y="131" flags="0x4"/>
    </TTGlyph>
    <TTGlyph name="Aringacute" xMin="-105" yMin="0" xMax="1226" yMax="1705">
      <contour>
        <pt x="915" y="1091" on="1"/>
        <pt x="1124" y="0" on="1"/>
        <pt x="830" y="0" on="1"/>
        <pt x="793" y="263" on="1"/>
        <pt x="327" y="263" on="1"/>
        <pt x="190" y="0" on="1"/>
        <pt x="-105" y="0" on="1"/>
        <pt x="528" y="1090" on="1"/>
        <pt x="500" y="1128" on="0"/>
        <pt x="500" y="1180" on="1"/>
        <pt x="500" y="1238" on="0"/>
        <pt x="569" y="1352" on="0"/>
        <pt x="701" y="1417" on="0"/>
        <pt x="784" y="1417" on="1"/>
        <pt x="881" y="1417" on="0"/>
        <pt x="992" y="1330" on="0"/>
        <pt x="992" y="1255" on="1"/>
        <pt x="992" y="1163" on="0"/>
      </contour>
      <contour>
        <pt x="703" y="992" on="1"/>
        <pt x="683" y="947" on="0"/>
        <pt x="616" y="811" on="0"/>
        <pt x="443" y="485" on="1"/>
        <pt x="764" y="485" on="1"/>
        <pt x="722" y="792" on="1"/>
        <pt x="703" y="939" on="0"/>
      </contour>
      <contour>
        <pt x="689" y="1459" on="1"/>
        <pt x="695" y="1490" on="1"/>
        <pt x="968" y="1705" on="1"/>
        <pt x="1226" y="1705" on="1"/>
        <pt x="1218" y="1662" on="1"/>
        <pt x="839" y="1459" on="1"/>
      </contour>
      <contour>
        <pt x="850" y="1228" on="1"/>
        <pt x="850" y="1258" on="0"/>
        <pt x="800" y="1289" on="0"/>
        <pt x="760" y="1289" on="1"/>
        <pt x="702" y="1289" on="0"/>
        <pt x="641" y="1235" on="0"/>
        <pt x="641" y="1206" on="1"/>
        <pt x="641" y="1179" on="0"/>
        <pt x="689" y="1147" on="0"/>
        <pt x="732" y="1147" on="1"/>
        <pt x="769" y="1147" on="0"/>
        <pt x="825" y="1171" on="0"/>
        <pt x="850" y="1210" on="0"/>
      </contour>
    </TTGlyph>
    <TTGlyph name="Atilde" xMin="-105" yMin="0" xMax="1230" yMax="1705">
      <component glyphName="A" x="0" y="0" flags="0x204"/>
      <component glyphName="tilde" x="46" y="239" flags="0x4"/>
    </TTGlyph>
    <TTGlyph name="B" xMin="32" yMin="0" xMax="1204" yMax="1349">
      <contour>
        <pt x="614" y="0" on="1"/>
        <pt x="32" y="0" on="1"/>
        <pt x="294" y="1349" on="1"/>
        <pt x="819" y="1349" on="1"/>
        <pt x="1006" y="1349" on="0"/>
        <pt x="1204" y="1218" on="0"/>
        <pt x="1204" y="1088" on="1"/>
        <pt x="1204" y="945" on="0"/>
        <pt x="1032" y="742" on="0"/>
        <pt x="869" y="709" on="1"/>
        <pt x="1014" y="693" on="0"/>
        <pt x="1163" y="562" on="0"/>
        <pt x="1163" y="453" on="1"/>
        <pt x="1163" y="373" on="0"/>
        <pt x="1091" y="200" on="0"/>
        <pt x="944" y="68" on="0"/>
        <pt x="738" y="0" on="0"/>
      </contour>
      <contour>
        <pt x="897" y="1017" on="1"/>
        <pt x="897" y="1130" on="0"/>
        <pt x="756" y="1130" on="1"/>
        <pt x="547" y="1130" on="1"/>
        <pt x="485" y="811" on="1"/>
        <pt x="696" y="811" on="1"/>
        <pt x="860" y="811" on="0"/>
        <pt x="892" y="970" on="1"/>
        <pt x="897" y="998" on="0"/>
      </contour>
      <contour>
        <pt x="869" y="457" on="1"/>
        <pt x="869" y="523" on="0"/>
        <pt x="779" y="593" on="0"/>
        <pt x="692" y="593" on="1"/>
        <pt x="442" y="593" on="1"/>
        <pt x="370" y="219" on="1"/>
        <pt x="627" y="219" on="1"/>
        <pt x="705" y="219" on="0"/>
        <pt x="812" y="279" on="0"/>
        <pt x="869" y="395" on="0"/>
      </contour>
    </TTGlyph>
    <TTGlyph name="Beta" xMin="32" yMin="0" xMax="1204" yMax="1349">
      <component glyphName="B" x="0" y="0" flags="0x204"/>
    </TTGlyph>
    <TTGlyph name="C" xMin="83" yMin="-20" xMax="1230" yMax="1370">
      <contour>
        <pt x="386" y="486" on="1"/>
        <pt x="386" y="212" on="0"/>
        <pt x="595" y="212" on="1"/>
        <pt x="759" y="212" on="0"/>
        <pt x="883" y="456" on="1"/>
        <pt x="1146" y="404" on="1"/>
        <pt x="928" y="-20" on="0"/>
        <pt x="547" y="-20" on="1"/>
        <pt x="317" y="-20" on="0"/>
        <pt x="83" y="217" on="0"/>
        <pt x="83" y="449" on="1"/>
        <pt x="83" y="557" on="0"/>
        <pt x="107" y="681" on="1"/>
        <pt x="243" y="1370" on="0"/>
        <pt x="809" y="1370" on="1"/>
        <pt x="1184" y="1370" on="0"/>
        <pt x="1230" y="981" on="1"/>
        <pt x="945" y="915" on="1"/>
        <pt x="936" y="1022" on="0"/>
        <pt x="844" y="1138" on="0"/>
        <pt x="768" y="1138" on="1"/>
        <pt x="651" y="1138" on="0"/>
        <pt x="484" y="967" on="0"/>
        <pt x="386" y="629" on="0"/>
      </contour>
    </TTGlyph>
    <TTGlyph name="Cacute" xMin="83" yMin="-20" xMax="1234" yMax="1702">
      <component glyphName="C" x="0" y="0" flags="0x204"/>
      <component glyphName="acute" x="179" y="244" flags="0x4"/>
    </TTGlyph>
    <TTGlyph name="Ccaron" xMin="83" yMin="-20" xMax="1230" yMax="1705">
      <component glyphName="C" x="0" y="0" flags="0x204"/>
      <component glyphName="caron" x="64" y="244" flags="0x4"/>
    </TTGlyph>
    <TTGlyph name="Ccedilla" xMin="83" yMin="-445" xMax="1230" yMax="1370">
      <component glyphName="C" x="0" y="0" flags="0x204"/>
      <component glyphName="cedilla" x="354" y="0" flags="0x4"/>
    </TTGlyph>
    <TTGlyph name="Ccircumflex" xMin="83" yMin="-20" xMax="1230" yMax="1705">
      <component glyphName="C" x="0" y="0" flags="0x204"/>
      <component glyphName="circumflex" x="67" y="244" flags="0x4"/>
    </TTGlyph>
    <TTGlyph name="Cdotaccent" xMin="83" yMin="-20" xMax="1230" yMax="1628">
      <component glyphName="C" x="0" y="0" flags="0x204"/>
      <component glyphName="dotaccent" x="60" y="154" flags="0x4"/>
    </TTGlyph>
    <TTGlyph name="Chi" xMin="-105" yMin="0" xMax="1345" yMax="1349">
      <component glyphName="X" x="0" y="0" flags="0x204"/>
    </TTGlyph>
    <TTGlyph name="D" xMin="30" yMin="0" xMax="1199" yMax="1349">
      <contour>
        <pt x="451" y="0" on="1"/>
        <pt x="30" y="0" on="1"/>
        <pt x="292" y="1349" on="1"/>
        <pt x="653" y="1349" on="1"/>
        <pt x="1199" y="1349" on="0"/>
        <pt x="1199" y="889" on="1"/>
        <pt x="1199" y="734" on="0"/>
        <pt x="1091" y="377" on="0"/>
        <pt x="896" y="128" on="0"/>
        <pt x="620" y="0" on="0"/>
      </contour>
      <contour>
        <pt x="898" y="849" on="1"/>
        <pt x="898" y="993" on="0"/>
        <pt x="751" y="1121" on="0"/>
        <pt x="604" y="1121" on="1"/>
        <pt x="543" y="1121" on="1"/>
        <pt x="369" y="228" on="1"/>
        <pt x="471" y="228" on="1"/>
        <pt x="790" y="228" on="0"/>
        <pt x="880" y="685" on="1"/>
        <pt x="898" y="778" on="0"/>
      </contour>
    </TTGlyph>
    <TTGlyph name="Dcaron" xMin="30" yMin="0" xMax="1199" yMax="1705">
      <component glyphName="D" x="0" y="0" flags="0x204"/>
      <component glyphName="caron" x="17" y="244" flags="0x4"/>
    </TTGlyph>
    <TTGlyph name="Dcroat" xMin="19" yMin="0" xMax="1212" yMax="1349">
      <component glyphName="Eth" x="0" y="0" flags="0x204"/>
    </TTGlyph>
    <TTGlyph name="Delta" xMin="-87" yMin="0" xMax="1151" yMax="1349">
      <contour>
        <pt x="603" y="1349" on="1"/>
        <pt x="948" y="1349" on="1"/>
        <pt x="1151" y="226" on="1"/>
        <pt x="1107" y="0" on="1"/>
        <pt x="-87" y="0" on="1"/>
        <pt x="-43" y="226" on="1"/>
      </contour>
      <contour>
        <pt x="860" y="244" on="1"/>
        <pt x="758" y="862" on="1"/>
        <pt x="749" y="923" on="0"/>
        <pt x="736" y="1132" on="0"/>
        <pt x="736" y="1159" on="1"/>
        <pt x="653" y="966" on="0"/>
        <pt x="599" y="860" on="1"/>
        <pt x="259" y="244" on="1"/>
      </contour>
    </TTGlyph>
    <TTGlyph name="E" xMin="32" yMin="0" xMax="1262" yMax="1349">
      <contour>
        <pt x="32" y="0" on="1"/>
        <pt x="294" y="1349" on="1"/>
        <pt x="1262" y="1349" on="1"/>
        <pt x="1218" y="1121" on="1"/>
        <pt x="545" y="1121" on="1"/>
        <pt x="482" y="797" on="1"/>
        <pt x="1094" y="797" on="1"/>
        <pt x="1050" y="569" on="1"/>
        <pt x="438" y="569" on="1"/>
        <pt x="371" y="228" on="1"/>
        <pt x="1085" y="228" on="1"/>
        <pt x="1041" y="0" on="1"/>
      </contour>
    </TTGlyph>
    <TTGlyph name="Eacute" xMin="32" yMin="0" xMax="1262" yMax="1702">
      <component glyphName="E" x="0" y="0" flags="0x204"/>
      <component glyphName="acute" x="138" y="244" flags="0x4"/>
    </TTGlyph>
    <TTGlyph name="Ebreve" xMin="32" yMin="0" xMax="1262" yMax="1705">
      <component glyphName="E" x="0" y="0" flags="0x204"/>
      <component glyphName="breve" x="47" y="244" flags="0x4"/>
    </TTGlyph>
    <TTGlyph name="Ecaron" xMin="32" yMin="0" xMax="1262" yMax="1705">
      <component glyphName="E" x="0" y="0" flags="0x204"/>
      <component glyphName="caron" x="58" y="244" flags="0x4"/>
    </TTGlyph>
    <TTGlyph name="Ecircumflex" xMin="32" yMin="0" xMax="1262" yMax="1705">
      <component glyphName="E" x="0" y="0" flags="0x204"/>
      <component glyphName="circumflex" x="47" y="244" flags="0x4"/>
    </TTGlyph>
    <TTGlyph name="Ecircumflexacute" xMin="32" yMin="0" xMax="1408" yMax="1800">
      <component glyphName="E" x="0" y="0" flags="0x204"/>
      <component glyphName="circumflexacute" x="634" y="0" flags="0x4"/>
    </TTGlyph>
    <TTGlyph name="Ecircumflexdotbelow" xMin="32" yMin="-366" xMax="1262" yMax="1707">
      <component glyphName="E" x="0" y="0" flags="0x204"/>
      <component glyphName="circumflex.uc" x="320" y="0" flags="0x4"/>
      <component glyphName="dotbelow.alt1" x="885" y="0" flags="0x4"/>
    </TTGlyph>
    <TTGlyph name="Ecircumflexgrave" xMin="32" yMin="0" xMax="1262" yMax="1800">
      <component glyphName="E" x="0" y="0" flags="0x204"/>
      <component glyphName="circumflexgrave" x="633" y="0" flags="0x4"/>
    </TTGlyph>
    <TTGlyph name="Ecircumflexhookabove" xMin="32" yMin="0" xMax="1309" yMax="1799">
      <component glyphName="E" x="0" y="0" flags="0x204"/>
      <component glyphName="circumflexhook" x="634" y="0" flags="0x4"/>
    </TTGlyph>
    <TTGlyph name="Ecircumflextilde" xMin="32" yMin="0" xMax="1262" yMax="1800">
      <component glyphName="E" x="0" y="0" flags="0x204"/>
      <component glyphName="circumflextilde" x="633" y="0" flags="0x4"/>
    </TTGlyph>
    <TTGlyph name="Edieresis" xMin="32" yMin="0" xMax="1262" yMax="1664">
      <component glyphName="E" x="0" y="0" flags="0x204"/>
      <component glyphName="dieresis" x="64" y="226" flags="0x4"/>
    </TTGlyph>
    <TTGlyph name="Edotaccent" xMin="32" yMin="0" xMax="1262" yMax="1628">
      <component glyphName="E" x="0" y="0" flags="0x204"/>
      <component glyphName="dotaccent" x="30" y="154" flags="0x4"/>
    </TTGlyph>
    <TTGlyph name="Edotbelow" xMin="32" yMin="-366" xMax="1262" yMax="1349">
      <component glyphName="E" x="0" y="0" flags="0x204"/>
      <component glyphName="dotbelow.alt1" x="825" y="0" flags="0x4"/>
    </TTGlyph>
    <TTGlyph name="Egrave" xMin="32" yMin="0" xMax="1262" yMax="1702">
      <component glyphName="E" x="0" y="0" flags="0x204"/>
      <component glyphName="grave" x="-24" y="244" flags="0x4"/>
    </TTGlyph>
    <TTGlyph name="Ehookabove" xMin="32" yMin="0" xMax="1262" yMax="1785">
      <component glyphName="E" x="0" y="0" flags="0x204"/>
      <component glyphName="hookabovecomb" x="903" y="0" flags="0x4"/>
    </TTGlyph>
    <TTGlyph name="Emacron" xMin="32" yMin="0" xMax="1262" yMax="1638">
      <component glyphName="E" x="0" y="0" flags="0x204"/>
      <component glyphName="uni02C9" x="70" y="267" flags="0x4"/>
    </TTGlyph>
    <TTGlyph name="Eng" xMin="12" yMin="-20" xMax="1221" yMax="1369">
      <contour>
        <pt x="665" y="-20" on="1"/>
        <pt x="542" y="-20" on="0"/>
        <pt x="413" y="100" on="0"/>
        <pt x="401" y="234" on="1"/>
        <pt x="624" y="302" on="1"/>
        <pt x="629" y="244" on="0"/>
        <pt x="659" y="202" on="0"/>
        <pt x="693" y="202" on="1"/>
        <pt x="741" y="202" on="0"/>
        <pt x="802" y="324" on="0"/>
        <pt x="832" y="475" on="1"/>
        <pt x="905" y="848" on="1"/>
        <pt x="925" y="948" on="0"/>
        <pt x="925" y="1008" on="1"/>
        <pt x="925" y="1084" on="0"/>
        <pt x="863" y="1140" on="0"/>
        <pt x="800" y="1140" on="1"/>
        <pt x="737" y="1140" on="0"/>
        <pt x="581" y="1015" on="0"/>
        <pt x="466" y="818" on="0"/>
        <pt x="445" y="709" on="1"/>
        <pt x="307" y="0" on="1"/>
        <pt x="12" y="0" on="1"/>
        <pt x="213" y="1032" on="1"/>
        <pt x="270" y="1349" on="1"/>
        <pt x="558" y="1349" on="1"/>
        <pt x="553" y="1297" on="0"/>
        <pt x="532" y="1162" on="0"/>
        <pt x="520" y="1098" on="1"/>
        <pt x="524" y="1098" on="1"/>
        <pt x="601" y="1221" on="0"/>
        <pt x="834" y="1369" on="0"/>
        <pt x="945" y="1369" on="1"/>
        <pt x="1082" y="1369" on="0"/>
        <pt x="1221" y="1227" on="0"/>
        <pt x="1221" y="1071" on="1"/>
        <pt x="1221" y="982" on="0"/>
        <pt x="1199" y="869" on="1"/>
        <pt x="1128" y="502" on="1"/>
        <pt x="1076" y="237" on="0"/>
        <pt x="849" y="-20" on="0"/>
      </contour>
    </TTGlyph>
    <TTGlyph name="Eng.alt1" xMin="33" yMin="-425" xMax="1170" yMax="1370">
      <contour>
        <pt x="498" y="-425" on="1"/>
        <pt x="409" y="-425" on="0"/>
        <pt x="306" y="-406" on="1"/>
        <pt x="347" y="-196" on="1"/>
        <pt x="424" y="-207" on="0"/>
        <pt x="472" y="-207" on="1"/>
        <pt x="571" y="-207" on="0"/>
        <pt x="672" y="-98" on="0"/>
        <pt x="697" y="32" on="1"/>
        <pt x="853" y="833" on="1"/>
        <pt x="870" y="923" on="0"/>
        <pt x="870" y="983" on="1"/>
        <pt x="870" y="1065" on="0"/>
        <pt x="805" y="1138" on="0"/>
        <pt x="734" y="1138" on="1"/>
        <pt x="649" y="1138" on="0"/>
        <pt x="519" y="982" on="0"/>
        <pt x="494" y="852" on="1"/>
        <pt x="328" y="0" on="1"/>
        <pt x="33" y="0" on="1"/>
        <pt x="295" y="1349" on="1"/>
        <pt x="571" y="1349" on="1"/>
        <pt x="539" y="1183" on="1"/>
        <pt x="604" y="1274" on="0"/>
        <pt x="777" y="1370" on="0"/>
        <pt x="878" y="1370" on="1"/>
        <pt x="1016" y="1370" on="0"/>
        <pt x="1170" y="1189" on="0"/>
        <pt x="1170" y="1024" on="1"/>
        <pt x="1170" y="949" on="0"/>
        <pt x="1154" y="865" on="1"/>
        <pt x="982" y="-18" on="1"/>
        <pt x="902" y="-425" on="0"/>
      </contour>
    </TTGlyph>
    <TTGlyph name="Eng.alt2" xMin="30" yMin="-425" xMax="1251" yMax="1349">
      <contour>
        <pt x="643" y="-425" on="1"/>
        <pt x="542" y="-425" on="0"/>
        <pt x="475" y="-416" on="1"/>
        <pt x="514" y="-218" on="1"/>
        <pt x="564" y="-222" on="1"/>
        <pt x="617" y="-222" on="0"/>
        <pt x="674" y="-192" on="0"/>
        <pt x="708" y="-124" on="0"/>
        <pt x="732" y="3" on="1"/>
        <pt x="455" y="1010" on="1"/>
        <pt x="425" y="705" on="0"/>
        <pt x="415" y="656" on="1"/>
        <pt x="287" y="0" on="1"/>
        <pt x="30" y="0" on="1"/>
        <pt x="292" y="1349" on="1"/>
        <pt x="629" y="1349" on="1"/>
        <pt x="854" y="516" on="1"/>
        <pt x="876" y="740" on="0"/>
        <pt x="900" y="862" on="1"/>
        <pt x="995" y="1349" on="1"/>
        <pt x="1251" y="1349" on="1"/>
        <pt x="964" y="-128" on="1"/>
        <pt x="936" y="-278" on="0"/>
        <pt x="779" y="-425" on="0"/>
      </contour>
    </TTGlyph>
    <TTGlyph name="Eng.alt3" xMin="54" yMin="-13" xMax="1224" yMax="1370">
      <contour>
        <pt x="336" y="456" on="1"/>
        <pt x="343" y="327" on="0"/>
        <pt x="445" y="218" on="0"/>
        <pt x="556" y="218" on="1"/>
        <pt x="669" y="218" on="0"/>
        <pt x="833" y="433" on="0"/>
        <pt x="923" y="858" on="0"/>
        <pt x="923" y="947" on="1"/>
        <pt x="923" y="1047" on="0"/>
        <pt x="834" y="1138" on="0"/>
        <pt x="737" y="1138" on="1"/>
        <pt x="622" y="1138" on="0"/>
        <pt x="456" y="977" on="0"/>
        <pt x="432" y="852" on="1"/>
        <pt x="397" y="670" on="1"/>
        <pt x="97" y="670" on="1"/>
        <pt x="229" y="1349" on="1"/>
        <pt x="470" y="1349" on="1"/>
        <pt x="438" y="1183" on="1"/>
        <pt x="514" y="1274" on="0"/>
        <pt x="728" y="1370" on="0"/>
        <pt x="853" y="1370" on="1"/>
        <pt x="1089" y="1370" on="0"/>
        <pt x="1224" y="1121" on="0"/>
        <pt x="1224" y="978" on="1"/>
        <pt x="1224" y="853" on="0"/>
        <pt x="1127" y="415" on="0"/>
        <pt x="950" y="129" on="0"/>
        <pt x="688" y="-13" on="0"/>
        <pt x="512" y="-13" on="1"/>
        <pt x="80" y="-13" on="0"/>
        <pt x="54" y="403" on="1"/>
      </contour>
    </TTGlyph>
    <TTGlyph name="Eogonek" xMin="32" yMin="-425" xMax="1262" yMax="1349">
      <component glyphName="E" x="0" y="0" flags="0x204"/>
      <component glyphName="ogonek" x="331" y="0" flags="0x4"/>
    </TTGlyph>
    <TTGlyph name="Epsilon" xMin="32" yMin="0" xMax="1262" yMax="1349">
      <component glyphName="E" x="0" y="0" flags="0x204"/>
    </TTGlyph>
    <TTGlyph name="Epsilontonos" xMin="33" yMin="0" xMax="1292" yMax="1349">
      <contour>
        <pt x="222" y="0" on="1"/>
        <pt x="484" y="1349" on="1"/>
        <pt x="1292" y="1349" on="1"/>
        <pt x="1247" y="1121" on="1"/>
        <pt x="734" y="1121" on="1"/>
        <pt x="671" y="797" on="1"/>
        <pt x="1123" y="797" on="1"/>
        <pt x="1079" y="569" on="1"/>
        <pt x="627" y="569" on="1"/>
        <pt x="561" y="228" on="1"/>
        <pt x="1115" y="228" on="1"/>
        <pt x="1071" y="0" on="1"/>
      </contour>
      <contour>
        <pt x="33" y="994" on="1"/>
        <pt x="40" y="1027" on="1"/>
        <pt x="156" y="1349" on="1"/>
        <pt x="413" y="1349" on="1"/>
        <pt x="406" y="1312" on="1"/>
        <pt x="138" y="994" on="1"/>
      </contour>
    </TTGlyph>
    <TTGlyph name="Eta" xMin="33" yMin="0" xMax="1248" yMax="1349">
      <component glyphName="H" x="0" y="0" flags="0x204"/>
    </TTGlyph>
    <TTGlyph name="Etatonos" xMin="33" yMin="0" xMax="1327" yMax="1349">
      <contour>
        <pt x="785" y="0" on="1"/>
        <pt x="896" y="574" on="1"/>
        <pt x="613" y="574" on="1"/>
        <pt x="502" y="0" on="1"/>
        <pt x="222" y="0" on="1"/>
        <pt x="484" y="1349" on="1"/>
        <pt x="764" y="1349" on="1"/>
        <pt x="661" y="818" on="1"/>
        <pt x="944" y="818" on="1"/>
        <pt x="1047" y="1349" on="1"/>
        <pt x="1327" y="1349" on="1"/>
        <pt x="1065" y="0" on="1"/>
      </contour>
      <contour>
        <pt x="33" y="994" on="1"/>
        <pt x="40" y="1027" on="1"/>
        <pt x="156" y="1349" on="1"/>
        <pt x="413" y="1349" on="1"/>
        <pt x="406" y="1312" on="1"/>
        <pt x="138" y="994" on="1"/>
      </contour>
    </TTGlyph>
    <TTGlyph name="Eth" xMin="19" yMin="0" xMax="1212" yMax="1349">
      <contour>
        <pt x="464" y="0" on="1"/>
        <pt x="43" y="0" on="1"/>
        <pt x="153" y="564" on="1"/>
        <pt x="19" y="564" on="1"/>
        <pt x="61" y="783" on="1"/>
        <pt x="195" y="783" on="1"/>
        <pt x="305" y="1349" on="1"/>
        <pt x="666" y="1349" on="1"/>
        <pt x="1212" y="1349" on="0"/>
        <pt x="1212" y="889" on="1"/>
        <pt x="1212" y="734" on="0"/>
        <pt x="1104" y="377" on="0"/>
        <pt x="909" y="128" on="0"/>
        <pt x="633" y="0" on="0"/>
      </contour>
      <contour>
        <pt x="911" y="849" on="1"/>
        <pt x="911" y="993" on="0"/>
        <pt x="764" y="1121" on="0"/>
        <pt x="617" y="1121" on="1"/>
        <pt x="556" y="1121" on="1"/>
        <pt x="490" y="783" on="1"/>
        <pt x="697" y="783" on="1"/>
        <pt x="655" y="564" on="1"/>
        <pt x="448" y="564" on="1"/>
        <pt x="382" y="228" on="1"/>
        <pt x="484" y="228" on="1"/>
        <pt x="803" y="228" on="0"/>
        <pt x="893" y="685" on="1"/>
        <pt x="911" y="778" on="0"/>
      </contour>
    </TTGlyph>
    <TTGlyph name="Etilde" xMin="32" yMin="0" xMax="1262" yMax="1705">
      <component glyphName="E" x="0" y="0" flags="0x204"/>
      <component glyphName="tilde" x="20" y="239" flags="0x4"/>
    </TTGlyph>
    <TTGlyph name="Euro" xMin="55" yMin="-20" xMax="1295" yMax="1370">
      <contour>
        <pt x="878" y="463" on="1"/>
        <pt x="505" y="463" on="1"/>
        <pt x="509" y="341" on="0"/>
        <pt x="609" y="211" on="0"/>
        <pt x="705" y="211" on="1"/>
        <pt x="784" y="211" on="0"/>
        <pt x="927" y="272" on="0"/>
        <pt x="1005" y="326" on="1"/>
        <pt x="1101" y="142" on="1"/>
        <pt x="997" y="61" on="0"/>
        <pt x="773" y="-20" on="0"/>
        <pt x="638" y="-20" on="1"/>
        <pt x="429" y="-20" on="0"/>
        <pt x="202" y="215" on="0"/>
        <pt x="202" y="431" on="1"/>
        <pt x="203" y="460" on="1"/>
        <pt x="55" y="460" on="1"/>
        <pt x="83" y="604" on="1"/>
        <pt x="214" y="604" on="1"/>
        <pt x="220" y="644" on="1"/>
        <pt x="244" y="758" on="1"/>
        <pt x="113" y="758" on="1"/>
        <pt x="141" y="900" on="1"/>
        <pt x="288" y="900" on="1"/>
        <pt x="371" y="1129" on="0"/>
        <pt x="690" y="1370" on="0"/>
        <pt x="910" y="1370" on="1"/>
        <pt x="1157" y="1370" on="0"/>
        <pt x="1295" y="1228" on="1"/>
        <pt x="1124" y="1026" on="1"/>
        <pt x="1073" y="1075" on="0"/>
        <pt x="953" y="1139" on="0"/>
        <pt x="876" y="1139" on="1"/>
        <pt x="781" y="1139" on="0"/>
        <pt x="637" y="1013" on="0"/>
        <pt x="593" y="898" on="1"/>
        <pt x="963" y="898" on="1"/>
        <pt x="935" y="757" on="1"/>
        <pt x="543" y="757" on="1"/>
        <pt x="519" y="674" on="0"/>
        <pt x="515" y="605" on="1"/>
        <pt x="906" y="605" on="1"/>
      </contour>
    </TTGlyph>
    <TTGlyph name="F" xMin="62" yMin="0" xMax="1263" yMax="1349">
      <contour>
        <pt x="575" y="1121" on="1"/>
        <pt x="500" y="737" on="1"/>
        <pt x="1121" y="737" on="1"/>
        <pt x="1077" y="509" on="1"/>
        <pt x="456" y="509" on="1"/>
        <pt x="357" y="0" on="1"/>
        <pt x="62" y="0" on="1"/>
        <pt x="324" y="1349" on="1"/>
        <pt x="1263" y="1349" on="1"/>
        <pt x="1219" y="1121" on="1"/>
      </contour>
    </TTGlyph>
    <TTGlyph name="G" xMin="84" yMin="-20" xMax="1188" yMax="1370">
      <contour>
        <pt x="526" y="-20" on="1"/>
        <pt x="310" y="-20" on="0"/>
        <pt x="84" y="231" on="0"/>
        <pt x="84" y="460" on="1"/>
        <pt x="84" y="621" on="0"/>
        <pt x="193" y="1002" on="0"/>
        <pt x="373" y="1247" on="0"/>
        <pt x="631" y="1370" on="0"/>
        <pt x="799" y="1370" on="1"/>
        <pt x="978" y="1370" on="0"/>
        <pt x="1170" y="1186" on="0"/>
        <pt x="1188" y="995" on="1"/>
        <pt x="904" y="941" on="1"/>
        <pt x="888" y="1138" on="0"/>
        <pt x="757" y="1138" on="1"/>
        <pt x="640" y="1138" on="0"/>
        <pt x="483" y="977" on="0"/>
        <pt x="385" y="623" on="0"/>
        <pt x="385" y="483" on="1"/>
        <pt x="385" y="216" on="0"/>
        <pt x="587" y="216" on="1"/>
        <pt x="642" y="216" on="0"/>
        <pt x="768" y="259" on="0"/>
        <pt x="809" y="290" on="1"/>
        <pt x="855" y="525" on="1"/>
        <pt x="581" y="525" on="1"/>
        <pt x="623" y="743" on="1"/>
        <pt x="1167" y="743" on="1"/>
        <pt x="1059" y="185" on="1"/>
        <pt x="777" y="-20" on="0"/>
      </contour>
    </TTGlyph>
    <TTGlyph name="Gamma" xMin="72" yMin="1" xMax="1301" yMax="1349">
      <contour>
        <pt x="1301" y="1349" on="1"/>
        <pt x="1257" y="1121" on="1"/>
        <pt x="585" y="1121" on="1"/>
        <pt x="367" y="1" on="1"/>
        <pt x="72" y="1" on="1"/>
        <pt x="334" y="1349" on="1"/>
      </contour>
    </TTGlyph>
    <TTGlyph name="Gbreve" xMin="84" yMin="-20" xMax="1197" yMax="1705">
      <component glyphName="G" x="0" y="0" flags="0x204"/>
      <component glyphName="breve" x="50" y="244" flags="0x4"/>
    </TTGlyph>
    <TTGlyph name="Gcircumflex" xMin="84" yMin="-20" xMax="1188" yMax="1705">
      <component glyphName="G" x="0" y="0" flags="0x204"/>
      <component glyphName="circumflex" x="47" y="244" flags="0x4"/>
    </TTGlyph>
    <TTGlyph name="Gcommaaccent" xMin="84" yMin="-453" xMax="1188" yMax="1370">
      <component glyphName="G" x="0" y="0" flags="0x204"/>
      <component glyphName="undercommaaccent" x="0" y="0" flags="0x4"/>
    </TTGlyph>
    <TTGlyph name="Gdotaccent" xMin="84" yMin="-20" xMax="1188" yMax="1628">
      <component glyphName="G" x="0" y="0" flags="0x204"/>
      <component glyphName="dotaccent" x="40" y="154" flags="0x4"/>
    </TTGlyph>
    <TTGlyph name="H" xMin="33" yMin="0" xMax="1248" yMax="1349">
      <contour>
        <pt x="691" y="0" on="1"/>
        <pt x="803" y="574" on="1"/>
        <pt x="440" y="574" on="1"/>
        <pt x="328" y="0" on="1"/>
        <pt x="33" y="0" on="1"/>
        <pt x="295" y="1349" on="1"/>
        <pt x="590" y="1349" on="1"/>
        <pt x="487" y="818" on="1"/>
        <pt x="850" y="818" on="1"/>
        <pt x="953" y="1349" on="1"/>
        <pt x="1248" y="1349" on="1"/>
        <pt x="986" y="0" on="1"/>
      </contour>
    </TTGlyph>
    <TTGlyph name="Hbar" xMin="33" yMin="0" xMax="1349" yMax="1349">
      <contour>
        <pt x="691" y="0" on="1"/>
        <pt x="803" y="574" on="1"/>
        <pt x="440" y="574" on="1"/>
        <pt x="328" y="0" on="1"/>
        <pt x="33" y="0" on="1"/>
        <pt x="228" y="1004" on="1"/>
        <pt x="92" y="1004" on="1"/>
        <pt x="125" y="1172" on="1"/>
        <pt x="261" y="1172" on="1"/>
        <pt x="295" y="1349" on="1"/>
        <pt x="590" y="1349" on="1"/>
        <pt x="556" y="1172" on="1"/>
        <pt x="919" y="1172" on="1"/>
        <pt x="953" y="1349" on="1"/>
        <pt x="1248" y="1349" on="1"/>
        <pt x="1214" y="1172" on="1"/>
        <pt x="1349" y="1172" on="1"/>
        <pt x="1316" y="1004" on="1"/>
        <pt x="1181" y="1004" on="1"/>
        <pt x="986" y="0" on="1"/>
      </contour>
      <contour>
        <pt x="850" y="818" on="1"/>
        <pt x="886" y="1004" on="1"/>
        <pt x="523" y="1004" on="1"/>
        <pt x="487" y="818" on="1"/>
      </contour>
    </TTGlyph>
    <TTGlyph name="Hcircumflex" xMin="33" yMin="0" xMax="1248" yMax="1705">
      <component glyphName="H" x="0" y="0" flags="0x204"/>
      <component glyphName="circumflex" x="46" y="244" flags="0x4"/>
    </TTGlyph>
    <TTGlyph name="I" xMin="52" yMin="0" xMax="1230" yMax="1349">
      <contour>
        <pt x="314" y="1349" on="1"/>
        <pt x="1230" y="1349" on="1"/>
        <pt x="1186" y="1121" on="1"/>
        <pt x="870" y="1121" on="1"/>
        <pt x="696" y="228" on="1"/>
        <pt x="1012" y="228" on="1"/>
        <pt x="968" y="0" on="1"/>
        <pt x="52" y="0" on="1"/>
        <pt x="96" y="228" on="1"/>
        <pt x="412" y="228" on="1"/>
        <pt x="586" y="1121" on="1"/>
        <pt x="270" y="1121" on="1"/>
      </contour>
    </TTGlyph>
    <TTGlyph name="IJ" xMin="-32" yMin="-20" xMax="1316" yMax="1349">
      <contour>
        <pt x="230" y="1349" on="1"/>
        <pt x="514" y="1349" on="1"/>
        <pt x="252" y="0" on="1"/>
        <pt x="-32" y="0" on="1"/>
      </contour>
      <contour>
        <pt x="675" y="-20" on="1"/>
        <pt x="520" y="-20" on="0"/>
        <pt x="376" y="119" on="0"/>
        <pt x="376" y="268" on="1"/>
        <pt x="376" y="311" on="0"/>
        <pt x="382" y="360" on="1"/>
        <pt x="653" y="398" on="1"/>
        <pt x="649" y="329" on="1"/>
        <pt x="649" y="269" on="0"/>
        <pt x="683" y="211" on="0"/>
        <pt x="727" y="211" on="1"/>
        <pt x="773" y="211" on="0"/>
        <pt x="827" y="305" on="0"/>
        <pt x="848" y="414" on="1"/>
        <pt x="985" y="1118" on="1"/>
        <pt x="731" y="1118" on="1"/>
        <pt x="776" y="1349" on="1"/>
        <pt x="1316" y="1349" on="1"/>
        <pt x="1141" y="446" on="1"/>
        <pt x="1050" y="-20" on="0"/>
      </contour>
    </TTGlyph>
    <TTGlyph name="Iacute" xMin="52" yMin="0" xMax="1230" yMax="1702">
      <component glyphName="I" x="0" y="0" flags="0x204"/>
      <component glyphName="acute" x="150" y="244" flags="0x4"/>
    </TTGlyph>
    <TTGlyph name="Ibreve" xMin="52" yMin="0" xMax="1230" yMax="1705">
      <component glyphName="I" x="0" y="0" flags="0x204"/>
      <component glyphName="breve" x="47" y="244" flags="0x4"/>
    </TTGlyph>
    <TTGlyph name="Icircumflex" xMin="52" yMin="0" xMax="1230" yMax="1705">
      <component glyphName="I" x="0" y="0" flags="0x204"/>
      <component glyphName="circumflex" x="47" y="244" flags="0x4"/>
    </TTGlyph>
    <TTGlyph name="Idieresis" xMin="52" yMin="0" xMax="1230" yMax="1664">
      <component glyphName="I" x="0" y="0" flags="0x204"/>
      <component glyphName="dieresis" x="44" y="226" flags="0x4"/>
    </TTGlyph>
    <TTGlyph name="Idotaccent" xMin="52" yMin="0" xMax="1230" yMax="1628">
      <component glyphName="I" x="0" y="0" flags="0x204"/>
      <component glyphName="dotaccent" x="30" y="154" flags="0x4"/>
    </TTGlyph>
    <TTGlyph name="Idotbelow" xMin="52" yMin="-366" xMax="1230" yMax="1349">
      <component glyphName="I" x="0" y="0" flags="0x204"/>
      <component glyphName="dotbelow.alt1" x="825" y="0" flags="0x4"/>
    </TTGlyph>
    <TTGlyph name="Igrave" xMin="52" yMin="0" xMax="1230" yMax="1702">
      <component glyphName="I" x="0" y="0" flags="0x204"/>
      <component glyphName="grave" x="-34" y="244" flags="0x4"/>
    </TTGlyph>
    <TTGlyph name="Ihookabove" xMin="52" yMin="0" xMax="1230" yMax="1785">
      <component glyphName="I" x="0" y="0" flags="0x204"/>
      <component glyphName="hookabovecomb" x="883" y="0" flags="0x4"/>
    </TTGlyph>
    <TTGlyph name="Imacron" xMin="52" yMin="0" xMax="1230" yMax="1638">
      <component glyphName="I" x="0" y="0" flags="0x204"/>
      <component glyphName="uni02C9" x="54" y="267" flags="0x4"/>
    </TTGlyph>
    <TTGlyph name="Iogonek" xMin="52" yMin="-425" xMax="1230" yMax="1349">
      <component glyphName="I" x="0" y="0" flags="0x204"/>
      <component glyphName="ogonek" x="13" y="0" flags="0x4"/>
    </TTGlyph>
    <TTGlyph name="Iota" xMin="52" yMin="0" xMax="1230" yMax="1349">
      <component glyphName="I" x="0" y="0" flags="0x204"/>
    </TTGlyph>
    <TTGlyph name="Iotadieresis" xMin="52" yMin="0" xMax="1230" yMax="1664">
      <component glyphName="I" x="0" y="0" flags="0x204"/>
      <component glyphName="dieresis" x="44" y="226" flags="0x4"/>
    </TTGlyph>
    <TTGlyph name="Iotatonos" xMin="34" yMin="0" xMax="1355" yMax="1350">
      <component glyphName="I" x="125" y="0" flags="0x4"/>
      <component glyphName="tonos" x="-569" y="-206" flags="0x4"/>
    </TTGlyph>
    <TTGlyph name="Itilde" xMin="52" yMin="0" xMax="1230" yMax="1705">
      <component glyphName="I" x="0" y="0" flags="0x204"/>
      <component glyphName="tilde" x="46" y="239" flags="0x4"/>
    </TTGlyph>
    <TTGlyph name="J" xMin="74" yMin="-20" xMax="1176" yMax="1349">
      <contour>
        <pt x="455" y="-20" on="1"/>
        <pt x="265" y="-20" on="0"/>
        <pt x="74" y="183" on="0"/>
        <pt x="74" y="370" on="1"/>
        <pt x="75" y="402" on="1"/>
        <pt x="374" y="445" on="1"/>
        <pt x="374" y="426" on="1"/>
        <pt x="374" y="322" on="0"/>
        <pt x="439" y="211" on="0"/>
        <pt x="502" y="211" on="1"/>
        <pt x="575" y="211" on="0"/>
        <pt x="684" y="329" on="0"/>
        <pt x="705" y="439" on="1"/>
        <pt x="837" y="1118" on="1"/>
        <pt x="536" y="1118" on="1"/>
        <pt x="581" y="1349" on="1"/>
        <pt x="1176" y="1349" on="1"/>
        <pt x="1001" y="446" on="1"/>
        <pt x="958" y="228" on="0"/>
        <pt x="667" y="-20" on="0"/>
      </contour>
    </TTGlyph>
    <TTGlyph name="Jcircumflex" xMin="74" yMin="-20" xMax="1280" yMax="1705">
      <component glyphName="J" x="0" y="0" flags="0x204"/>
      <component glyphName="circumflex" x="167" y="244" flags="0x4"/>
    </TTGlyph>
    <TTGlyph name="K" xMin="31" yMin="0" xMax="1367" yMax="1349">
      <contour>
        <pt x="776" y="0" on="1"/>
        <pt x="561" y="557" on="1"/>
        <pt x="407" y="415" on="1"/>
        <pt x="326" y="0" on="1"/>
        <pt x="31" y="0" on="1"/>
        <pt x="293" y="1349" on="1"/>
        <pt x="588" y="1349" on="1"/>
        <pt x="472" y="750" on="1"/>
        <pt x="1024" y="1349" on="1"/>
        <pt x="1367" y="1349" on="1"/>
        <pt x="795" y="770" on="1"/>
        <pt x="1124" y="0" on="1"/>
      </contour>
    </TTGlyph>
    <TTGlyph name="Kappa" xMin="31" yMin="0" xMax="1367" yMax="1349">
      <component glyphName="K" x="0" y="0" flags="0x204"/>
    </TTGlyph>
    <TTGlyph name="Kcommaaccent" xMin="31" yMin="-453" xMax="1367" yMax="1349">
      <component glyphName="K" x="0" y="0" flags="0x204"/>
      <component glyphName="undercommaaccent" x="0" y="0" flags="0x4"/>
    </TTGlyph>
    <TTGlyph name="L" xMin="106" yMin="0" xMax="1061" yMax="1349">
      <contour>
        <pt x="106" y="0" on="1"/>
        <pt x="368" y="1349" on="1"/>
        <pt x="663" y="1349" on="1"/>
        <pt x="445" y="228" on="1"/>
        <pt x="1061" y="228" on="1"/>
        <pt x="1017" y="0" on="1"/>
      </contour>
    </TTGlyph>
    <TTGlyph name="Lacute" xMin="106" yMin="0" xMax="1061" yMax="1703">
      <component glyphName="L" x="0" y="0" flags="0x204"/>
      <component glyphName="acute" x="-50" y="245" flags="0x4"/>
    </TTGlyph>
    <TTGlyph name="Lambda" xMin="-85" yMin="0" xMax="1104" yMax="1349">
      <contour>
        <pt x="-85" y="0" on="1"/>
        <pt x="620" y="1349" on="1"/>
        <pt x="924" y="1349" on="1"/>
        <pt x="1104" y="0" on="1"/>
        <pt x="800" y="0" on="1"/>
        <pt x="720" y="865" on="1"/>
        <pt x="714" y="949" on="0"/>
        <pt x="714" y="1014" on="1"/>
        <pt x="714" y="1047" on="0"/>
        <pt x="715" y="1055" on="1"/>
        <pt x="701" y="1013" on="0"/>
        <pt x="661" y="920" on="0"/>
        <pt x="641" y="873" on="0"/>
        <pt x="220" y="0" on="1"/>
      </contour>
    </TTGlyph>
    <TTGlyph name="Lcaron" xMin="106" yMin="0" xMax="1258" yMax="1349">
      <component glyphName="L" x="0" y="0" flags="0x204"/>
      <component glyphName="undercommaaccent" x="601" y="1447" flags="0x4"/>
    </TTGlyph>
    <TTGlyph name="Lcommaaccent" xMin="106" yMin="-453" xMax="1061" yMax="1349">
      <component glyphName="L" x="0" y="0" flags="0x204"/>
      <component glyphName="undercommaaccent" x="10" y="0" flags="0x4"/>
    </TTGlyph>
    <TTGlyph name="Ldot" xMin="106" yMin="0" xMax="1061" yMax="1349">
      <component glyphName="L" x="0" y="0" flags="0x204"/>
      <component glyphName="dotaccent" x="53" y="-684" flags="0x4"/>
    </TTGlyph>
    <TTGlyph name="Lslash" xMin="1" yMin="0" xMax="1071" yMax="1349">
      <contour>
        <pt x="378" y="1349" on="1"/>
        <pt x="673" y="1349" on="1"/>
        <pt x="568" y="810" on="1"/>
        <pt x="839" y="938" on="1"/>
        <pt x="896" y="757" on="1"/>
        <pt x="524" y="580" on="1"/>
        <pt x="455" y="228" on="1"/>
        <pt x="1071" y="228" on="1"/>
        <pt x="1027" y="0" on="1"/>
        <pt x="116" y="0" on="1"/>
        <pt x="199" y="426" on="1"/>
        <pt x="62" y="362" on="1"/>
        <pt x="1" y="543" on="1"/>
        <pt x="244" y="657" on="1"/>
      </contour>
    </TTGlyph>
    <TTGlyph name="M" xMin="-6" yMin="0" xMax="1287" yMax="1349">
      <contour>
        <pt x="803" y="0" on="1"/>
        <pt x="972" y="868" on="1"/>
        <pt x="982" y="919" on="0"/>
        <pt x="1032" y="1120" on="0"/>
        <pt x="1046" y="1169" on="1"/>
        <pt x="938" y="897" on="0"/>
        <pt x="905" y="828" on="1"/>
        <pt x="690" y="360" on="1"/>
        <pt x="472" y="360" on="1"/>
        <pt x="437" y="828" on="1"/>
        <pt x="430" y="928" on="0"/>
        <pt x="427" y="1169" on="1"/>
        <pt x="399" y="949" on="0"/>
        <pt x="383" y="868" on="1"/>
        <pt x="214" y="0" on="1"/>
        <pt x="-6" y="0" on="1"/>
        <pt x="256" y="1349" on="1"/>
        <pt x="603" y="1349" on="1"/>
        <pt x="641" y="850" on="1"/>
        <pt x="643" y="803" on="1"/>
        <pt x="643" y="760" on="0"/>
        <pt x="634" y="619" on="1"/>
        <pt x="685" y="768" on="0"/>
        <pt x="719" y="849" on="1"/>
        <pt x="952" y="1349" on="1"/>
        <pt x="1287" y="1349" on="1"/>
        <pt x="1025" y="0" on="1"/>
      </contour>
    </TTGlyph>
    <TTGlyph name="Mu" xMin="-6" yMin="0" xMax="1287" yMax="1349">
      <component glyphName="M" x="0" y="0" flags="0x204"/>
    </TTGlyph>
    <TTGlyph name="N" xMin="30" yMin="0" xMax="1251" yMax="1349">
      <contour>
        <pt x="643" y="0" on="1"/>
        <pt x="455" y="1010" on="1"/>
        <pt x="443" y="872" on="1"/>
        <pt x="425" y="708" on="0"/>
        <pt x="415" y="656" on="1"/>
        <pt x="287" y="0" on="1"/>
        <pt x="30" y="0" on="1"/>
        <pt x="292" y="1349" on="1"/>
        <pt x="629" y="1349" on="1"/>
        <pt x="821" y="312" on="1"/>
        <pt x="839" y="551" on="0"/>
        <pt x="864" y="677" on="1"/>
        <pt x="994" y="1349" on="1"/>
        <pt x="1251" y="1349" on="1"/>
        <pt x="989" y="0" on="1"/>
      </contour>
    </TTGlyph>
    <TTGlyph name="Nacute" xMin="30" yMin="0" xMax="1251" yMax="1703">
      <component glyphName="N" x="0" y="0" flags="0x204"/>
      <component glyphName="acute" x="170" y="245" flags="0x4"/>
    </TTGlyph>
    <TTGlyph name="Ncaron" xMin="30" yMin="0" xMax="1251" yMax="1705">
      <component glyphName="N" x="0" y="0" flags="0x204"/>
      <component glyphName="caron" x="42" y="244" flags="0x4"/>
    </TTGlyph>
    <TTGlyph name="Ncommaaccent" xMin="30" yMin="-453" xMax="1251" yMax="1349">
      <component glyphName="N" x="0" y="0" flags="0x204"/>
      <component glyphName="undercommaaccent" x="-31" y="0" flags="0x4"/>
    </TTGlyph>
    <TTGlyph name="Ntilde" xMin="30" yMin="0" xMax="1251" yMax="1705">
      <component glyphName="N" x="0" y="0" flags="0x204"/>
      <component glyphName="tilde" x="46" y="239" flags="0x4"/>
    </TTGlyph>
    <TTGlyph name="Nu" xMin="30" yMin="0" xMax="1251" yMax="1349">
      <component glyphName="N" x="0" y="0" flags="0x204"/>
    </TTGlyph>
    <TTGlyph name="O" xMin="74" yMin="-20" xMax="1209" yMax="1370">
      <contour>
        <pt x="506" y="-20" on="1"/>
        <pt x="293" y="-20" on="0"/>
        <pt x="74" y="211" on="0"/>
        <pt x="74" y="440" on="1"/>
        <pt x="74" y="604" on="0"/>
        <pt x="177" y="983" on="0"/>
        <pt x="357" y="1238" on="0"/>
        <pt x="614" y="1370" on="0"/>
        <pt x="776" y="1370" on="1"/>
        <pt x="988" y="1370" on="0"/>
        <pt x="1209" y="1144" on="0"/>
        <pt x="1209" y="917" on="1"/>
        <pt x="1209" y="753" on="0"/>
        <pt x="1105" y="372" on="0"/>
        <pt x="922" y="113" on="0"/>
        <pt x="666" y="-20" on="0"/>
      </contour>
      <contour>
        <pt x="909" y="892" on="1"/>
        <pt x="909" y="1138" on="0"/>
        <pt x="731" y="1138" on="1"/>
        <pt x="624" y="1138" on="0"/>
        <pt x="469" y="960" on="0"/>
        <pt x="374" y="604" on="0"/>
        <pt x="374" y="466" on="1"/>
        <pt x="374" y="212" on="0"/>
        <pt x="551" y="212" on="1"/>
        <pt x="657" y="212" on="0"/>
        <pt x="813" y="395" on="0"/>
        <pt x="909" y="752" on="0"/>
      </contour>
    </TTGlyph>
    <TTGlyph name="OE" xMin="27" yMin="-5" xMax="1327" yMax="1355">
      <contour>
        <pt x="494" y="0" on="1"/>
        <pt x="415" y="-5" on="1"/>
        <pt x="216" y="-5" on="0"/>
        <pt x="27" y="197" on="0"/>
        <pt x="27" y="406" on="1"/>
        <pt x="27" y="564" on="0"/>
        <pt x="124" y="970" on="0"/>
        <pt x="285" y="1228" on="0"/>
        <pt x="519" y="1355" on="0"/>
        <pt x="681" y="1355" on="1"/>
        <pt x="720" y="1355" on="0"/>
        <pt x="769" y="1349" on="1"/>
        <pt x="1327" y="1349" on="1"/>
        <pt x="1288" y="1147" on="1"/>
        <pt x="975" y="1147" on="1"/>
        <pt x="906" y="792" on="1"/>
        <pt x="1193" y="792" on="1"/>
        <pt x="1154" y="592" on="1"/>
        <pt x="867" y="592" on="1"/>
        <pt x="791" y="202" on="1"/>
        <pt x="1145" y="202" on="1"/>
        <pt x="1106" y="0" on="1"/>
      </contour>
      <contour>
        <pt x="454" y="190" on="1"/>
        <pt x="509" y="190" on="0"/>
        <pt x="539" y="196" on="1"/>
        <pt x="725" y="1153" on="1"/>
        <pt x="689" y="1159" on="0"/>
        <pt x="643" y="1159" on="1"/>
        <pt x="531" y="1159" on="0"/>
        <pt x="386" y="971" on="0"/>
        <pt x="290" y="569" on="0"/>
        <pt x="290" y="431" on="1"/>
        <pt x="290" y="190" on="0"/>
      </contour>
    </TTGlyph>
    <TTGlyph name="Oacute" xMin="74" yMin="-20" xMax="1209" yMax="1702">
      <component glyphName="O" x="0" y="0" flags="0x204"/>
      <component glyphName="acute" x="145" y="244" flags="0x4"/>
    </TTGlyph>
    <TTGlyph name="Obreve" xMin="74" yMin="-20" xMax="1209" yMax="1705">
      <component glyphName="O" x="0" y="0" flags="0x204"/>
      <component glyphName="breve" x="47" y="244" flags="0x4"/>
    </TTGlyph>
    <TTGlyph name="Ocircumflex" xMin="74" yMin="-20" xMax="1209" yMax="1705">
      <component glyphName="O" x="0" y="0" flags="0x204"/>
      <component glyphName="circumflex" x="47" y="244" flags="0x4"/>
    </TTGlyph>
    <TTGlyph name="Ocircumflexacute" xMin="74" yMin="-20" xMax="1388" yMax="1800">
      <component glyphName="O" x="0" y="0" flags="0x204"/>
      <component glyphName="circumflexacute" x="614" y="0" flags="0x4"/>
    </TTGlyph>
    <TTGlyph name="Ocircumflexdotbelow" xMin="74" yMin="-366" xMax="1209" yMax="1707">
      <component glyphName="O" x="0" y="0" flags="0x204"/>
      <component glyphName="dotbelow.alt1" x="825" y="0" flags="0x4"/>
      <component glyphName="circumflex.uc" x="273" y="0" flags="0x4"/>
    </TTGlyph>
    <TTGlyph name="Ocircumflexgrave" xMin="74" yMin="-20" xMax="1209" yMax="1800">
      <component glyphName="O" x="0" y="0" flags="0x204"/>
      <component glyphName="circumflexgrave" x="614" y="0" flags="0x4"/>
    </TTGlyph>
    <TTGlyph name="Ocircumflexhookabove" xMin="74" yMin="-20" xMax="1289" yMax="1799">
      <component glyphName="O" x="0" y="0" flags="0x204"/>
      <component glyphName="circumflexhook" x="614" y="0" flags="0x4"/>
    </TTGlyph>
    <TTGlyph name="Ocircumflextilde" xMin="74" yMin="-20" xMax="1209" yMax="1800">
      <component glyphName="O" x="0" y="0" flags="0x204"/>
      <component glyphName="circumflextilde" x="614" y="0" flags="0x4"/>
    </TTGlyph>
    <TTGlyph name="Odieresis" xMin="74" yMin="-20" xMax="1209" yMax="1664">
      <component glyphName="O" x="0" y="0" flags="0x204"/>
      <component glyphName="dieresis" x="47" y="226" flags="0x4"/>
    </TTGlyph>
    <TTGlyph name="Odotbelow" xMin="74" yMin="-366" xMax="1209" yMax="1370">
      <component glyphName="O" x="0" y="0" flags="0x204"/>
      <component glyphName="dotbelow.alt1" x="825" y="0" flags="0x4"/>
    </TTGlyph>
    <TTGlyph name="Ograve" xMin="74" yMin="-20" xMax="1209" yMax="1702">
      <component glyphName="O" x="0" y="0" flags="0x204"/>
      <component glyphName="grave" x="-39" y="244" flags="0x4"/>
    </TTGlyph>
    <TTGlyph name="Ohm" xMin="50" yMin="0" xMax="1178" yMax="1370">
      <contour>
        <pt x="614" y="1143" on="1"/>
        <pt x="494" y="1143" on="0"/>
        <pt x="352" y="937" on="0"/>
        <pt x="352" y="754" on="1"/>
        <pt x="352" y="620" on="0"/>
        <pt x="439" y="414" on="0"/>
        <pt x="545" y="304" on="1"/>
        <pt x="545" y="0" on="1"/>
        <pt x="50" y="0" on="1"/>
        <pt x="50" y="228" on="1"/>
        <pt x="166" y="228" on="1"/>
        <pt x="230" y="228" on="0"/>
        <pt x="340" y="217" on="1"/>
        <pt x="68" y="434" on="0"/>
        <pt x="68" y="798" on="1"/>
        <pt x="68" y="967" on="0"/>
        <pt x="210" y="1228" on="0"/>
        <pt x="461" y="1370" on="0"/>
        <pt x="614" y="1370" on="1"/>
        <pt x="766" y="1370" on="0"/>
        <pt x="1018" y="1228" on="0"/>
        <pt x="1160" y="966" on="0"/>
        <pt x="1160" y="798" on="1"/>
        <pt x="1160" y="434" on="0"/>
        <pt x="888" y="217" on="1"/>
        <pt x="1002" y="228" on="0"/>
        <pt x="1066" y="228" on="1"/>
        <pt x="1178" y="228" on="1"/>
        <pt x="1178" y="0" on="1"/>
        <pt x="683" y="0" on="1"/>
        <pt x="683" y="304" on="1"/>
        <pt x="789" y="414" on="0"/>
        <pt x="876" y="618" on="0"/>
        <pt x="876" y="754" on="1"/>
        <pt x="876" y="937" on="0"/>
        <pt x="734" y="1143" on="0"/>
      </contour>
    </TTGlyph>
    <TTGlyph name="Ohookabove" xMin="74" yMin="-20" xMax="1209" yMax="1785">
      <component glyphName="O" x="0" y="0" flags="0x204"/>
      <component glyphName="hookabovecomb" x="903" y="0" flags="0x4"/>
    </TTGlyph>
    <TTGlyph name="Ohorn" xMin="74" yMin="-20" xMax="1449" yMax="1409">
      <contour>
        <pt x="490" y="-20" on="1"/>
        <pt x="285" y="-20" on="0"/>
        <pt x="74" y="211" on="0"/>
        <pt x="74" y="440" on="1"/>
        <pt x="74" y="603" on="0"/>
        <pt x="171" y="977" on="0"/>
        <pt x="346" y="1237" on="0"/>
        <pt x="593" y="1370" on="0"/>
        <pt x="750" y="1370" on="1"/>
        <pt x="1144" y="1370" on="0"/>
        <pt x="1166" y="966" on="1"/>
        <pt x="1255" y="1037" on="0"/>
        <pt x="1277" y="1149" on="1"/>
        <pt x="1185" y="1149" on="1"/>
        <pt x="1235" y="1409" on="1"/>
        <pt x="1449" y="1409" on="1"/>
        <pt x="1408" y="1199" on="1"/>
        <pt x="1384" y="1075" on="0"/>
        <pt x="1258" y="880" on="0"/>
        <pt x="1163" y="822" on="1"/>
        <pt x="1137" y="560" on="0"/>
        <pt x="960" y="175" on="0"/>
        <pt x="676" y="-20" on="0"/>
      </contour>
      <contour>
        <pt x="872" y="892" on="1"/>
        <pt x="872" y="1138" on="0"/>
        <pt x="706" y="1138" on="1"/>
        <pt x="607" y="1138" on="0"/>
        <pt x="463" y="961" on="0"/>
        <pt x="374" y="608" on="0"/>
        <pt x="374" y="466" on="1"/>
        <pt x="374" y="212" on="0"/>
        <pt x="539" y="212" on="1"/>
        <pt x="637" y="212" on="0"/>
        <pt x="782" y="394" on="0"/>
        <pt x="872" y="749" on="0"/>
      </contour>
    </TTGlyph>
    <TTGlyph name="Ohornacute" xMin="74" yMin="-20" xMax="1449" yMax="1703">
      <component glyphName="Ohorn" x="0" y="0" flags="0x204"/>
      <component glyphName="acute.uc" x="382" y="0" flags="0x4"/>
    </TTGlyph>
    <TTGlyph name="Ohorndotbelow" xMin="74" yMin="-366" xMax="1449" yMax="1409">
      <component glyphName="Ohorn" x="0" y="0" flags="0x204"/>
      <component glyphName="dotbelow.alt1" x="808" y="0" flags="0x4"/>
    </TTGlyph>
    <TTGlyph name="Ohorngrave" xMin="74" yMin="-20" xMax="1449" yMax="1702">
      <component glyphName="Ohorn" x="0" y="0" flags="0x204"/>
      <component glyphName="grave.uc" x="167" y="0" flags="0x4"/>
    </TTGlyph>
    <TTGlyph name="Ohornhookabove" xMin="74" yMin="-20" xMax="1449" yMax="1785">
      <component glyphName="Ohorn" x="0" y="0" flags="0x204"/>
      <component glyphName="hookabovecomb" x="916" y="0" flags="0x4"/>
    </TTGlyph>
    <TTGlyph name="Ohorntilde" xMin="74" yMin="-20" xMax="1449" yMax="1705">
      <component glyphName="Ohorn" x="0" y="0" flags="0x204"/>
      <component glyphName="tilde" x="-24" y="239" flags="0x4"/>
    </TTGlyph>
    <TTGlyph name="Ohungarumlaut" xMin="74" yMin="-20" xMax="1393" yMax="1705">
      <component glyphName="O" x="0" y="0" flags="0x204"/>
      <component glyphName="hungarumlaut" x="348" y="244" flags="0x4"/>
    </TTGlyph>
    <TTGlyph name="Omacron" xMin="74" yMin="-20" xMax="1209" yMax="1638">
      <component glyphName="O" x="0" y="0" flags="0x204"/>
      <component glyphName="uni02C9" x="54" y="267" flags="0x4"/>
    </TTGlyph>
    <TTGlyph name="Omega" xMin="-55" yMin="0" xMax="1224" yMax="1370">
      <contour>
        <pt x="731" y="1143" on="1"/>
        <pt x="632" y="1143" on="0"/>
        <pt x="471" y="1000" on="0"/>
        <pt x="380" y="743" on="0"/>
        <pt x="380" y="622" on="1"/>
        <pt x="380" y="531" on="0"/>
        <pt x="440" y="380" on="0"/>
        <pt x="499" y="304" on="1"/>
        <pt x="440" y="0" on="1"/>
        <pt x="-55" y="0" on="1"/>
        <pt x="-11" y="228" on="1"/>
        <pt x="105" y="228" on="1"/>
        <pt x="167" y="228" on="0"/>
        <pt x="277" y="217" on="1"/>
        <pt x="102" y="382" on="0"/>
        <pt x="102" y="638" on="1"/>
        <pt x="102" y="777" on="0"/>
        <pt x="192" y="1040" on="0"/>
        <pt x="383" y="1255" on="0"/>
        <pt x="641" y="1370" on="0"/>
        <pt x="775" y="1370" on="1"/>
        <pt x="905" y="1370" on="0"/>
        <pt x="1111" y="1264" on="0"/>
        <pt x="1224" y="1066" on="0"/>
        <pt x="1224" y="934" on="1"/>
        <pt x="1224" y="813" on="0"/>
        <pt x="1132" y="537" on="0"/>
        <pt x="952" y="305" on="0"/>
        <pt x="825" y="217" on="1"/>
        <pt x="942" y="228" on="0"/>
        <pt x="1005" y="228" on="1"/>
        <pt x="1117" y="228" on="1"/>
        <pt x="1073" y="0" on="1"/>
        <pt x="578" y="0" on="1"/>
        <pt x="637" y="304" on="1"/>
        <pt x="747" y="399" on="0"/>
        <pt x="869" y="576" on="0"/>
        <pt x="932" y="790" on="0"/>
        <pt x="932" y="890" on="1"/>
        <pt x="932" y="1012" on="0"/>
        <pt x="826" y="1143" on="0"/>
      </contour>
    </TTGlyph>
    <TTGlyph name="Omegatonos" xMin="33" yMin="0" xMax="1224" yMax="1370">
      <contour>
        <pt x="33" y="994" on="1"/>
        <pt x="40" y="1027" on="1"/>
        <pt x="156" y="1349" on="1"/>
        <pt x="413" y="1349" on="1"/>
        <pt x="406" y="1312" on="1"/>
        <pt x="138" y="994" on="1"/>
      </contour>
      <contour>
        <pt x="781" y="1143" on="1"/>
        <pt x="697" y="1143" on="0"/>
        <pt x="564" y="1013" on="0"/>
        <pt x="480" y="759" on="0"/>
        <pt x="480" y="622" on="1"/>
        <pt x="480" y="505" on="0"/>
        <pt x="509" y="365" on="0"/>
        <pt x="539" y="304" on="1"/>
        <pt x="480" y="0" on="1"/>
        <pt x="45" y="0" on="1"/>
        <pt x="89" y="228" on="1"/>
        <pt x="175" y="228" on="1"/>
        <pt x="218" y="228" on="0"/>
        <pt x="317" y="217" on="1"/>
        <pt x="250" y="297" on="0"/>
        <pt x="202" y="510" on="0"/>
        <pt x="202" y="638" on="1"/>
        <pt x="202" y="842" on="0"/>
        <pt x="365" y="1179" on="0"/>
        <pt x="655" y="1370" on="0"/>
        <pt x="825" y="1370" on="1"/>
        <pt x="1009" y="1370" on="0"/>
        <pt x="1224" y="1139" on="0"/>
        <pt x="1224" y="934" on="1"/>
        <pt x="1224" y="721" on="0"/>
        <pt x="1036" y="347" on="0"/>
        <pt x="865" y="217" on="1"/>
        <pt x="919" y="222" on="1"/>
        <pt x="988" y="228" on="0"/>
        <pt x="1025" y="228" on="1"/>
        <pt x="1117" y="228" on="1"/>
        <pt x="1073" y="0" on="1"/>
        <pt x="618" y="0" on="1"/>
        <pt x="677" y="304" on="1"/>
        <pt x="932" y="546" on="0"/>
        <pt x="932" y="890" on="1"/>
        <pt x="932" y="1012" on="0"/>
        <pt x="851" y="1143" on="0"/>
      </contour>
    </TTGlyph>
    <TTGlyph name="Omicron" xMin="74" yMin="-20" xMax="1209" yMax="1370">
      <component glyphName="O" x="0" y="0" flags="0x204"/>
    </TTGlyph>
    <TTGlyph name="Omicrontonos" xMin="33" yMin="-20" xMax="1254" yMax="1370">
      <contour>
        <pt x="590" y="-20" on="1"/>
        <pt x="398" y="-20" on="0"/>
        <pt x="195" y="206" on="0"/>
        <pt x="195" y="430" on="1"/>
        <pt x="195" y="587" on="0"/>
        <pt x="294" y="969" on="0"/>
        <pt x="467" y="1234" on="0"/>
        <pt x="709" y="1370" on="0"/>
        <pt x="860" y="1370" on="1"/>
        <pt x="1051" y="1370" on="0"/>
        <pt x="1254" y="1150" on="0"/>
        <pt x="1254" y="929" on="1"/>
        <pt x="1254" y="772" on="0"/>
        <pt x="1156" y="389" on="0"/>
        <pt x="981" y="117" on="0"/>
        <pt x="739" y="-20" on="0"/>
      </contour>
      <contour>
        <pt x="955" y="913" on="1"/>
        <pt x="955" y="1138" on="0"/>
        <pt x="815" y="1138" on="1"/>
        <pt x="726" y="1138" on="0"/>
        <pt x="586" y="950" on="0"/>
        <pt x="495" y="583" on="0"/>
        <pt x="495" y="446" on="1"/>
        <pt x="495" y="212" on="0"/>
        <pt x="635" y="212" on="1"/>
        <pt x="724" y="212" on="0"/>
        <pt x="864" y="406" on="0"/>
        <pt x="955" y="779" on="0"/>
      </contour>
      <contour>
        <pt x="33" y="994" on="1"/>
        <pt x="40" y="1027" on="1"/>
        <pt x="156" y="1349" on="1"/>
        <pt x="413" y="1349" on="1"/>
        <pt x="406" y="1312" on="1"/>
        <pt x="138" y="994" on="1"/>
      </contour>
    </TTGlyph>
    <TTGlyph name="Oslash" xMin="-53" yMin="-43" xMax="1332" yMax="1397">
      <contour>
        <pt x="506" y="-20" on="1"/>
        <pt x="291" y="-20" on="0"/>
        <pt x="180" y="99" on="1"/>
        <pt x="47" y="-43" on="1"/>
        <pt x="-53" y="32" on="1"/>
        <pt x="112" y="208" on="1"/>
        <pt x="73" y="304" on="0"/>
        <pt x="73" y="439" on="1"/>
        <pt x="73" y="598" on="0"/>
        <pt x="175" y="980" on="0"/>
        <pt x="356" y="1237" on="0"/>
        <pt x="614" y="1370" on="0"/>
        <pt x="776" y="1370" on="1"/>
        <pt x="989" y="1370" on="0"/>
        <pt x="1099" y="1255" on="1"/>
        <pt x="1233" y="1397" on="1"/>
        <pt x="1332" y="1322" on="1"/>
        <pt x="1168" y="1149" on="1"/>
        <pt x="1209" y="1049" on="0"/>
        <pt x="1209" y="915" on="1"/>
        <pt x="1209" y="753" on="0"/>
        <pt x="1105" y="372" on="0"/>
        <pt x="923" y="114" on="0"/>
        <pt x="667" y="-20" on="0"/>
      </contour>
      <contour>
        <pt x="908" y="872" on="1"/>
        <pt x="394" y="326" on="1"/>
        <pt x="435" y="212" on="0"/>
        <pt x="551" y="212" on="1"/>
        <pt x="655" y="212" on="0"/>
        <pt x="808" y="387" on="0"/>
        <pt x="905" y="730" on="0"/>
      </contour>
      <contour>
        <pt x="374" y="486" on="1"/>
        <pt x="887" y="1031" on="1"/>
        <pt x="848" y="1138" on="0"/>
        <pt x="731" y="1138" on="1"/>
        <pt x="626" y="1138" on="0"/>
        <pt x="473" y="967" on="0"/>
        <pt x="377" y="624" on="0"/>
      </contour>
    </TTGlyph>
    <TTGlyph name="Oslashacute" xMin="-53" yMin="-43" xMax="1332" yMax="1703">
      <component glyphName="Oslash" x="0" y="0" flags="0x204"/>
      <component glyphName="acute" x="148" y="245" flags="0x4"/>
    </TTGlyph>
    <TTGlyph name="Otilde" xMin="74" yMin="-20" xMax="1230" yMax="1705">
      <component glyphName="O" x="0" y="0" flags="0x204"/>
      <component glyphName="tilde" x="46" y="239" flags="0x4"/>
    </TTGlyph>
    <TTGlyph name="P" xMin="31" yMin="0" xMax="1227" yMax="1349">
      <contour>
        <pt x="616" y="476" on="1"/>
        <pt x="419" y="476" on="1"/>
        <pt x="326" y="0" on="1"/>
        <pt x="31" y="0" on="1"/>
        <pt x="293" y="1349" on="1"/>
        <pt x="773" y="1349" on="1"/>
        <pt x="996" y="1349" on="0"/>
        <pt x="1227" y="1185" on="0"/>
        <pt x="1227" y="1026" on="1"/>
        <pt x="1227" y="920" on="0"/>
        <pt x="1138" y="707" on="0"/>
        <pt x="981" y="558" on="0"/>
        <pt x="756" y="476" on="0"/>
      </contour>
      <contour>
        <pt x="924" y="973" on="1"/>
        <pt x="924" y="1052" on="0"/>
        <pt x="809" y="1120" on="0"/>
        <pt x="696" y="1120" on="1"/>
        <pt x="544" y="1120" on="1"/>
        <pt x="463" y="703" on="1"/>
        <pt x="623" y="703" on="1"/>
        <pt x="877" y="703" on="0"/>
        <pt x="918" y="918" on="1"/>
        <pt x="924" y="948" on="0"/>
      </contour>
    </TTGlyph>
    <TTGlyph name="Phi" xMin="29" yMin="-11" xMax="1266" yMax="1359">
      <contour>
        <pt x="1005" y="795" on="1"/>
        <pt x="1005" y="886" on="0"/>
        <pt x="918" y="992" on="0"/>
        <pt x="841" y="992" on="1"/>
        <pt x="822" y="992" on="1"/>
        <pt x="706" y="397" on="1"/>
        <pt x="732" y="397" on="1"/>
        <pt x="805" y="397" on="0"/>
        <pt x="931" y="509" on="0"/>
        <pt x="1005" y="702" on="0"/>
      </contour>
      <contour>
        <pt x="389" y="-11" on="1"/>
        <pt x="429" y="198" on="1"/>
        <pt x="405" y="198" on="1"/>
        <pt x="233" y="198" on="0"/>
        <pt x="29" y="406" on="0"/>
        <pt x="29" y="582" on="1"/>
        <pt x="29" y="696" on="0"/>
        <pt x="111" y="928" on="0"/>
        <pt x="267" y="1100" on="0"/>
        <pt x="484" y="1191" on="0"/>
        <pt x="611" y="1191" on="1"/>
        <pt x="623" y="1191" on="1"/>
        <pt x="655" y="1359" on="1"/>
        <pt x="893" y="1359" on="1"/>
        <pt x="861" y="1191" on="1"/>
        <pt x="873" y="1191" on="1"/>
        <pt x="1059" y="1191" on="0"/>
        <pt x="1266" y="1003" on="0"/>
        <pt x="1266" y="831" on="1"/>
        <pt x="1266" y="715" on="0"/>
        <pt x="1183" y="484" on="0"/>
        <pt x="1023" y="300" on="0"/>
        <pt x="811" y="198" on="0"/>
        <pt x="691" y="198" on="1"/>
        <pt x="667" y="198" on="1"/>
        <pt x="627" y="-11" on="1"/>
      </contour>
      <contour>
        <pt x="287" y="603" on="1"/>
        <pt x="287" y="504" on="0"/>
        <pt x="373" y="397" on="0"/>
        <pt x="442" y="397" on="1"/>
        <pt x="468" y="397" on="1"/>
        <pt x="584" y="992" on="1"/>
        <pt x="565" y="992" on="1"/>
        <pt x="486" y="992" on="0"/>
        <pt x="358" y="884" on="0"/>
        <pt x="287" y="698" on="0"/>
      </contour>
    </TTGlyph>
    <TTGlyph name="Pi" xMin="33" yMin="0" xMax="1248" yMax="1349">
      <contour>
        <pt x="691" y="0" on="1"/>
        <pt x="906" y="1105" on="1"/>
        <pt x="543" y="1105" on="1"/>
        <pt x="328" y="0" on="1"/>
        <pt x="33" y="0" on="1"/>
        <pt x="295" y="1349" on="1"/>
        <pt x="1248" y="1349" on="1"/>
        <pt x="986" y="0" on="1"/>
      </contour>
    </TTGlyph>
    <TTGlyph name="Psi" xMin="100" yMin="0" xMax="1340" yMax="1349">
      <contour>
        <pt x="706" y="397" on="1"/>
        <pt x="629" y="0" on="1"/>
        <pt x="390" y="0" on="1"/>
        <pt x="467" y="397" on="1"/>
        <pt x="457" y="397" on="1"/>
        <pt x="100" y="397" on="0"/>
        <pt x="100" y="743" on="1"/>
        <pt x="100" y="815" on="0"/>
        <pt x="119" y="916" on="1"/>
        <pt x="203" y="1349" on="1"/>
        <pt x="442" y="1349" on="1"/>
        <pt x="357" y="912" on="1"/>
        <pt x="342" y="836" on="0"/>
        <pt x="342" y="781" on="1"/>
        <pt x="342" y="690" on="0"/>
        <pt x="423" y="618" on="0"/>
        <pt x="501" y="618" on="1"/>
        <pt x="510" y="618" on="1"/>
        <pt x="652" y="1349" on="1"/>
        <pt x="891" y="1349" on="1"/>
        <pt x="749" y="618" on="1"/>
        <pt x="758" y="618" on="1"/>
        <pt x="868" y="618" on="0"/>
        <pt x="987" y="758" on="0"/>
        <pt x="1016" y="912" on="1"/>
        <pt x="1101" y="1349" on="1"/>
        <pt x="1340" y="1349" on="1"/>
        <pt x="1256" y="916" on="1"/>
        <pt x="1207" y="663" on="0"/>
        <pt x="937" y="397" on="0"/>
        <pt x="716" y="397" on="1"/>
      </contour>
    </TTGlyph>
    <TTGlyph name="Q" xMin="74" yMin="-403" xMax="1209" yMax="1370">
      <contour>
        <pt x="674" y="0" on="1"/>
        <pt x="689" y="-94" on="0"/>
        <pt x="796" y="-186" on="0"/>
        <pt x="904" y="-186" on="1"/>
        <pt x="948" y="-186" on="0"/>
        <pt x="1029" y="-173" on="1"/>
        <pt x="990" y="-375" on="1"/>
        <pt x="857" y="-403" on="0"/>
        <pt x="743" y="-403" on="1"/>
        <pt x="580" y="-403" on="0"/>
        <pt x="400" y="-219" on="0"/>
        <pt x="376" y="-7" on="1"/>
        <pt x="74" y="57" on="0"/>
        <pt x="74" y="439" on="1"/>
        <pt x="74" y="604" on="0"/>
        <pt x="177" y="982" on="0"/>
        <pt x="356" y="1237" on="0"/>
        <pt x="612" y="1370" on="0"/>
        <pt x="776" y="1370" on="1"/>
        <pt x="988" y="1370" on="0"/>
        <pt x="1209" y="1144" on="0"/>
        <pt x="1209" y="917" on="1"/>
        <pt x="1209" y="727" on="0"/>
        <pt x="1078" y="304" on="0"/>
        <pt x="841" y="44" on="0"/>
      </contour>
      <contour>
        <pt x="909" y="892" on="1"/>
        <pt x="909" y="1138" on="0"/>
        <pt x="731" y="1138" on="1"/>
        <pt x="624" y="1138" on="0"/>
        <pt x="469" y="960" on="0"/>
        <pt x="374" y="604" on="0"/>
        <pt x="374" y="466" on="1"/>
        <pt x="374" y="212" on="0"/>
        <pt x="551" y="212" on="1"/>
        <pt x="657" y="212" on="0"/>
        <pt x="813" y="395" on="0"/>
        <pt x="909" y="752" on="0"/>
      </contour>
    </TTGlyph>
    <TTGlyph name="R" xMin="32" yMin="0" xMax="1246" yMax="1349">
      <contour>
        <pt x="790" y="0" on="1"/>
        <pt x="600" y="515" on="1"/>
        <pt x="427" y="515" on="1"/>
        <pt x="327" y="0" on="1"/>
        <pt x="32" y="0" on="1"/>
        <pt x="294" y="1349" on="1"/>
        <pt x="788" y="1349" on="1"/>
        <pt x="1018" y="1349" on="0"/>
        <pt x="1246" y="1192" on="0"/>
        <pt x="1246" y="1043" on="1"/>
        <pt x="1246" y="973" on="0"/>
        <pt x="1201" y="822" on="0"/>
        <pt x="1107" y="696" on="0"/>
        <pt x="967" y="603" on="0"/>
        <pt x="886" y="581" on="1"/>
        <pt x="1122" y="0" on="1"/>
      </contour>
      <contour>
        <pt x="942" y="983" on="1"/>
        <pt x="942" y="1059" on="0"/>
        <pt x="823" y="1120" on="0"/>
        <pt x="713" y="1120" on="1"/>
        <pt x="545" y="1120" on="1"/>
        <pt x="472" y="744" on="1"/>
        <pt x="648" y="744" on="1"/>
        <pt x="900" y="744" on="0"/>
        <pt x="937" y="937" on="1"/>
      </contour>
    </TTGlyph>
    <TTGlyph name="Racute" xMin="32" yMin="0" xMax="1246" yMax="1703">
      <component glyphName="R" x="0" y="0" flags="0x204"/>
      <component glyphName="acute" x="120" y="245" flags="0x4"/>
    </TTGlyph>
    <TTGlyph name="Rcaron" xMin="32" yMin="0" xMax="1246" yMax="1705">
      <component glyphName="R" x="0" y="0" flags="0x204"/>
      <component glyphName="caron" x="27" y="244" flags="0x4"/>
    </TTGlyph>
    <TTGlyph name="Rcommaaccent" xMin="32" yMin="-453" xMax="1246" yMax="1349">
      <component glyphName="R" x="0" y="0" flags="0x204"/>
      <component glyphName="undercommaaccent" x="-3" y="0" flags="0x4"/>
    </TTGlyph>
    <TTGlyph name="Rho" xMin="31" yMin="0" xMax="1227" yMax="1349">
      <component glyphName="P" x="0" y="0" flags="0x204"/>
    </TTGlyph>
    <TTGlyph name="S" xMin="4" yMin="-20" xMax="1219" yMax="1370">
      <contour>
        <pt x="502" y="-20" on="1"/>
        <pt x="267" y="-20" on="0"/>
        <pt x="10" y="178" on="0"/>
        <pt x="4" y="367" on="1"/>
        <pt x="297" y="404" on="1"/>
        <pt x="302" y="310" on="0"/>
        <pt x="426" y="201" on="0"/>
        <pt x="553" y="201" on="1"/>
        <pt x="652" y="201" on="0"/>
        <pt x="781" y="248" on="0"/>
        <pt x="849" y="345" on="0"/>
        <pt x="849" y="403" on="1"/>
        <pt x="849" y="509" on="0"/>
        <pt x="655" y="560" on="1"/>
        <pt x="432" y="617" on="0"/>
        <pt x="272" y="704" on="0"/>
        <pt x="184" y="828" on="0"/>
        <pt x="184" y="914" on="1"/>
        <pt x="184" y="1003" on="0"/>
        <pt x="260" y="1170" on="0"/>
        <pt x="420" y="1300" on="0"/>
        <pt x="645" y="1370" on="0"/>
        <pt x="776" y="1370" on="1"/>
        <pt x="1000" y="1370" on="0"/>
        <pt x="1218" y="1193" on="0"/>
        <pt x="1219" y="1007" on="1"/>
        <pt x="927" y="978" on="1"/>
        <pt x="919" y="1161" on="0"/>
        <pt x="730" y="1161" on="1"/>
        <pt x="649" y="1161" on="0"/>
        <pt x="537" y="1116" on="0"/>
        <pt x="479" y="1028" on="0"/>
        <pt x="479" y="979" on="1"/>
        <pt x="479" y="939" on="0"/>
        <pt x="526" y="885" on="0"/>
        <pt x="607" y="846" on="0"/>
        <pt x="734" y="812" on="1"/>
        <pt x="903" y="767" on="0"/>
        <pt x="1066" y="675" on="0"/>
        <pt x="1144" y="548" on="0"/>
        <pt x="1144" y="469" on="1"/>
        <pt x="1144" y="337" on="0"/>
        <pt x="988" y="105" on="0"/>
        <pt x="697" y="-20" on="0"/>
      </contour>
    </TTGlyph>
    <TTGlyph name="Sacute" xMin="4" yMin="-20" xMax="1223" yMax="1703">
      <component glyphName="S" x="0" y="0" flags="0x204"/>
      <component glyphName="acute" x="168" y="245" flags="0x4"/>
    </TTGlyph>
    <TTGlyph name="Scaron" xMin="4" yMin="-20" xMax="1219" yMax="1705">
      <component glyphName="S" x="0" y="0" flags="0x204"/>
      <component glyphName="caron" x="47" y="244" flags="0x4"/>
    </TTGlyph>
    <TTGlyph name="Scedilla" xMin="4" yMin="-445" xMax="1219" yMax="1370">
      <component glyphName="S" x="0" y="0" flags="0x204"/>
      <component glyphName="cedilla" x="332" y="0" flags="0x4"/>
    </TTGlyph>
    <TTGlyph name="Scircumflex" xMin="4" yMin="-20" xMax="1219" yMax="1705">
      <component glyphName="S" x="0" y="0" flags="0x204"/>
      <component glyphName="circumflex" x="51" y="244" flags="0x4"/>
    </TTGlyph>
    <TTGlyph name="Scommaaccent" xMin="4" yMin="-455" xMax="1219" yMax="1370">
      <component glyphName="S" x="0" y="0" flags="0x204"/>
      <component glyphName="uni0326" x="614" y="0" flags="0x4"/>
    </TTGlyph>
    <TTGlyph name="Sigma" xMin="-5" yMin="0" xMax="1253" yMax="1349">
      <contour>
        <pt x="-5" y="0" on="1"/>
        <pt x="40" y="234" on="1"/>
        <pt x="591" y="711" on="1"/>
        <pt x="229" y="1116" on="1"/>
        <pt x="274" y="1349" on="1"/>
        <pt x="1253" y="1349" on="1"/>
        <pt x="1206" y="1105" on="1"/>
        <pt x="564" y="1105" on="1"/>
        <pt x="861" y="778" on="1"/>
        <pt x="835" y="644" on="1"/>
        <pt x="363" y="244" on="1"/>
        <pt x="1099" y="244" on="1"/>
        <pt x="1052" y="0" on="1"/>
      </contour>
    </TTGlyph>
    <TTGlyph name="T" xMin="174" yMin="0" xMax="1325" yMax="1349">
      <contour>
        <pt x="875" y="1121" on="1"/>
        <pt x="657" y="0" on="1"/>
        <pt x="362" y="0" on="1"/>
        <pt x="580" y="1121" on="1"/>
        <pt x="174" y="1121" on="1"/>
        <pt x="218" y="1349" on="1"/>
        <pt x="1325" y="1349" on="1"/>
        <pt x="1281" y="1121" on="1"/>
      </contour>
    </TTGlyph>
    <TTGlyph name="Tau" xMin="174" yMin="0" xMax="1325" yMax="1349">
      <component glyphName="T" x="0" y="0" flags="0x204"/>
    </TTGlyph>
    <TTGlyph name="Tbar" xMin="175" yMin="0" xMax="1325" yMax="1349">
      <contour>
        <pt x="875" y="1121" on="1"/>
        <pt x="808" y="776" on="1"/>
        <pt x="1036" y="776" on="1"/>
        <pt x="999" y="586" on="1"/>
        <pt x="771" y="586" on="1"/>
        <pt x="657" y="0" on="1"/>
        <pt x="362" y="0" on="1"/>
        <pt x="476" y="586" on="1"/>
        <pt x="249" y="586" on="1"/>
        <pt x="286" y="776" on="1"/>
        <pt x="513" y="776" on="1"/>
        <pt x="580" y="1121" on="1"/>
        <pt x="175" y="1121" on="1"/>
        <pt x="219" y="1349" on="1"/>
        <pt x="1325" y="1349" on="1"/>
        <pt x="1281" y="1121" on="1"/>
      </contour>
    </TTGlyph>
    <TTGlyph name="Tcaron" xMin="174" yMin="0" xMax="1325" yMax="1705">
      <component glyphName="T" x="0" y="0" flags="0x204"/>
      <component glyphName="caron" x="47" y="244" flags="0x4"/>
    </TTGlyph>
    <TTGlyph name="Tcommaaccent" xMin="174" yMin="-453" xMax="1325" yMax="1349">
      <component glyphName="T" x="0" y="0" flags="0x204"/>
      <component glyphName="undercommaaccent" x="-40" y="0" flags="0x4"/>
    </TTGlyph>
    <TTGlyph name="Theta" xMin="65" yMin="-20" xMax="1218" yMax="1370">
      <contour>
        <pt x="840" y="787" on="1"/>
        <pt x="798" y="573" on="1"/>
        <pt x="443" y="573" on="1"/>
        <pt x="485" y="787" on="1"/>
      </contour>
      <contour>
        <pt x="506" y="-20" on="1"/>
        <pt x="291" y="-20" on="0"/>
        <pt x="65" y="215" on="0"/>
        <pt x="65" y="447" on="1"/>
        <pt x="65" y="609" on="0"/>
        <pt x="166" y="977" on="0"/>
        <pt x="350" y="1236" on="0"/>
        <pt x="612" y="1370" on="0"/>
        <pt x="776" y="1370" on="1"/>
        <pt x="990" y="1370" on="0"/>
        <pt x="1218" y="1140" on="0"/>
        <pt x="1218" y="910" on="1"/>
        <pt x="1218" y="747" on="0"/>
        <pt x="1116" y="378" on="0"/>
        <pt x="928" y="113" on="0"/>
        <pt x="667" y="-20" on="0"/>
      </contour>
      <contour>
        <pt x="926" y="870" on="1"/>
        <pt x="926" y="1006" on="0"/>
        <pt x="824" y="1138" on="0"/>
        <pt x="731" y="1138" on="1"/>
        <pt x="624" y="1138" on="0"/>
        <pt x="456" y="962" on="0"/>
        <pt x="358" y="636" on="0"/>
        <pt x="358" y="488" on="1"/>
        <pt x="358" y="351" on="0"/>
        <pt x="458" y="212" on="0"/>
        <pt x="551" y="212" on="1"/>
        <pt x="657" y="212" on="0"/>
        <pt x="828" y="395" on="0"/>
        <pt x="926" y="730" on="0"/>
      </contour>
    </TTGlyph>
    <TTGlyph name="Thorn" xMin="32" yMin="0" xMax="1200" yMax="1349">
      <contour>
        <pt x="592" y="256" on="1"/>
        <pt x="377" y="256" on="1"/>
        <pt x="327" y="0" on="1"/>
        <pt x="32" y="0" on="1"/>
        <pt x="294" y="1349" on="1"/>
        <pt x="589" y="1349" on="1"/>
        <pt x="544" y="1114" on="1"/>
        <pt x="747" y="1114" on="1"/>
        <pt x="966" y="1114" on="0"/>
        <pt x="1200" y="942" on="0"/>
        <pt x="1200" y="784" on="1"/>
        <pt x="1200" y="645" on="0"/>
        <pt x="1046" y="395" on="0"/>
        <pt x="766" y="256" on="0"/>
      </contour>
      <contour>
        <pt x="898" y="735" on="1"/>
        <pt x="898" y="811" on="0"/>
        <pt x="787" y="905" on="0"/>
        <pt x="673" y="905" on="1"/>
        <pt x="503" y="905" on="1"/>
        <pt x="417" y="465" on="1"/>
        <pt x="595" y="465" on="1"/>
        <pt x="684" y="465" on="0"/>
        <pt x="824" y="538" on="0"/>
        <pt x="898" y="669" on="0"/>
      </contour>
    </TTGlyph>
    <TTGlyph name="U" xMin="105" yMin="-20" xMax="1257" yMax="1349">
      <contour>
        <pt x="490" y="-20" on="1"/>
        <pt x="291" y="-20" on="0"/>
        <pt x="105" y="151" on="0"/>
        <pt x="105" y="330" on="1"/>
        <pt x="105" y="418" on="0"/>
        <pt x="127" y="528" on="1"/>
        <pt x="286" y="1349" on="1"/>
        <pt x="581" y="1349" on="1"/>
        <pt x="422" y="531" on="1"/>
        <pt x="403" y="436" on="0"/>
        <pt x="403" y="367" on="1"/>
        <pt x="403" y="282" on="0"/>
        <pt x="471" y="211" on="0"/>
        <pt x="543" y="211" on="1"/>
        <pt x="646" y="211" on="0"/>
        <pt x="770" y="362" on="0"/>
        <pt x="805" y="541" on="1"/>
        <pt x="962" y="1349" on="1"/>
        <pt x="1257" y="1349" on="1"/>
        <pt x="1101" y="543" on="1"/>
        <pt x="1044" y="257" on="0"/>
        <pt x="745" y="-20" on="0"/>
      </contour>
    </TTGlyph>
    <TTGlyph name="Uacute" xMin="105" yMin="-20" xMax="1257" yMax="1702">
      <component glyphName="U" x="0" y="0" flags="0x204"/>
      <component glyphName="acute" x="133" y="244" flags="0x4"/>
    </TTGlyph>
    <TTGlyph name="Ubreve" xMin="105" yMin="-20" xMax="1257" yMax="1705">
      <component glyphName="U" x="0" y="0" flags="0x204"/>
      <component glyphName="breve" x="47" y="244" flags="0x4"/>
    </TTGlyph>
    <TTGlyph name="Ucircumflex" xMin="105" yMin="-20" xMax="1257" yMax="1705">
      <component glyphName="U" x="0" y="0" flags="0x204"/>
      <component glyphName="circumflex" x="47" y="244" flags="0x4"/>
    </TTGlyph>
    <TTGlyph name="Udieresis" xMin="105" yMin="-20" xMax="1257" yMax="1664">
      <component glyphName="U" x="0" y="0" flags="0x204"/>
      <component glyphName="dieresis" x="44" y="226" flags="0x4"/>
    </TTGlyph>
    <TTGlyph name="Udotbelow" xMin="105" yMin="-366" xMax="1257" yMax="1349">
      <component glyphName="U" x="0" y="0" flags="0x204"/>
      <component glyphName="dotbelow.alt1" x="825" y="0" flags="0x4"/>
    </TTGlyph>
    <TTGlyph name="Ugrave" xMin="105" yMin="-20" xMax="1257" yMax="1702">
      <component glyphName="U" x="0" y="0" flags="0x204"/>
      <component glyphName="grave" x="-50" y="244" flags="0x4"/>
    </TTGlyph>
    <TTGlyph name="Uhookabove" xMin="105" yMin="-20" xMax="1257" yMax="1785">
      <component glyphName="U" x="0" y="0" flags="0x204"/>
      <component glyphName="hookabovecomb" x="883" y="0" flags="0x4"/>
    </TTGlyph>
    <TTGlyph name="Uhorn" xMin="103" yMin="-20" xMax="1486" yMax="1409">
      <contour>
        <pt x="460" y="-20" on="1"/>
        <pt x="271" y="-20" on="0"/>
        <pt x="103" y="138" on="0"/>
        <pt x="103" y="309" on="1"/>
        <pt x="103" y="402" on="0"/>
        <pt x="127" y="528" on="1"/>
        <pt x="287" y="1349" on="1"/>
        <pt x="581" y="1349" on="1"/>
        <pt x="422" y="531" on="1"/>
        <pt x="400" y="415" on="0"/>
        <pt x="400" y="349" on="1"/>
        <pt x="400" y="275" on="0"/>
        <pt x="454" y="211" on="0"/>
        <pt x="513" y="211" on="1"/>
        <pt x="602" y="211" on="0"/>
        <pt x="711" y="367" on="0"/>
        <pt x="745" y="541" on="1"/>
        <pt x="902" y="1349" on="1"/>
        <pt x="1197" y="1349" on="1"/>
        <pt x="1110" y="900" on="1"/>
        <pt x="1195" y="919" on="0"/>
        <pt x="1304" y="1050" on="0"/>
        <pt x="1323" y="1149" on="1"/>
        <pt x="1221" y="1149" on="1"/>
        <pt x="1272" y="1409" on="1"/>
        <pt x="1486" y="1409" on="1"/>
        <pt x="1445" y="1199" on="1"/>
        <pt x="1409" y="1016" on="0"/>
        <pt x="1234" y="795" on="0"/>
        <pt x="1084" y="764" on="1"/>
        <pt x="1041" y="543" on="1"/>
        <pt x="985" y="253" on="0"/>
        <pt x="709" y="-20" on="0"/>
      </contour>
    </TTGlyph>
    <TTGlyph name="Uhornacute" xMin="103" yMin="-20" xMax="1486" yMax="1703">
      <component glyphName="Uhorn" x="0" y="0" flags="0x204"/>
      <component glyphName="acute.uc" x="398" y="0" flags="0x4"/>
    </TTGlyph>
    <TTGlyph name="Uhorndotbelow" xMin="103" yMin="-366" xMax="1486" yMax="1409">
      <component glyphName="Uhorn" x="0" y="0" flags="0x204"/>
      <component glyphName="dotbelow.alt1" x="794" y="0" flags="0x4"/>
    </TTGlyph>
    <TTGlyph name="Uhorngrave" xMin="103" yMin="-20" xMax="1486" yMax="1702">
      <component glyphName="Uhorn" x="0" y="0" flags="0x204"/>
      <component glyphName="grave.uc" x="121" y="0" flags="0x4"/>
    </TTGlyph>
    <TTGlyph name="Uhornhookabove" xMin="103" yMin="-20" xMax="1486" yMax="1785">
      <component glyphName="Uhorn" x="0" y="0" flags="0x204"/>
      <component glyphName="hookabovecomb" x="871" y="0" flags="0x4"/>
    </TTGlyph>
    <TTGlyph name="Uhorntilde" xMin="103" yMin="-20" xMax="1486" yMax="1705">
      <component glyphName="Uhorn" x="0" y="0" flags="0x204"/>
      <component glyphName="tilde" x="-25" y="239" flags="0x4"/>
    </TTGlyph>
    <TTGlyph name="Uhungarumlaut" xMin="105" yMin="-20" xMax="1356" yMax="1705">
      <component glyphName="U" x="0" y="0" flags="0x204"/>
      <component glyphName="hungarumlaut" x="311" y="244" flags="0x4"/>
    </TTGlyph>
    <TTGlyph name="Umacron" xMin="105" yMin="-20" xMax="1257" yMax="1638">
      <component glyphName="U" x="0" y="0" flags="0x204"/>
      <component glyphName="uni02C9" x="54" y="267" flags="0x4"/>
    </TTGlyph>
    <TTGlyph name="Uogonek" xMin="105" yMin="-425" xMax="1257" yMax="1349">
      <component glyphName="U" x="0" y="0" flags="0x204"/>
      <component glyphName="ogonek" x="59" y="0" flags="0x4"/>
    </TTGlyph>
    <TTGlyph name="Upsilon" xMin="160" yMin="0" xMax="1382" yMax="1349">
      <component glyphName="Y" x="0" y="0" flags="0x204"/>
    </TTGlyph>
    <TTGlyph name="Upsilondieresis" xMin="160" yMin="0" xMax="1382" yMax="1664">
      <component glyphName="Y" x="0" y="0" flags="0x204"/>
      <component glyphName="dieresis" x="44" y="226" flags="0x4"/>
    </TTGlyph>
    <TTGlyph name="Upsilontonos" xMin="33" yMin="0" xMax="1386" yMax="1349">
      <contour>
        <pt x="791" y="0" on="1"/>
        <pt x="505" y="0" on="1"/>
        <pt x="591" y="446" on="1"/>
        <pt x="434" y="1349" on="1"/>
        <pt x="721" y="1349" on="1"/>
        <pt x="791" y="747" on="1"/>
        <pt x="1099" y="1349" on="1"/>
        <pt x="1386" y="1349" on="1"/>
        <pt x="877" y="446" on="1"/>
      </contour>
      <contour>
        <pt x="33" y="994" on="1"/>
        <pt x="40" y="1027" on="1"/>
        <pt x="156" y="1349" on="1"/>
        <pt x="413" y="1349" on="1"/>
        <pt x="406" y="1312" on="1"/>
        <pt x="138" y="994" on="1"/>
      </contour>
    </TTGlyph>
    <TTGlyph name="Uring" xMin="105" yMin="-20" xMax="1257" yMax="1705">
      <component glyphName="U" x="0" y="0" flags="0x204"/>
      <component glyphName="ring" x="31" y="158" flags="0x4"/>
    </TTGlyph>
    <TTGlyph name="Utilde" xMin="105" yMin="-20" xMax="1257" yMax="1705">
      <component glyphName="U" x="0" y="0" flags="0x204"/>
      <component glyphName="tilde" x="46" y="239" flags="0x4"/>
    </TTGlyph>
    <TTGlyph name="V" xMin="160" yMin="0" xMax="1384" yMax="1349">
      <contour>
        <pt x="661" y="0" on="1"/>
        <pt x="362" y="0" on="1"/>
        <pt x="160" y="1349" on="1"/>
        <pt x="468" y="1349" on="1"/>
        <pt x="551" y="574" on="1"/>
        <pt x="567" y="427" on="0"/>
        <pt x="573" y="308" on="1"/>
        <pt x="646" y="473" on="0"/>
        <pt x="697" y="574" on="1"/>
        <pt x="1079" y="1349" on="1"/>
        <pt x="1384" y="1349" on="1"/>
      </contour>
    </TTGlyph>
    <TTGlyph name="W" xMin="106" yMin="0" xMax="1385" yMax="1349">
      <contour>
        <pt x="913" y="0" on="1"/>
        <pt x="665" y="0" on="1"/>
        <pt x="650" y="312" on="1"/>
        <pt x="645" y="371" on="0"/>
        <pt x="635" y="636" on="1"/>
        <pt x="632" y="630" on="0"/>
        <pt x="354" y="0" on="1"/>
        <pt x="106" y="0" on="1"/>
        <pt x="157" y="1349" on="1"/>
        <pt x="416" y="1349" on="1"/>
        <pt x="370" y="654" on="1"/>
        <pt x="366" y="570" on="0"/>
        <pt x="334" y="388" on="1"/>
        <pt x="366" y="476" on="0"/>
        <pt x="437" y="632" on="1"/>
        <pt x="602" y="971" on="1"/>
        <pt x="797" y="971" on="1"/>
        <pt x="817" y="766" on="0"/>
        <pt x="840" y="536" on="0"/>
        <pt x="837" y="434" on="1"/>
        <pt x="837" y="388" on="1"/>
        <pt x="845" y="415" on="1"/>
        <pt x="884" y="580" on="0"/>
        <pt x="907" y="654" on="1"/>
        <pt x="1126" y="1349" on="1"/>
        <pt x="1385" y="1349" on="1"/>
      </contour>
    </TTGlyph>
    <TTGlyph name="Wacute" xMin="106" yMin="0" xMax="1385" yMax="1705">
      <component glyphName="W" x="0" y="0" flags="0x204"/>
      <component glyphName="acute" x="151" y="247" flags="0x4"/>
    </TTGlyph>
    <TTGlyph name="Wcircumflex" xMin="106" yMin="0" xMax="1385" yMax="1705">
      <component glyphName="W" x="0" y="0" flags="0x204"/>
      <component glyphName="circumflex" x="47" y="244" flags="0x4"/>
    </TTGlyph>
    <TTGlyph name="Wdieresis" xMin="106" yMin="0" xMax="1385" yMax="1665">
      <component glyphName="W" x="0" y="0" flags="0x204"/>
      <component glyphName="dieresis" x="45" y="227" flags="0x4"/>
    </TTGlyph>
    <TTGlyph name="Wgrave" xMin="106" yMin="0" xMax="1385" yMax="1703">
      <component glyphName="W" x="0" y="0" flags="0x204"/>
      <component glyphName="grave" x="-31" y="245" flags="0x4"/>
    </TTGlyph>
    <TTGlyph name="X" xMin="-105" yMin="0" xMax="1345" yMax="1349">
      <contour>
        <pt x="814" y="0" on="1"/>
        <pt x="607" y="493" on="1"/>
        <pt x="207" y="0" on="1"/>
        <pt x="-105" y="0" on="1"/>
        <pt x="492" y="711" on="1"/>
        <pt x="198" y="1349" on="1"/>
        <pt x="510" y="1349" on="1"/>
        <pt x="690" y="919" on="1"/>
        <pt x="1035" y="1349" on="1"/>
        <pt x="1345" y="1349" on="1"/>
        <pt x="793" y="711" on="1"/>
        <pt x="1124" y="0" on="1"/>
      </contour>
    </TTGlyph>
    <TTGlyph name="Xi" xMin="10" yMin="0" xMax="1251" yMax="1349">
      <contour>
        <pt x="245" y="1105" on="1"/>
        <pt x="292" y="1349" on="1"/>
        <pt x="1251" y="1349" on="1"/>
        <pt x="1204" y="1105" on="1"/>
      </contour>
      <contour>
        <pt x="10" y="0" on="1"/>
        <pt x="57" y="244" on="1"/>
        <pt x="1056" y="244" on="1"/>
        <pt x="1009" y="0" on="1"/>
      </contour>
      <contour>
        <pt x="1021" y="808" on="1"/>
        <pt x="977" y="580" on="1"/>
        <pt x="268" y="580" on="1"/>
        <pt x="312" y="808" on="1"/>
      </contour>
    </TTGlyph>
    <TTGlyph name="Y" xMin="160" yMin="0" xMax="1382" yMax="1349">
      <contour>
        <pt x="656" y="0" on="1"/>
        <pt x="362" y="0" on="1"/>
        <pt x="470" y="556" on="1"/>
        <pt x="160" y="1349" on="1"/>
        <pt x="469" y="1349" on="1"/>
        <pt x="659" y="783" on="1"/>
        <pt x="1073" y="1349" on="1"/>
        <pt x="1382" y="1349" on="1"/>
        <pt x="764" y="556" on="1"/>
      </contour>
    </TTGlyph>
    <TTGlyph name="Yacute" xMin="160" yMin="0" xMax="1382" yMax="1702">
      <component glyphName="Y" x="0" y="0" flags="0x204"/>
      <component glyphName="acute" x="148" y="244" flags="0x4"/>
    </TTGlyph>
    <TTGlyph name="Ycircumflex" xMin="160" yMin="0" xMax="1382" yMax="1705">
      <component glyphName="Y" x="0" y="0" flags="0x204"/>
      <component glyphName="circumflex" x="47" y="244" flags="0x4"/>
    </TTGlyph>
    <TTGlyph name="Ydieresis" xMin="160" yMin="0" xMax="1382" yMax="1664">
      <component glyphName="Y" x="0" y="0" flags="0x204"/>
      <component glyphName="dieresis" x="44" y="226" flags="0x4"/>
    </TTGlyph>
    <TTGlyph name="Ydotbelow" xMin="160" yMin="-366" xMax="1382" yMax="1349">
      <component glyphName="Y" x="0" y="0" flags="0x204"/>
      <component glyphName="dotbelow.alt1" x="825" y="0" flags="0x4"/>
    </TTGlyph>
    <TTGlyph name="Ygrave" xMin="160" yMin="0" xMax="1382" yMax="1705">
      <component glyphName="Y" x="0" y="0" flags="0x204"/>
      <component glyphName="grave" x="-32" y="247" flags="0x4"/>
    </TTGlyph>
    <TTGlyph name="Yhookabove" xMin="160" yMin="0" xMax="1382" yMax="1785">
      <component glyphName="Y" x="0" y="0" flags="0x204"/>
      <component glyphName="hookabovecomb" x="884" y="0" flags="0x4"/>
    </TTGlyph>
    <TTGlyph name="Ytilde" xMin="160" yMin="0" xMax="1382" yMax="1705">
      <component glyphName="Y" x="0" y="0" flags="0x204"/>
      <component glyphName="tilde" x="0" y="239" flags="0x4"/>
    </TTGlyph>
    <TTGlyph name="Z" xMin="-18" yMin="0" xMax="1254" yMax="1349">
      <contour>
        <pt x="1033" y="0" on="1"/>
        <pt x="-18" y="0" on="1"/>
        <pt x="23" y="209" on="1"/>
        <pt x="870" y="1118" on="1"/>
        <pt x="275" y="1118" on="1"/>
        <pt x="320" y="1349" on="1"/>
        <pt x="1254" y="1349" on="1"/>
        <pt x="1214" y="1144" on="1"/>
        <pt x="366" y="231" on="1"/>
        <pt x="1078" y="231" on="1"/>
      </contour>
    </TTGlyph>
    <TTGlyph name="Zacute" xMin="-18" yMin="0" xMax="1254" yMax="1703">
      <component glyphName="Z" x="0" y="0" flags="0x204"/>
      <component glyphName="acute" x="150" y="245" flags="0x4"/>
    </TTGlyph>
    <TTGlyph name="Zcaron" xMin="-18" yMin="0" xMax="1254" yMax="1705">
      <component glyphName="Z" x="0" y="0" flags="0x204"/>
      <component glyphName="caron" x="57" y="244" flags="0x4"/>
    </TTGlyph>
    <TTGlyph name="Zdotaccent" xMin="-18" yMin="0" xMax="1254" yMax="1628">
      <component glyphName="Z" x="0" y="0" flags="0x204"/>
      <component glyphName="dotaccent" x="43" y="154" flags="0x4"/>
    </TTGlyph>
    <TTGlyph name="Zeta" xMin="-18" yMin="0" xMax="1254" yMax="1349">
      <component glyphName="Z" x="0" y="0" flags="0x204"/>
    </TTGlyph>
    <TTGlyph name="a" xMin="51" yMin="-20" xMax="1105" yMax="1102">
      <contour>
        <pt x="330" y="-20" on="1"/>
        <pt x="196" y="-20" on="0"/>
        <pt x="51" y="104" on="0"/>
        <pt x="51" y="222" on="1"/>
        <pt x="51" y="261" on="0"/>
        <pt x="60" y="306" on="1"/>
        <pt x="128" y="647" on="0"/>
        <pt x="545" y="652" on="1"/>
        <pt x="769" y="656" on="1"/>
        <pt x="779" y="711" on="1"/>
        <pt x="789" y="759" on="0"/>
        <pt x="789" y="795" on="1"/>
        <pt x="789" y="920" on="0"/>
        <pt x="672" y="920" on="1"/>
        <pt x="601" y="920" on="0"/>
        <pt x="517" y="848" on="0"/>
        <pt x="492" y="767" on="1"/>
        <pt x="202" y="781" on="1"/>
        <pt x="315" y="1102" on="0"/>
        <pt x="719" y="1102" on="1"/>
        <pt x="892" y="1102" on="0"/>
        <pt x="1071" y="957" on="0"/>
        <pt x="1071" y="816" on="1"/>
        <pt x="1071" y="770" on="0"/>
        <pt x="1060" y="712" on="1"/>
        <pt x="984" y="320" on="1"/>
        <pt x="973" y="265" on="0"/>
        <pt x="973" y="235" on="1"/>
        <pt x="973" y="198" on="0"/>
        <pt x="1004" y="160" on="0"/>
        <pt x="1042" y="160" on="1"/>
        <pt x="1074" y="160" on="0"/>
        <pt x="1105" y="166" on="1"/>
        <pt x="1076" y="14" on="1"/>
        <pt x="1050" y="8" on="0"/>
        <pt x="1008" y="-2" on="0"/>
        <pt x="967" y="-8" on="0"/>
        <pt x="921" y="-12" on="0"/>
        <pt x="891" y="-12" on="1"/>
        <pt x="796" y="-12" on="0"/>
        <pt x="712" y="71" on="0"/>
        <pt x="712" y="152" on="1"/>
        <pt x="714" y="193" on="1"/>
        <pt x="708" y="193" on="1"/>
        <pt x="622" y="80" on="0"/>
        <pt x="440" y="-20" on="0"/>
      </contour>
      <contour>
        <pt x="738" y="501" on="1"/>
        <pt x="604" y="499" on="1"/>
        <pt x="499" y="497" on="0"/>
        <pt x="399" y="445" on="0"/>
        <pt x="352" y="332" on="0"/>
        <pt x="352" y="274" on="1"/>
        <pt x="352" y="176" on="0"/>
        <pt x="448" y="176" on="1"/>
        <pt x="546" y="176" on="0"/>
        <pt x="706" y="333" on="0"/>
        <pt x="728" y="446" on="1"/>
      </contour>
    </TTGlyph>
    <TTGlyph name="aacute" xMin="51" yMin="-20" xMax="1132" yMax="1458">
      <component glyphName="a" x="0" y="0" flags="0x204"/>
      <component glyphName="acute" x="77" y="0" flags="0x4"/>
    </TTGlyph>
    <TTGlyph name="abreve" xMin="51" yMin="-20" xMax="1128" yMax="1461">
      <component glyphName="a" x="0" y="0" flags="0x204"/>
      <component glyphName="breve" x="-19" y="0" flags="0x4"/>
    </TTGlyph>
    <TTGlyph name="abreveacute" xMin="51" yMin="-20" xMax="1236" yMax="1786">
      <component glyphName="a" x="0" y="0" flags="0x204"/>
      <component glyphName="breveacute.lc" x="613" y="0" flags="0x4"/>
    </TTGlyph>
    <TTGlyph name="abrevedotbelow" xMin="51" yMin="-366" xMax="1147" yMax="1461">
      <component glyphName="a" x="0" y="0" flags="0x204"/>
      <component glyphName="breve" x="0" y="0" flags="0x4"/>
      <component glyphName="dotbelow.alt1" x="825" y="0" flags="0x4"/>
    </TTGlyph>
    <TTGlyph name="abrevegrave" xMin="51" yMin="-20" xMax="1143" yMax="1786">
      <component glyphName="a" x="0" y="0" flags="0x204"/>
      <component glyphName="brevegrave.lc" x="613" y="0" flags="0x4"/>
    </TTGlyph>
    <TTGlyph name="abrevehookabove" xMin="51" yMin="-20" xMax="1147" yMax="1794">
      <component glyphName="a" x="0" y="0" flags="0x204"/>
      <component glyphName="brevehook.lc" x="614" y="0" flags="0x4"/>
    </TTGlyph>
    <TTGlyph name="abrevetilde" xMin="51" yMin="-20" xMax="1212" yMax="1785">
      <component glyphName="a" x="0" y="0" flags="0x204"/>
      <component glyphName="brevetilde.lc" x="611" y="0" flags="0x4"/>
    </TTGlyph>
    <TTGlyph name="acircumflex" xMin="51" yMin="-20" xMax="1105" yMax="1461">
      <component glyphName="a" x="0" y="0" flags="0x204"/>
      <component glyphName="circumflex" x="-18" y="0" flags="0x4"/>
    </TTGlyph>
    <TTGlyph name="acircumflexacute" xMin="51" yMin="-20" xMax="1384" yMax="1574">
      <component glyphName="a" x="0" y="0" flags="0x204"/>
      <component glyphName="circumflexacute.lc" x="614" y="0" flags="0x4"/>
    </TTGlyph>
    <TTGlyph name="acircumflexdotbelow" xMin="51" yMin="-366" xMax="1113" yMax="1461">
      <component glyphName="a" x="0" y="0" flags="0x204"/>
      <component glyphName="circumflex" x="0" y="0" flags="0x4"/>
      <component glyphName="dotbelow.alt1" x="825" y="0" flags="0x4"/>
    </TTGlyph>
    <TTGlyph name="acircumflexgrave" xMin="51" yMin="-20" xMax="1119" yMax="1574">
      <component glyphName="a" x="0" y="0" flags="0x204"/>
      <component glyphName="circumflexgrave.lc" x="614" y="0" flags="0x4"/>
    </TTGlyph>
    <TTGlyph name="acircumflexhookabove" xMin="51" yMin="-20" xMax="1321" yMax="1653">
      <component glyphName="a" x="0" y="0" flags="0x204"/>
      <component glyphName="circumflexhook.lc" x="614" y="0" flags="0x4"/>
    </TTGlyph>
    <TTGlyph name="acircumflextilde" xMin="51" yMin="-20" xMax="1209" yMax="1787">
      <component glyphName="a" x="0" y="0" flags="0x204"/>
      <component glyphName="circumflextilde.lc" x="614" y="0" flags="0x4"/>
    </TTGlyph>
    <TTGlyph name="acute" xMin="492" yMin="1184" xMax="1055" yMax="1458">
      <contour>
        <pt x="492" y="1184" on="1"/>
        <pt x="498" y="1215" on="1"/>
        <pt x="797" y="1458" on="1"/>
        <pt x="1055" y="1458" on="1"/>
        <pt x="1047" y="1415" on="1"/>
        <pt x="662" y="1184" on="1"/>
      </contour>
    </TTGlyph>
    <TTGlyph name="acute.uc" xMin="260" yMin="1429" xMax="823" yMax="1703">
      <contour>
        <pt x="260" y="1429" on="1"/>
        <pt x="266" y="1460" on="1"/>
        <pt x="565" y="1703" on="1"/>
        <pt x="823" y="1703" on="1"/>
        <pt x="815" y="1660" on="1"/>
        <pt x="430" y="1429" on="1"/>
      </contour>
    </TTGlyph>
    <TTGlyph name="acutecomb" xMin="-214" yMin="1572" xMax="271" yMax="1854">
      <contour>
        <pt x="-214" y="1572" on="1"/>
        <pt x="-209" y="1599" on="1"/>
        <pt x="13" y="1854" on="1"/>
        <pt x="271" y="1854" on="1"/>
        <pt x="263" y="1816" on="1"/>
        <pt x="-65" y="1572" on="1"/>
      </contour>
    </TTGlyph>
    <TTGlyph name="adieresis" xMin="51" yMin="-20" xMax="1105" yMax="1438">
      <component glyphName="a" x="0" y="0" flags="0x204"/>
      <component glyphName="dieresis" x="-16" y="0" flags="0x4"/>
    </TTGlyph>
    <TTGlyph name="adotbelow" xMin="51" yMin="-366" xMax="1105" yMax="1102">
      <component glyphName="a" x="0" y="0" flags="0x204"/>
      <component glyphName="dotbelow.alt1" x="825" y="0" flags="0x4"/>
    </TTGlyph>
    <TTGlyph name="ae" xMin="-36" yMin="-20" xMax="1234" yMax="1102">
      <contour>
        <pt x="688" y="484" on="1"/>
        <pt x="688" y="482" on="1"/>
        <pt x="673" y="409" on="0"/>
        <pt x="673" y="345" on="1"/>
        <pt x="673" y="258" on="0"/>
        <pt x="732" y="160" on="0"/>
        <pt x="790" y="160" on="1"/>
        <pt x="850" y="160" on="0"/>
        <pt x="929" y="236" on="0"/>
        <pt x="958" y="301" on="1"/>
        <pt x="1127" y="256" on="1"/>
        <pt x="998" y="-20" on="0"/>
        <pt x="759" y="-20" on="1"/>
        <pt x="645" y="-20" on="0"/>
        <pt x="534" y="89" on="0"/>
        <pt x="522" y="212" on="1"/>
        <pt x="451" y="96" on="0"/>
        <pt x="268" y="-20" on="0"/>
        <pt x="169" y="-20" on="1"/>
        <pt x="68" y="-20" on="0"/>
        <pt x="-36" y="96" on="0"/>
        <pt x="-36" y="202" on="1"/>
        <pt x="-36" y="248" on="0"/>
        <pt x="-26" y="302" on="1"/>
        <pt x="43" y="655" on="0"/>
        <pt x="373" y="660" on="1"/>
        <pt x="521" y="664" on="1"/>
        <pt x="541" y="764" on="0"/>
        <pt x="541" y="799" on="1"/>
        <pt x="541" y="920" on="0"/>
        <pt x="455" y="920" on="1"/>
        <pt x="362" y="920" on="0"/>
        <pt x="318" y="773" on="1"/>
        <pt x="114" y="790" on="1"/>
        <pt x="163" y="946" on="0"/>
        <pt x="353" y="1102" on="0"/>
        <pt x="489" y="1102" on="1"/>
        <pt x="667" y="1102" on="0"/>
        <pt x="709" y="963" on="1"/>
        <pt x="820" y="1102" on="0"/>
        <pt x="982" y="1102" on="1"/>
        <pt x="1234" y="1102" on="0"/>
        <pt x="1234" y="781" on="1"/>
        <pt x="1234" y="732" on="0"/>
        <pt x="1223" y="623" on="0"/>
        <pt x="1197" y="484" on="1"/>
      </contour>
      <contour>
        <pt x="176" y="244" on="1"/>
        <pt x="176" y="162" on="0"/>
        <pt x="234" y="162" on="1"/>
        <pt x="312" y="162" on="0"/>
        <pt x="455" y="332" on="0"/>
        <pt x="478" y="445" on="1"/>
        <pt x="489" y="499" on="1"/>
        <pt x="386" y="496" on="1"/>
        <pt x="307" y="494" on="0"/>
        <pt x="223" y="430" on="0"/>
        <pt x="176" y="299" on="0"/>
      </contour>
      <contour>
        <pt x="934" y="924" on="1"/>
        <pt x="894" y="924" on="0"/>
        <pt x="810" y="859" on="0"/>
        <pt x="742" y="742" on="0"/>
        <pt x="724" y="660" on="1"/>
        <pt x="1025" y="660" on="1"/>
        <pt x="1033" y="722" on="0"/>
        <pt x="1033" y="769" on="1"/>
        <pt x="1033" y="844" on="0"/>
        <pt x="988" y="924" on="0"/>
      </contour>
    </TTGlyph>
    <TTGlyph name="aeacute" xMin="-36" yMin="-20" xMax="1234" yMax="1458">
      <component glyphName="ae" x="0" y="0" flags="0x204"/>
      <component glyphName="acute" x="110" y="0" flags="0x4"/>
    </TTGlyph>
    <TTGlyph name="agrave" xMin="51" yMin="-20" xMax="1105" yMax="1458">
      <component glyphName="a" x="0" y="0" flags="0x204"/>
      <component glyphName="grave" x="-114" y="0" flags="0x4"/>
    </TTGlyph>
    <TTGlyph name="ahookabove" xMin="51" yMin="-20" xMax="1105" yMax="1531">
      <component glyphName="a" x="0" y="0" flags="0x204"/>
      <component glyphName="hookabove.alt4" x="873" y="0" flags="0x4"/>
    </TTGlyph>
    <TTGlyph name="alef" xMin="-78" yMin="0" xMax="1290" yMax="1241">
      <contour>
        <pt x="215" y="1241" on="1"/>
        <pt x="530" y="1241" on="1"/>
        <pt x="786" y="680" on="1"/>
        <pt x="839" y="726" on="0"/>
        <pt x="917" y="875" on="0"/>
        <pt x="961" y="1022" on="1"/>
        <pt x="1022" y="1241" on="1"/>
        <pt x="1290" y="1241" on="1"/>
        <pt x="1225" y="1004" on="1"/>
        <pt x="1197" y="904" on="0"/>
        <pt x="1115" y="750" on="0"/>
        <pt x="996" y="613" on="0"/>
        <pt x="870" y="508" on="1"/>
        <pt x="1106" y="0" on="1"/>
        <pt x="793" y="0" on="1"/>
        <pt x="477" y="692" on="1"/>
        <pt x="442" y="671" on="0"/>
        <pt x="388" y="564" on="0"/>
        <pt x="319" y="362" on="1"/>
        <pt x="195" y="0" on="1"/>
        <pt x="-78" y="0" on="1"/>
        <pt x="76" y="414" on="1"/>
        <pt x="134" y="572" on="0"/>
        <pt x="218" y="726" on="0"/>
        <pt x="316" y="816" on="0"/>
        <pt x="401" y="854" on="1"/>
      </contour>
    </TTGlyph>
    <TTGlyph name="alefdagesh" xMin="-78" yMin="0" xMax="1290" yMax="1241">
      <component glyphName="alef" x="0" y="0" flags="0x204"/>
      <component glyphName="dagesh" x="-163" y="-511" flags="0x4"/>
    </TTGlyph>
    <TTGlyph name="aleflamed" xMin="100" yMin="0" xMax="1243" yMax="1679">
      <contour>
        <pt x="250" y="1057" on="1"/>
        <pt x="100" y="1057" on="1"/>
        <pt x="221" y="1679" on="1"/>
        <pt x="492" y="1679" on="1"/>
        <pt x="406" y="1241" on="1"/>
        <pt x="479" y="1241" on="1"/>
        <pt x="729" y="686" on="1"/>
        <pt x="786" y="738" on="0"/>
        <pt x="864" y="895" on="0"/>
        <pt x="901" y="1022" on="1"/>
        <pt x="967" y="1241" on="1"/>
        <pt x="1243" y="1241" on="1"/>
        <pt x="1174" y="1001" on="1"/>
        <pt x="1128" y="846" on="0"/>
        <pt x="977" y="628" on="0"/>
        <pt x="817" y="506" on="1"/>
        <pt x="1057" y="0" on="1"/>
        <pt x="739" y="0" on="1"/>
      </contour>
    </TTGlyph>
    <TTGlyph name="aleflamedhatafsegol" xMin="68" yMin="-385" xMax="1243" yMax="1679">
      <component glyphName="aleflamed" x="0" y="0" flags="0x204"/>
      <component glyphName="hatafsegol" x="-122" y="0" flags="0x4"/>
    </TTGlyph>
    <TTGlyph name="aleflamedsegol" xMin="100" yMin="-385" xMax="1243" yMax="1679">
      <component glyphName="aleflamed" x="0" y="0" flags="0x204"/>
      <component glyphName="segol" x="-91" y="0" flags="0x4"/>
    </TTGlyph>
    <TTGlyph name="aleflamedtsere" xMin="100" yMin="-348" xMax="1243" yMax="1679">
      <component glyphName="aleflamed" x="0" y="0" flags="0x204"/>
      <component glyphName="tsere" x="-71" y="0" flags="0x4"/>
    </TTGlyph>
    <TTGlyph name="alefmapiq" xMin="-78" yMin="0" xMax="1290" yMax="1241">
      <component glyphName="alef" x="0" y="0" flags="0x204"/>
      <component glyphName="dagesh" x="-163" y="-511" flags="0x4"/>
    </TTGlyph>
    <TTGlyph name="alefpatah" xMin="-78" yMin="-231" xMax="1290" yMax="1241">
      <component glyphName="alef" x="0" y="0" flags="0x204"/>
      <component glyphName="patah" x="-22" y="0" flags="0x4"/>
    </TTGlyph>
    <TTGlyph name="alefqamats" xMin="-78" yMin="-348" xMax="1290" yMax="1241">
      <component glyphName="alef" x="0" y="0" flags="0x204"/>
      <component glyphName="qamats" x="-22" y="0" flags="0x4"/>
    </TTGlyph>
    <TTGlyph name="alefwide" xMin="-78" yMin="0" xMax="1290" yMax="1241">
      <component glyphName="alef" x="0" y="0" flags="0x204"/>
    </TTGlyph>
    <TTGlyph name="alpha" xMin="47" yMin="-20" xMax="1333" yMax="1102">
      <contour>
        <pt x="791" y="237" on="1"/>
        <pt x="701" y="101" on="0"/>
        <pt x="506" y="-20" on="0"/>
        <pt x="382" y="-20" on="1"/>
        <pt x="47" y="-20" on="0"/>
        <pt x="47" y="331" on="1"/>
        <pt x="47" y="422" on="0"/>
        <pt x="69" y="536" on="1"/>
        <pt x="181" y="1102" on="0"/>
        <pt x="626" y="1102" on="1"/>
        <pt x="756" y="1102" on="0"/>
        <pt x="920" y="971" on="0"/>
        <pt x="945" y="847" on="1"/>
        <pt x="948" y="847" on="1"/>
        <pt x="999" y="974" on="0"/>
        <pt x="1068" y="1082" on="1"/>
        <pt x="1333" y="1082" on="1"/>
        <pt x="1262" y="987" on="0"/>
        <pt x="1099" y="673" on="0"/>
        <pt x="1062" y="556" on="1"/>
        <pt x="1053" y="459" on="0"/>
        <pt x="1053" y="365" on="1"/>
        <pt x="1053" y="170" on="0"/>
        <pt x="1090" y="0" on="1"/>
        <pt x="820" y="0" on="1"/>
        <pt x="795" y="114" on="0"/>
        <pt x="795" y="237" on="1"/>
      </contour>
      <contour>
        <pt x="342" y="347" on="1"/>
        <pt x="342" y="256" on="0"/>
        <pt x="407" y="173" on="0"/>
        <pt x="475" y="173" on="1"/>
        <pt x="563" y="173" on="0"/>
        <pt x="730" y="374" on="0"/>
        <pt x="781" y="542" on="1"/>
        <pt x="784" y="623" on="1"/>
        <pt x="784" y="763" on="0"/>
        <pt x="703" y="908" on="0"/>
        <pt x="625" y="908" on="1"/>
        <pt x="535" y="908" on="0"/>
        <pt x="419" y="768" on="0"/>
        <pt x="342" y="451" on="0"/>
      </contour>
    </TTGlyph>
    <TTGlyph name="alphatonos" xMin="47" yMin="-20" xMax="1333" yMax="1556">
      <component glyphName="alpha" x="0" y="0" flags="0x204"/>
      <component glyphName="tonos" x="60" y="0" flags="0x4"/>
    </TTGlyph>
    <TTGlyph name="alt_plussign" xMin="70" yMin="457" xMax="1178" yMax="1143">
      <contour>
        <pt x="1128" y="457" on="1"/>
        <pt x="70" y="457" on="1"/>
        <pt x="119" y="715" on="1"/>
        <pt x="510" y="715" on="1"/>
        <pt x="594" y="1143" on="1"/>
        <pt x="866" y="1143" on="1"/>
        <pt x="782" y="715" on="1"/>
        <pt x="1178" y="715" on="1"/>
      </contour>
    </TTGlyph>
    <TTGlyph name="alternativeayin" xMin="-80" yMin="-47" xMax="1292" yMax="1241">
      <component glyphName="ayin" x="0" y="0" flags="0x204"/>
    </TTGlyph>
    <TTGlyph name="alternativelamed" xMin="121" yMin="-59" xMax="1188" yMax="1665">
      <component glyphName="lamed" x="0" y="0" flags="0x204"/>
    </TTGlyph>
    <TTGlyph name="amacron" xMin="51" yMin="-20" xMax="1105" yMax="1371">
      <component glyphName="a" x="0" y="0" flags="0x204"/>
      <component glyphName="uni02C9" x="-7" y="0" flags="0x4"/>
    </TTGlyph>
    <TTGlyph name="ampersand" xMin="-19" yMin="-19" xMax="1156" yMax="1357">
      <contour>
        <pt x="372" y="779" on="1"/>
        <pt x="345" y="866" on="0"/>
        <pt x="345" y="958" on="1"/>
        <pt x="345" y="1071" on="0"/>
        <pt x="444" y="1257" on="0"/>
        <pt x="642" y="1357" on="0"/>
        <pt x="775" y="1357" on="1"/>
        <pt x="908" y="1357" on="0"/>
        <pt x="1063" y="1237" on="0"/>
        <pt x="1063" y="1132" on="1"/>
        <pt x="1063" y="1046" on="0"/>
        <pt x="976" y="904" on="0"/>
        <pt x="794" y="776" on="0"/>
        <pt x="619" y="702" on="1"/>
        <pt x="683" y="532" on="0"/>
        <pt x="775" y="400" on="1"/>
        <pt x="882" y="553" on="0"/>
        <pt x="946" y="724" on="1"/>
        <pt x="1144" y="697" on="1"/>
        <pt x="1055" y="459" on="0"/>
        <pt x="905" y="262" on="1"/>
        <pt x="974" y="189" on="0"/>
        <pt x="1060" y="189" on="1"/>
        <pt x="1116" y="189" on="0"/>
        <pt x="1156" y="206" on="1"/>
        <pt x="1118" y="10" on="1"/>
        <pt x="1076" y="-11" on="0"/>
        <pt x="1019" y="-11" on="1"/>
        <pt x="856" y="-11" on="0"/>
        <pt x="741" y="104" on="1"/>
        <pt x="557" y="-19" on="0"/>
        <pt x="358" y="-19" on="1"/>
        <pt x="173" y="-19" on="0"/>
        <pt x="-19" y="132" on="0"/>
        <pt x="-19" y="275" on="1"/>
        <pt x="-19" y="434" on="0"/>
        <pt x="188" y="698" on="0"/>
      </contour>
      <contour>
        <pt x="612" y="239" on="1"/>
        <pt x="485" y="421" on="0"/>
        <pt x="420" y="599" on="1"/>
        <pt x="332" y="554" on="0"/>
        <pt x="230" y="407" on="0"/>
        <pt x="230" y="320" on="1"/>
        <pt x="230" y="244" on="0"/>
        <pt x="321" y="163" on="0"/>
        <pt x="404" y="163" on="1"/>
        <pt x="507" y="163" on="0"/>
      </contour>
      <contour>
        <pt x="845" y="1102" on="1"/>
        <pt x="845" y="1144" on="0"/>
        <pt x="794" y="1195" on="0"/>
        <pt x="741" y="1195" on="1"/>
        <pt x="656" y="1195" on="0"/>
        <pt x="556" y="1082" on="0"/>
        <pt x="556" y="986" on="1"/>
        <pt x="556" y="920" on="0"/>
        <pt x="577" y="859" on="1"/>
        <pt x="734" y="925" on="0"/>
        <pt x="845" y="1034" on="0"/>
      </contour>
    </TTGlyph>
    <TTGlyph name="anoteleia" xMin="446" yMin="417" xMax="793" yMax="722">
      <contour>
        <pt x="446" y="417" on="1"/>
        <pt x="505" y="722" on="1"/>
        <pt x="793" y="722" on="1"/>
        <pt x="734" y="417" on="1"/>
      </contour>
    </TTGlyph>
    <TTGlyph name="aogonek" xMin="51" yMin="-425" xMax="1105" yMax="1102">
      <component glyphName="a" x="0" y="0" flags="0x204"/>
      <component glyphName="ogonek" x="363" y="0" flags="0x4"/>
    </TTGlyph>
    <TTGlyph name="approxequal" xMin="95" yMin="274" xMax="1133" yMax="1079">
      <contour>
        <pt x="866" y="756" on="1"/>
        <pt x="791" y="756" on="0"/>
        <pt x="646" y="797" on="0"/>
        <pt x="571" y="823" on="1"/>
        <pt x="439" y="870" on="0"/>
        <pt x="350" y="870" on="1"/>
        <pt x="283" y="870" on="0"/>
        <pt x="165" y="831" on="0"/>
        <pt x="95" y="782" on="1"/>
        <pt x="95" y="995" on="1"/>
        <pt x="205" y="1079" on="0"/>
        <pt x="366" y="1079" on="1"/>
        <pt x="419" y="1079" on="0"/>
        <pt x="543" y="1054" on="0"/>
        <pt x="685" y="1006" on="1"/>
        <pt x="806" y="963" on="0"/>
        <pt x="885" y="963" on="1"/>
        <pt x="1019" y="963" on="0"/>
        <pt x="1133" y="1055" on="1"/>
        <pt x="1133" y="836" on="1"/>
        <pt x="1070" y="791" on="0"/>
        <pt x="950" y="756" on="0"/>
      </contour>
      <contour>
        <pt x="866" y="274" on="1"/>
        <pt x="791" y="274" on="0"/>
        <pt x="646" y="318" on="0"/>
        <pt x="571" y="344" on="1"/>
        <pt x="442" y="389" on="0"/>
        <pt x="350" y="389" on="1"/>
        <pt x="279" y="389" on="0"/>
        <pt x="160" y="346" on="0"/>
        <pt x="95" y="301" on="1"/>
        <pt x="95" y="514" on="1"/>
        <pt x="208" y="598" on="0"/>
        <pt x="366" y="598" on="1"/>
        <pt x="449" y="598" on="0"/>
        <pt x="609" y="552" on="0"/>
        <pt x="685" y="526" on="1"/>
        <pt x="787" y="494" on="0"/>
        <pt x="857" y="481" on="0"/>
        <pt x="885" y="481" on="1"/>
        <pt x="1019" y="481" on="0"/>
        <pt x="1133" y="573" on="1"/>
        <pt x="1133" y="354" on="1"/>
        <pt x="1069" y="310" on="0"/>
        <pt x="952" y="274" on="0"/>
      </contour>
    </TTGlyph>
    <TTGlyph name="aring" xMin="51" yMin="-20" xMax="1105" yMax="1547">
      <component glyphName="a" x="0" y="0" flags="0x204"/>
      <component glyphName="ring" x="-8" y="0" flags="0x4"/>
    </TTGlyph>
    <TTGlyph name="aringacute" xMin="51" yMin="-20" xMax="1219" yMax="1705">
      <component glyphName="a" x="0" y="0" flags="0x204"/>
      <component glyphName="ring" x="-38" y="-147" flags="0x4"/>
      <component glyphName="acute" x="164" y="247" flags="0x4"/>
    </TTGlyph>
    <TTGlyph name="arrowboth" xMin="8" yMin="100" xMax="1220" yMax="580">
      <contour>
        <pt x="231" y="297" on="1"/>
        <pt x="288" y="230" on="0"/>
        <pt x="350" y="100" on="1"/>
        <pt x="278" y="100" on="1"/>
        <pt x="151" y="249" on="0"/>
        <pt x="8" y="322" on="1"/>
        <pt x="8" y="358" on="1"/>
        <pt x="151" y="431" on="0"/>
        <pt x="278" y="580" on="1"/>
        <pt x="350" y="580" on="1"/>
        <pt x="288" y="450" on="0"/>
        <pt x="231" y="383" on="1"/>
        <pt x="997" y="383" on="1"/>
        <pt x="940" y="450" on="0"/>
        <pt x="878" y="580" on="1"/>
        <pt x="950" y="580" on="1"/>
        <pt x="1077" y="431" on="0"/>
        <pt x="1220" y="358" on="1"/>
        <pt x="1220" y="322" on="1"/>
        <pt x="1077" y="249" on="0"/>
        <pt x="950" y="100" on="1"/>
        <pt x="878" y="100" on="1"/>
        <pt x="940" y="230" on="0"/>
        <pt x="997" y="297" on="1"/>
      </contour>
    </TTGlyph>
    <TTGlyph name="arrowdown" xMin="374" yMin="-61" xMax="854" yMax="1151">
      <contour>
        <pt x="657" y="162" on="1"/>
        <pt x="724" y="219" on="0"/>
        <pt x="854" y="281" on="1"/>
        <pt x="854" y="209" on="1"/>
        <pt x="705" y="82" on="0"/>
        <pt x="632" y="-61" on="1"/>
        <pt x="596" y="-61" on="1"/>
        <pt x="523" y="82" on="0"/>
        <pt x="374" y="209" on="1"/>
        <pt x="374" y="281" on="1"/>
        <pt x="504" y="219" on="0"/>
        <pt x="571" y="162" on="1"/>
        <pt x="571" y="1151" on="1"/>
        <pt x="657" y="1151" on="1"/>
      </contour>
    </TTGlyph>
    <TTGlyph name="arrowleft" xMin="8" yMin="100" xMax="1220" yMax="580">
      <contour>
        <pt x="231" y="297" on="1"/>
        <pt x="288" y="230" on="0"/>
        <pt x="350" y="100" on="1"/>
        <pt x="278" y="100" on="1"/>
        <pt x="151" y="249" on="0"/>
        <pt x="8" y="322" on="1"/>
        <pt x="8" y="358" on="1"/>
        <pt x="151" y="431" on="0"/>
        <pt x="278" y="580" on="1"/>
        <pt x="350" y="580" on="1"/>
        <pt x="288" y="450" on="0"/>
        <pt x="231" y="383" on="1"/>
        <pt x="1220" y="383" on="1"/>
        <pt x="1220" y="297" on="1"/>
      </contour>
    </TTGlyph>
    <TTGlyph name="arrowright" xMin="8" yMin="100" xMax="1220" yMax="580">
      <contour>
        <pt x="997" y="383" on="1"/>
        <pt x="940" y="450" on="0"/>
        <pt x="878" y="580" on="1"/>
        <pt x="950" y="580" on="1"/>
        <pt x="1077" y="431" on="0"/>
        <pt x="1220" y="358" on="1"/>
        <pt x="1220" y="322" on="1"/>
        <pt x="1077" y="249" on="0"/>
        <pt x="950" y="100" on="1"/>
        <pt x="878" y="100" on="1"/>
        <pt x="940" y="230" on="0"/>
        <pt x="997" y="297" on="1"/>
        <pt x="8" y="297" on="1"/>
        <pt x="8" y="383" on="1"/>
      </contour>
    </TTGlyph>
    <TTGlyph name="arrowup" xMin="374" yMin="-61" xMax="854" yMax="1151">
      <contour>
        <pt x="571" y="928" on="1"/>
        <pt x="504" y="871" on="0"/>
        <pt x="374" y="809" on="1"/>
        <pt x="374" y="881" on="1"/>
        <pt x="523" y="1008" on="0"/>
        <pt x="596" y="1151" on="1"/>
        <pt x="632" y="1151" on="1"/>
        <pt x="705" y="1008" on="0"/>
        <pt x="854" y="881" on="1"/>
        <pt x="854" y="809" on="1"/>
        <pt x="724" y="871" on="0"/>
        <pt x="657" y="928" on="1"/>
        <pt x="657" y="-61" on="1"/>
        <pt x="571" y="-61" on="1"/>
      </contour>
    </TTGlyph>
    <TTGlyph name="arrowupdn" xMin="374" yMin="-61" xMax="854" yMax="1151">
      <contour>
        <pt x="571" y="928" on="1"/>
        <pt x="504" y="871" on="0"/>
        <pt x="374" y="809" on="1"/>
        <pt x="374" y="881" on="1"/>
        <pt x="523" y="1008" on="0"/>
        <pt x="596" y="1151" on="1"/>
        <pt x="632" y="1151" on="1"/>
        <pt x="705" y="1008" on="0"/>
        <pt x="854" y="881" on="1"/>
        <pt x="854" y="809" on="1"/>
        <pt x="724" y="871" on="0"/>
        <pt x="657" y="928" on="1"/>
        <pt x="657" y="162" on="1"/>
        <pt x="724" y="219" on="0"/>
        <pt x="854" y="281" on="1"/>
        <pt x="854" y="209" on="1"/>
        <pt x="705" y="82" on="0"/>
        <pt x="632" y="-61" on="1"/>
        <pt x="596" y="-61" on="1"/>
        <pt x="523" y="82" on="0"/>
        <pt x="374" y="209" on="1"/>
        <pt x="374" y="281" on="1"/>
        <pt x="504" y="219" on="0"/>
        <pt x="571" y="162" on="1"/>
      </contour>
    </TTGlyph>
    <TTGlyph name="arrowupdnbse" xMin="374" yMin="-184" xMax="854" yMax="1151">
      <contour>
        <pt x="374" y="-104" on="1"/>
        <pt x="854" y="-104" on="1"/>
        <pt x="854" y="-184" on="1"/>
        <pt x="374" y="-184" on="1"/>
      </contour>
      <contour>
        <pt x="571" y="928" on="1"/>
        <pt x="504" y="871" on="0"/>
        <pt x="374" y="809" on="1"/>
        <pt x="374" y="881" on="1"/>
        <pt x="523" y="1008" on="0"/>
        <pt x="596" y="1151" on="1"/>
        <pt x="632" y="1151" on="1"/>
        <pt x="705" y="1008" on="0"/>
        <pt x="854" y="881" on="1"/>
        <pt x="854" y="809" on="1"/>
        <pt x="724" y="871" on="0"/>
        <pt x="657" y="928" on="1"/>
        <pt x="657" y="162" on="1"/>
        <pt x="724" y="219" on="0"/>
        <pt x="854" y="281" on="1"/>
        <pt x="854" y="209" on="1"/>
        <pt x="705" y="82" on="0"/>
        <pt x="632" y="-61" on="1"/>
        <pt x="596" y="-61" on="1"/>
        <pt x="523" y="82" on="0"/>
        <pt x="374" y="209" on="1"/>
        <pt x="374" y="281" on="1"/>
        <pt x="504" y="219" on="0"/>
        <pt x="571" y="162" on="1"/>
      </contour>
    </TTGlyph>
    <TTGlyph name="asciicircum" xMin="40" yMin="514" xMax="1146" yMax="1409">
      <contour>
        <pt x="917" y="514" on="1"/>
        <pt x="737" y="1266" on="1"/>
        <pt x="267" y="514" on="1"/>
        <pt x="40" y="514" on="1"/>
        <pt x="605" y="1409" on="1"/>
        <pt x="927" y="1409" on="1"/>
        <pt x="1146" y="514" on="1"/>
      </contour>
    </TTGlyph>
    <TTGlyph name="asciitilde" xMin="96" yMin="516" xMax="1186" yMax="840">
      <contour>
        <pt x="861" y="516" on="1"/>
        <pt x="786" y="516" on="0"/>
        <pt x="650" y="558" on="0"/>
        <pt x="580" y="584" on="1"/>
        <pt x="453" y="631" on="0"/>
        <pt x="368" y="631" on="1"/>
        <pt x="297" y="631" on="0"/>
        <pt x="171" y="589" on="0"/>
        <pt x="96" y="543" on="1"/>
        <pt x="137" y="756" on="1"/>
        <pt x="265" y="840" on="0"/>
        <pt x="424" y="840" on="1"/>
        <pt x="529" y="840" on="0"/>
        <pt x="658" y="793" on="1"/>
        <pt x="787" y="745" on="0"/>
        <pt x="880" y="723" on="0"/>
        <pt x="921" y="723" on="1"/>
        <pt x="1055" y="723" on="0"/>
        <pt x="1186" y="815" on="1"/>
        <pt x="1144" y="596" on="1"/>
        <pt x="1072" y="552" on="0"/>
        <pt x="947" y="516" on="0"/>
      </contour>
    </TTGlyph>
    <TTGlyph name="asterisk" xMin="332" yMin="721" xMax="1121" yMax="1483">
      <contour>
        <pt x="836" y="1209" on="1"/>
        <pt x="1091" y="1313" on="1"/>
        <pt x="1121" y="1116" on="1"/>
        <pt x="859" y="1055" on="1"/>
        <pt x="1004" y="842" on="1"/>
        <pt x="796" y="721" on="1"/>
        <pt x="699" y="973" on="1"/>
        <pt x="501" y="721" on="1"/>
        <pt x="339" y="844" on="1"/>
        <pt x="570" y="1055" on="1"/>
        <pt x="332" y="1116" on="1"/>
        <pt x="438" y="1313" on="1"/>
        <pt x="657" y="1209" on="1"/>
        <pt x="692" y="1483" on="1"/>
        <pt x="907" y="1483" on="1"/>
      </contour>
    </TTGlyph>
    <TTGlyph name="at" xMin="11" yMin="-283" xMax="1255" yMax="1484">
      <contour>
        <pt x="799" y="104" on="1"/>
        <pt x="682" y="104" on="0"/>
        <pt x="682" y="212" on="1"/>
        <pt x="682" y="238" on="0"/>
        <pt x="687" y="261" on="1"/>
        <pt x="698" y="309" on="1"/>
        <pt x="692" y="309" on="1"/>
        <pt x="641" y="219" on="0"/>
        <pt x="492" y="104" on="0"/>
        <pt x="417" y="104" on="1"/>
        <pt x="336" y="104" on="0"/>
        <pt x="251" y="223" on="0"/>
        <pt x="251" y="336" on="1"/>
        <pt x="251" y="503" on="0"/>
        <pt x="404" y="880" on="0"/>
        <pt x="634" y="1101" on="0"/>
        <pt x="753" y="1101" on="1"/>
        <pt x="816" y="1101" on="0"/>
        <pt x="883" y="1021" on="0"/>
        <pt x="883" y="946" on="1"/>
        <pt x="883" y="928" on="1"/>
        <pt x="888" y="928" on="1"/>
        <pt x="951" y="1079" on="1"/>
        <pt x="1086" y="1079" on="1"/>
        <pt x="888" y="572" on="1"/>
        <pt x="827" y="413" on="0"/>
        <pt x="791" y="292" on="0"/>
        <pt x="791" y="264" on="1"/>
        <pt x="791" y="239" on="0"/>
        <pt x="813" y="226" on="0"/>
        <pt x="830" y="226" on="1"/>
        <pt x="895" y="226" on="0"/>
        <pt x="1024" y="444" on="0"/>
        <pt x="1120" y="820" on="0"/>
        <pt x="1120" y="958" on="1"/>
        <pt x="1120" y="1146" on="0"/>
        <pt x="968" y="1358" on="0"/>
        <pt x="829" y="1358" on="1"/>
        <pt x="695" y="1358" on="0"/>
        <pt x="454" y="1182" on="0"/>
        <pt x="266" y="866" on="0"/>
        <pt x="150" y="443" on="0"/>
        <pt x="150" y="275" on="1"/>
        <pt x="150" y="72" on="0"/>
        <pt x="316" y="-155" on="0"/>
        <pt x="469" y="-155" on="1"/>
        <pt x="561" y="-155" on="0"/>
        <pt x="749" y="-85" on="0"/>
        <pt x="869" y="3" on="1"/>
        <pt x="921" y="-94" on="1"/>
        <pt x="781" y="-196" on="0"/>
        <pt x="550" y="-283" on="0"/>
        <pt x="434" y="-283" on="1"/>
        <pt x="231" y="-283" on="0"/>
        <pt x="11" y="1" on="0"/>
        <pt x="11" y="249" on="1"/>
        <pt x="11" y="444" on="0"/>
        <pt x="150" y="930" on="0"/>
        <pt x="382" y="1289" on="0"/>
        <pt x="685" y="1484" on="0"/>
        <pt x="855" y="1484" on="1"/>
        <pt x="1047" y="1484" on="0"/>
        <pt x="1255" y="1221" on="0"/>
        <pt x="1255" y="987" on="1"/>
        <pt x="1255" y="802" on="0"/>
        <pt x="1121" y="355" on="0"/>
        <pt x="914" y="104" on="0"/>
      </contour>
      <contour>
        <pt x="812" y="873" on="1"/>
        <pt x="812" y="979" on="0"/>
        <pt x="731" y="979" on="1"/>
        <pt x="659" y="979" on="0"/>
        <pt x="507" y="780" on="0"/>
        <pt x="404" y="460" on="0"/>
        <pt x="404" y="339" on="1"/>
        <pt x="404" y="230" on="0"/>
        <pt x="466" y="230" on="1"/>
        <pt x="514" y="230" on="0"/>
        <pt x="611" y="315" on="0"/>
        <pt x="706" y="483" on="0"/>
        <pt x="815" y="799" on="0"/>
      </contour>
    </TTGlyph>
    <TTGlyph name="atilde" xMin="51" yMin="-20" xMax="1176" yMax="1466">
      <component glyphName="a" x="0" y="0" flags="0x204"/>
      <component glyphName="tilde" x="-8" y="0" flags="0x4"/>
    </TTGlyph>
    <TTGlyph name="ayin" xMin="-80" yMin="-47" xMax="1292" yMax="1241">
      <contour>
        <pt x="383" y="270" on="1"/>
        <pt x="217" y="1241" on="1"/>
        <pt x="510" y="1241" on="1"/>
        <pt x="641" y="391" on="1"/>
        <pt x="774" y="485" on="0"/>
        <pt x="946" y="884" on="0"/>
        <pt x="1014" y="1241" on="1"/>
        <pt x="1292" y="1241" on="1"/>
        <pt x="1199" y="760" on="0"/>
        <pt x="879" y="223" on="0"/>
        <pt x="354" y="-28" on="0"/>
        <pt x="-80" y="-47" on="1"/>
        <pt x="-29" y="219" on="1"/>
        <pt x="232" y="224" on="0"/>
      </contour>
    </TTGlyph>
    <TTGlyph name="b" xMin="35" yMin="-20" xMax="1154" yMax="1484">
      <contour>
        <pt x="35" y="0" on="1"/>
        <pt x="58" y="96" on="1"/>
        <pt x="89" y="236" on="1"/>
        <pt x="331" y="1484" on="1"/>
        <pt x="612" y="1484" on="1"/>
        <pt x="536" y="1090" on="1"/>
        <pt x="499" y="912" on="1"/>
        <pt x="501" y="912" on="1"/>
        <pt x="559" y="1003" on="0"/>
        <pt x="743" y="1103" on="0"/>
        <pt x="855" y="1103" on="1"/>
        <pt x="1002" y="1103" on="0"/>
        <pt x="1154" y="917" on="0"/>
        <pt x="1154" y="744" on="1"/>
        <pt x="1154" y="611" on="0"/>
        <pt x="1075" y="317" on="0"/>
        <pt x="931" y="97" on="0"/>
        <pt x="739" y="-20" on="0"/>
        <pt x="628" y="-20" on="1"/>
        <pt x="523" y="-20" on="0"/>
        <pt x="385" y="81" on="0"/>
        <pt x="360" y="176" on="1"/>
        <pt x="356" y="176" on="1"/>
        <pt x="347" y="128" on="0"/>
        <pt x="314" y="15" on="0"/>
        <pt x="307" y="0" on="1"/>
      </contour>
      <contour>
        <pt x="410" y="399" on="1"/>
        <pt x="410" y="293" on="0"/>
        <pt x="493" y="172" on="0"/>
        <pt x="566" y="172" on="1"/>
        <pt x="651" y="172" on="0"/>
        <pt x="781" y="315" on="0"/>
        <pt x="857" y="589" on="0"/>
        <pt x="857" y="706" on="1"/>
        <pt x="857" y="912" on="0"/>
        <pt x="708" y="912" on="1"/>
        <pt x="609" y="912" on="0"/>
        <pt x="460" y="719" on="0"/>
        <pt x="426" y="547" on="1"/>
        <pt x="410" y="464" on="0"/>
      </contour>
    </TTGlyph>
    <TTGlyph name="backslash" xMin="274" yMin="-20" xMax="1031" yMax="1484">
      <contour>
        <pt x="799" y="-20" on="1"/>
        <pt x="274" y="1484" on="1"/>
        <pt x="502" y="1484" on="1"/>
        <pt x="1031" y="-20" on="1"/>
      </contour>
    </TTGlyph>
    <TTGlyph name="bar" xMin="483" yMin="-455" xMax="745" yMax="1484">
      <contour>
        <pt x="483" y="-455" on="1"/>
        <pt x="483" y="1484" on="1"/>
        <pt x="745" y="1484" on="1"/>
        <pt x="745" y="-455" on="1"/>
      </contour>
    </TTGlyph>
    <TTGlyph name="bari.dotless" xMin="13" yMin="0" xMax="1079" yMax="1082">
      <contour>
        <pt x="817" y="658" on="1"/>
        <pt x="1040" y="658" on="1"/>
        <pt x="1000" y="455" on="1"/>
        <pt x="777" y="455" on="1"/>
        <pt x="726" y="190" on="1"/>
        <pt x="1079" y="190" on="1"/>
        <pt x="1042" y="0" on="1"/>
        <pt x="13" y="0" on="1"/>
        <pt x="50" y="190" on="1"/>
        <pt x="445" y="190" on="1"/>
        <pt x="496" y="455" on="1"/>
        <pt x="275" y="455" on="1"/>
        <pt x="315" y="658" on="1"/>
        <pt x="536" y="658" on="1"/>
        <pt x="581" y="892" on="1"/>
        <pt x="291" y="892" on="1"/>
        <pt x="328" y="1082" on="1"/>
        <pt x="899" y="1082" on="1"/>
      </contour>
    </TTGlyph>
    <TTGlyph name="bet" xMin="-27" yMin="0" xMax="1094" yMax="1241">
      <contour>
        <pt x="213" y="999" on="1"/>
        <pt x="260" y="1241" on="1"/>
        <pt x="600" y="1241" on="1"/>
        <pt x="847" y="1241" on="0"/>
        <pt x="1073" y="1070" on="0"/>
        <pt x="1073" y="889" on="1"/>
        <pt x="1073" y="810" on="0"/>
        <pt x="1055" y="719" on="1"/>
        <pt x="961" y="242" on="1"/>
        <pt x="1094" y="242" on="1"/>
        <pt x="1049" y="0" on="1"/>
        <pt x="-27" y="0" on="1"/>
        <pt x="18" y="242" on="1"/>
        <pt x="690" y="242" on="1"/>
        <pt x="776" y="684" on="1"/>
        <pt x="791" y="772" on="0"/>
        <pt x="791" y="809" on="1"/>
        <pt x="791" y="909" on="0"/>
        <pt x="678" y="999" on="0"/>
        <pt x="549" y="999" on="1"/>
      </contour>
    </TTGlyph>
    <TTGlyph name="beta" xMin="-46" yMin="-425" xMax="1196" yMax="1484">
      <contour>
        <pt x="619" y="-20" on="1"/>
        <pt x="447" y="-20" on="0"/>
        <pt x="334" y="74" on="1"/>
        <pt x="325" y="74" on="1"/>
        <pt x="314" y="-33" on="0"/>
        <pt x="294" y="-128" on="1"/>
        <pt x="236" y="-425" on="1"/>
        <pt x="-46" y="-425" on="1"/>
        <pt x="237" y="1027" on="1"/>
        <pt x="283" y="1264" on="0"/>
        <pt x="574" y="1484" on="0"/>
        <pt x="821" y="1484" on="1"/>
        <pt x="1011" y="1484" on="0"/>
        <pt x="1196" y="1343" on="0"/>
        <pt x="1196" y="1215" on="1"/>
        <pt x="1196" y="1132" on="0"/>
        <pt x="1130" y="960" on="0"/>
        <pt x="1003" y="832" on="0"/>
        <pt x="909" y="795" on="1"/>
        <pt x="1025" y="769" on="0"/>
        <pt x="1154" y="613" on="0"/>
        <pt x="1154" y="497" on="1"/>
        <pt x="1154" y="369" on="0"/>
        <pt x="1024" y="115" on="0"/>
        <pt x="785" y="-20" on="0"/>
      </contour>
      <contour>
        <pt x="879" y="478" on="1"/>
        <pt x="879" y="576" on="0"/>
        <pt x="735" y="676" on="0"/>
        <pt x="602" y="676" on="1"/>
        <pt x="641" y="874" on="1"/>
        <pt x="736" y="891" on="0"/>
        <pt x="859" y="966" on="0"/>
        <pt x="922" y="1092" on="0"/>
        <pt x="922" y="1157" on="1"/>
        <pt x="922" y="1281" on="0"/>
        <pt x="781" y="1281" on="1"/>
        <pt x="667" y="1281" on="0"/>
        <pt x="541" y="1142" on="0"/>
        <pt x="512" y="991" on="1"/>
        <pt x="369" y="255" on="1"/>
        <pt x="410" y="219" on="0"/>
        <pt x="534" y="172" on="0"/>
        <pt x="600" y="172" on="1"/>
        <pt x="686" y="172" on="0"/>
        <pt x="810" y="251" on="0"/>
        <pt x="879" y="404" on="0"/>
      </contour>
    </TTGlyph>
    <TTGlyph name="betdagesh" xMin="-27" yMin="0" xMax="1094" yMax="1241">
      <component glyphName="bet" x="0" y="0" flags="0x204"/>
      <component glyphName="dagesh" x="-183" y="-81" flags="0x4"/>
    </TTGlyph>
    <TTGlyph name="betrafe" xMin="-27" yMin="0" xMax="1094" yMax="1457">
      <component glyphName="bet" x="0" y="0" flags="0x204"/>
      <component glyphName="rafe" x="-142" y="0" flags="0x4"/>
    </TTGlyph>
    <TTGlyph name="block" xMin="0" yMin="-615" xMax="1229" yMax="1705">
      <contour>
        <pt x="1229" y="-615" on="1"/>
        <pt x="0" y="-615" on="1"/>
        <pt x="0" y="1705" on="1"/>
        <pt x="1229" y="1705" on="1"/>
      </contour>
    </TTGlyph>
    <TTGlyph name="braceleft" xMin="173" yMin="-425" xMax="1228" yMax="1484">
      <contour>
        <pt x="530" y="-425" on="1"/>
        <pt x="412" y="-425" on="0"/>
        <pt x="286" y="-308" on="0"/>
        <pt x="286" y="-203" on="1"/>
        <pt x="286" y="-169" on="0"/>
        <pt x="294" y="-126" on="1"/>
        <pt x="357" y="202" on="1"/>
        <pt x="364" y="237" on="0"/>
        <pt x="364" y="272" on="1"/>
        <pt x="364" y="348" on="0"/>
        <pt x="275" y="428" on="0"/>
        <pt x="173" y="431" on="1"/>
        <pt x="211" y="626" on="1"/>
        <pt x="330" y="631" on="0"/>
        <pt x="463" y="743" on="0"/>
        <pt x="485" y="857" on="1"/>
        <pt x="548" y="1185" on="1"/>
        <pt x="577" y="1332" on="0"/>
        <pt x="762" y="1484" on="0"/>
        <pt x="901" y="1484" on="1"/>
        <pt x="1228" y="1484" on="1"/>
        <pt x="1192" y="1294" on="1"/>
        <pt x="1004" y="1294" on="1"/>
        <pt x="913" y="1294" on="0"/>
        <pt x="811" y="1190" on="0"/>
        <pt x="791" y="1085" on="1"/>
        <pt x="732" y="784" on="1"/>
        <pt x="713" y="687" on="0"/>
        <pt x="571" y="551" on="0"/>
        <pt x="476" y="532" on="1"/>
        <pt x="476" y="528" on="1"/>
        <pt x="554" y="508" on="0"/>
        <pt x="639" y="403" on="0"/>
        <pt x="639" y="328" on="1"/>
        <pt x="639" y="299" on="0"/>
        <pt x="634" y="276" on="1"/>
        <pt x="575" y="-25" on="1"/>
        <pt x="567" y="-67" on="0"/>
        <pt x="567" y="-101" on="1"/>
        <pt x="567" y="-168" on="0"/>
        <pt x="634" y="-234" on="0"/>
        <pt x="707" y="-234" on="1"/>
        <pt x="895" y="-234" on="1"/>
        <pt x="857" y="-425" on="1"/>
      </contour>
    </TTGlyph>
    <TTGlyph name="braceright" xMin="-4" yMin="-425" xMax="1052" yMax="1484">
      <contour>
        <pt x="-4" y="-425" on="1"/>
        <pt x="34" y="-234" on="1"/>
        <pt x="222" y="-234" on="1"/>
        <pt x="313" y="-234" on="0"/>
        <pt x="414" y="-131" on="0"/>
        <pt x="434" y="-25" on="1"/>
        <pt x="493" y="276" on="1"/>
        <pt x="511" y="370" on="0"/>
        <pt x="650" y="506" on="0"/>
        <pt x="749" y="528" on="1"/>
        <pt x="749" y="532" on="1"/>
        <pt x="672" y="550" on="0"/>
        <pt x="586" y="658" on="0"/>
        <pt x="586" y="732" on="1"/>
        <pt x="591" y="784" on="1"/>
        <pt x="650" y="1085" on="1"/>
        <pt x="658" y="1119" on="0"/>
        <pt x="658" y="1162" on="1"/>
        <pt x="658" y="1294" on="0"/>
        <pt x="519" y="1294" on="1"/>
        <pt x="331" y="1294" on="1"/>
        <pt x="367" y="1484" on="1"/>
        <pt x="694" y="1484" on="1"/>
        <pt x="812" y="1484" on="0"/>
        <pt x="940" y="1374" on="0"/>
        <pt x="940" y="1267" on="1"/>
        <pt x="940" y="1229" on="0"/>
        <pt x="931" y="1185" on="1"/>
        <pt x="868" y="857" on="1"/>
        <pt x="860" y="817" on="0"/>
        <pt x="860" y="786" on="1"/>
        <pt x="860" y="630" on="0"/>
        <pt x="1052" y="626" on="1"/>
        <pt x="1014" y="431" on="1"/>
        <pt x="893" y="429" on="0"/>
        <pt x="761" y="313" on="0"/>
        <pt x="740" y="202" on="1"/>
        <pt x="677" y="-126" on="1"/>
        <pt x="651" y="-263" on="0"/>
        <pt x="461" y="-425" on="0"/>
        <pt x="323" y="-425" on="1"/>
      </contour>
    </TTGlyph>
    <TTGlyph name="bracketleft" xMin="185" yMin="-425" xMax="1158" yMax="1484">
      <contour>
        <pt x="185" y="-425" on="1"/>
        <pt x="556" y="1484" on="1"/>
        <pt x="1158" y="1484" on="1"/>
        <pt x="1122" y="1294" on="1"/>
        <pt x="786" y="1294" on="1"/>
        <pt x="489" y="-234" on="1"/>
        <pt x="825" y="-234" on="1"/>
        <pt x="787" y="-425" on="1"/>
      </contour>
    </TTGlyph>
    <TTGlyph name="bracketright" xMin="66" yMin="-425" xMax="1039" yMax="1484">
      <contour>
        <pt x="66" y="-425" on="1"/>
        <pt x="104" y="-234" on="1"/>
        <pt x="440" y="-234" on="1"/>
        <pt x="737" y="1294" on="1"/>
        <pt x="401" y="1294" on="1"/>
        <pt x="437" y="1484" on="1"/>
        <pt x="1039" y="1484" on="1"/>
        <pt x="668" y="-425" on="1"/>
      </contour>
    </TTGlyph>
    <TTGlyph name="breve" xMin="437" yMin="1183" xMax="1147" yMax="1461">
      <contour>
        <pt x="737" y="1183" on="1"/>
        <pt x="589" y="1183" on="0"/>
        <pt x="437" y="1306" on="0"/>
        <pt x="437" y="1420" on="1"/>
        <pt x="437" y="1450" on="0"/>
        <pt x="439" y="1461" on="1"/>
        <pt x="602" y="1461" on="1"/>
        <pt x="602" y="1451" on="1"/>
        <pt x="602" y="1340" on="0"/>
        <pt x="769" y="1340" on="1"/>
        <pt x="857" y="1340" on="0"/>
        <pt x="957" y="1398" on="0"/>
        <pt x="983" y="1461" on="1"/>
        <pt x="1147" y="1461" on="1"/>
        <pt x="1059" y="1183" on="0"/>
      </contour>
    </TTGlyph>
    <TTGlyph name="breve.cyr" xMin="392" yMin="1184" xMax="1212" yMax="1524">
      <contour>
        <pt x="739" y="1184" on="1"/>
        <pt x="612" y="1184" on="0"/>
        <pt x="462" y="1247" on="0"/>
        <pt x="392" y="1357" on="0"/>
        <pt x="392" y="1444" on="1"/>
        <pt x="392" y="1483" on="0"/>
        <pt x="398" y="1524" on="1"/>
        <pt x="622" y="1524" on="1"/>
        <pt x="618" y="1472" on="1"/>
        <pt x="618" y="1325" on="0"/>
        <pt x="767" y="1325" on="1"/>
        <pt x="940" y="1325" on="0"/>
        <pt x="988" y="1524" on="1"/>
        <pt x="1212" y="1524" on="1"/>
        <pt x="1171" y="1346" on="0"/>
        <pt x="934" y="1184" on="0"/>
      </contour>
    </TTGlyph>
    <TTGlyph name="breve.uc" xMin="212" yMin="1429" xMax="922" yMax="1707">
      <contour>
        <pt x="512" y="1429" on="1"/>
        <pt x="351" y="1429" on="0"/>
        <pt x="212" y="1562" on="0"/>
        <pt x="212" y="1665" on="1"/>
        <pt x="214" y="1707" on="1"/>
        <pt x="377" y="1707" on="1"/>
        <pt x="377" y="1697" on="1"/>
        <pt x="377" y="1586" on="0"/>
        <pt x="545" y="1586" on="1"/>
        <pt x="633" y="1586" on="0"/>
        <pt x="732" y="1644" on="0"/>
        <pt x="758" y="1707" on="1"/>
        <pt x="922" y="1707" on="1"/>
        <pt x="834" y="1429" on="0"/>
      </contour>
    </TTGlyph>
    <TTGlyph name="breveacute" xMin="-92" yMin="1429" xMax="534" yMax="1802">
      <contour>
        <pt x="280" y="1802" on="1"/>
        <pt x="506" y="1802" on="1"/>
        <pt x="504" y="1790" on="1"/>
        <pt x="255" y="1644" on="1"/>
        <pt x="125" y="1644" on="1"/>
        <pt x="127" y="1654" on="1"/>
      </contour>
      <contour>
        <pt x="172" y="1429" on="1"/>
        <pt x="47" y="1429" on="0"/>
        <pt x="-92" y="1554" on="0"/>
        <pt x="-92" y="1665" on="1"/>
        <pt x="-92" y="1678" on="1"/>
        <pt x="15" y="1678" on="1"/>
        <pt x="19" y="1610" on="0"/>
        <pt x="114" y="1555" on="0"/>
        <pt x="198" y="1555" on="1"/>
        <pt x="374" y="1555" on="0"/>
        <pt x="427" y="1678" on="1"/>
        <pt x="534" y="1678" on="1"/>
        <pt x="486" y="1554" on="0"/>
        <pt x="300" y="1429" on="0"/>
      </contour>
    </TTGlyph>
    <TTGlyph name="breveacute.lc" xMin="-177" yMin="1183" xMax="623" yMax="1786">
      <contour>
        <pt x="123" y="1183" on="1"/>
        <pt x="-38" y="1183" on="0"/>
        <pt x="-177" y="1316" on="0"/>
        <pt x="-177" y="1419" on="1"/>
        <pt x="-175" y="1461" on="1"/>
        <pt x="-12" y="1461" on="1"/>
        <pt x="-12" y="1451" on="1"/>
        <pt x="-12" y="1340" on="0"/>
        <pt x="156" y="1340" on="1"/>
        <pt x="244" y="1340" on="0"/>
        <pt x="343" y="1398" on="0"/>
        <pt x="369" y="1461" on="1"/>
        <pt x="533" y="1461" on="1"/>
        <pt x="445" y="1183" on="0"/>
      </contour>
      <contour>
        <pt x="60" y="1512" on="1"/>
        <pt x="66" y="1543" on="1"/>
        <pt x="365" y="1786" on="1"/>
        <pt x="623" y="1786" on="1"/>
        <pt x="615" y="1743" on="1"/>
        <pt x="230" y="1512" on="1"/>
      </contour>
    </TTGlyph>
    <TTGlyph name="brevegrave" xMin="-92" yMin="1429" xMax="534" yMax="1802">
      <contour>
        <pt x="309" y="1654" on="1"/>
        <pt x="307" y="1644" on="1"/>
        <pt x="177" y="1644" on="1"/>
        <pt x="-16" y="1790" on="1"/>
        <pt x="-14" y="1802" on="1"/>
        <pt x="212" y="1802" on="1"/>
      </contour>
      <contour>
        <pt x="172" y="1429" on="1"/>
        <pt x="47" y="1429" on="0"/>
        <pt x="-92" y="1554" on="0"/>
        <pt x="-92" y="1665" on="1"/>
        <pt x="-92" y="1678" on="1"/>
        <pt x="15" y="1678" on="1"/>
        <pt x="19" y="1610" on="0"/>
        <pt x="114" y="1555" on="0"/>
        <pt x="198" y="1555" on="1"/>
        <pt x="374" y="1555" on="0"/>
        <pt x="427" y="1678" on="1"/>
        <pt x="534" y="1678" on="1"/>
        <pt x="486" y="1554" on="0"/>
        <pt x="300" y="1429" on="0"/>
      </contour>
    </TTGlyph>
    <TTGlyph name="brevegrave.lc" xMin="-179" yMin="1183" xMax="530" yMax="1786">
      <contour>
        <pt x="124" y="1183" on="1"/>
        <pt x="-43" y="1183" on="0"/>
        <pt x="-179" y="1321" on="0"/>
        <pt x="-179" y="1432" on="1"/>
        <pt x="-178" y="1461" on="1"/>
        <pt x="-14" y="1461" on="1"/>
        <pt x="-12" y="1398" on="0"/>
        <pt x="65" y="1340" on="0"/>
        <pt x="153" y="1340" on="1"/>
        <pt x="329" y="1340" on="0"/>
        <pt x="367" y="1461" on="1"/>
        <pt x="530" y="1461" on="1"/>
        <pt x="494" y="1328" on="0"/>
        <pt x="285" y="1183" on="0"/>
      </contour>
      <contour>
        <pt x="145" y="1512" on="1"/>
        <pt x="-150" y="1743" on="1"/>
        <pt x="-142" y="1786" on="1"/>
        <pt x="116" y="1786" on="1"/>
        <pt x="321" y="1543" on="1"/>
        <pt x="315" y="1512" on="1"/>
      </contour>
    </TTGlyph>
    <TTGlyph name="brevehook" xMin="-92" yMin="1429" xMax="534" yMax="1802">
      <contour>
        <pt x="172" y="1429" on="1"/>
        <pt x="47" y="1429" on="0"/>
        <pt x="-92" y="1554" on="0"/>
        <pt x="-92" y="1665" on="1"/>
        <pt x="-92" y="1678" on="1"/>
        <pt x="15" y="1678" on="1"/>
        <pt x="19" y="1610" on="0"/>
        <pt x="114" y="1555" on="0"/>
        <pt x="198" y="1555" on="1"/>
        <pt x="374" y="1555" on="0"/>
        <pt x="427" y="1678" on="1"/>
        <pt x="534" y="1678" on="1"/>
        <pt x="486" y="1554" on="0"/>
        <pt x="300" y="1429" on="0"/>
      </contour>
      <contour>
        <pt x="255" y="1704" on="1"/>
        <pt x="255" y="1734" on="0"/>
        <pt x="202" y="1734" on="1"/>
        <pt x="152" y="1734" on="0"/>
        <pt x="108" y="1718" on="1"/>
        <pt x="100" y="1782" on="1"/>
        <pt x="163" y="1802" on="0"/>
        <pt x="229" y="1802" on="1"/>
        <pt x="365" y="1802" on="0"/>
        <pt x="365" y="1722" on="1"/>
        <pt x="365" y="1667" on="0"/>
        <pt x="279" y="1606" on="0"/>
        <pt x="196" y="1606" on="1"/>
        <pt x="161" y="1606" on="1"/>
        <pt x="172" y="1661" on="1"/>
        <pt x="255" y="1661" on="0"/>
      </contour>
    </TTGlyph>
    <TTGlyph name="brevehook.lc" xMin="-177" yMin="1183" xMax="533" yMax="1794">
      <contour>
        <pt x="283" y="1634" on="1"/>
        <pt x="283" y="1689" on="0"/>
        <pt x="148" y="1689" on="1"/>
        <pt x="98" y="1689" on="0"/>
        <pt x="38" y="1681" on="1"/>
        <pt x="47" y="1783" on="1"/>
        <pt x="68" y="1787" on="0"/>
        <pt x="172" y="1794" on="0"/>
        <pt x="216" y="1794" on="1"/>
        <pt x="343" y="1794" on="0"/>
        <pt x="478" y="1725" on="0"/>
        <pt x="478" y="1662" on="1"/>
        <pt x="478" y="1602" on="0"/>
        <pt x="374" y="1518" on="0"/>
        <pt x="268" y="1510" on="1"/>
        <pt x="262" y="1480" on="1"/>
        <pt x="112" y="1480" on="1"/>
        <pt x="129" y="1570" on="1"/>
        <pt x="283" y="1570" on="0"/>
      </contour>
      <contour>
        <pt x="123" y="1183" on="1"/>
        <pt x="-38" y="1183" on="0"/>
        <pt x="-177" y="1316" on="0"/>
        <pt x="-177" y="1419" on="1"/>
        <pt x="-175" y="1461" on="1"/>
        <pt x="-12" y="1461" on="1"/>
        <pt x="-12" y="1451" on="1"/>
        <pt x="-12" y="1340" on="0"/>
        <pt x="156" y="1340" on="1"/>
        <pt x="244" y="1340" on="0"/>
        <pt x="343" y="1398" on="0"/>
        <pt x="369" y="1461" on="1"/>
        <pt x="533" y="1461" on="1"/>
        <pt x="445" y="1183" on="0"/>
      </contour>
    </TTGlyph>
    <TTGlyph name="brevetilde" xMin="-103" yMin="1429" xMax="564" yMax="1802">
      <contour>
        <pt x="174" y="1429" on="1"/>
        <pt x="74" y="1429" on="0"/>
        <pt x="-37" y="1529" on="0"/>
        <pt x="-37" y="1616" on="1"/>
        <pt x="-37" y="1628" on="1"/>
        <pt x="48" y="1628" on="1"/>
        <pt x="54" y="1588" on="0"/>
        <pt x="131" y="1545" on="0"/>
        <pt x="198" y="1545" on="1"/>
        <pt x="334" y="1545" on="0"/>
        <pt x="378" y="1628" on="1"/>
        <pt x="463" y="1628" on="1"/>
        <pt x="425" y="1530" on="0"/>
        <pt x="277" y="1429" on="0"/>
      </contour>
      <contour>
        <pt x="342" y="1648" on="1"/>
        <pt x="307" y="1648" on="0"/>
        <pt x="242" y="1667" on="0"/>
        <pt x="182" y="1689" on="0"/>
        <pt x="125" y="1708" on="0"/>
        <pt x="98" y="1708" on="1"/>
        <pt x="18" y="1708" on="0"/>
        <pt x="-12" y="1648" on="1"/>
        <pt x="-103" y="1648" on="1"/>
        <pt x="-72" y="1735" on="0"/>
        <pt x="33" y="1802" on="0"/>
        <pt x="120" y="1802" on="1"/>
        <pt x="156" y="1802" on="0"/>
        <pt x="222" y="1783" on="0"/>
        <pt x="283" y="1761" on="0"/>
        <pt x="338" y="1742" on="0"/>
        <pt x="364" y="1742" on="1"/>
        <pt x="412" y="1742" on="0"/>
        <pt x="461" y="1773" on="0"/>
        <pt x="472" y="1802" on="1"/>
        <pt x="564" y="1802" on="1"/>
        <pt x="537" y="1733" on="0"/>
        <pt x="484" y="1678" on="0"/>
        <pt x="403" y="1648" on="0"/>
      </contour>
    </TTGlyph>
    <TTGlyph name="brevetilde.lc" xMin="-177" yMin="1183" xMax="601" yMax="1785">
      <contour>
        <pt x="348" y="1521" on="1"/>
        <pt x="308" y="1521" on="0"/>
        <pt x="234" y="1556" on="0"/>
        <pt x="167" y="1597" on="0"/>
        <pt x="105" y="1632" on="0"/>
        <pt x="78" y="1632" on="1"/>
        <pt x="42" y="1632" on="0"/>
        <pt x="-7" y="1588" on="0"/>
        <pt x="-31" y="1521" on="1"/>
        <pt x="-155" y="1521" on="1"/>
        <pt x="-125" y="1629" on="0"/>
        <pt x="-63" y="1727" on="0"/>
        <pt x="31" y="1785" on="0"/>
        <pt x="99" y="1785" on="1"/>
        <pt x="140" y="1785" on="0"/>
        <pt x="215" y="1751" on="0"/>
        <pt x="283" y="1709" on="0"/>
        <pt x="343" y="1675" on="0"/>
        <pt x="369" y="1675" on="1"/>
        <pt x="413" y="1675" on="0"/>
        <pt x="460" y="1733" on="0"/>
        <pt x="479" y="1785" on="1"/>
        <pt x="601" y="1785" on="1"/>
        <pt x="576" y="1685" on="0"/>
        <pt x="513" y="1581" on="0"/>
        <pt x="418" y="1521" on="0"/>
      </contour>
      <contour>
        <pt x="123" y="1183" on="1"/>
        <pt x="-38" y="1183" on="0"/>
        <pt x="-177" y="1316" on="0"/>
        <pt x="-177" y="1419" on="1"/>
        <pt x="-175" y="1461" on="1"/>
        <pt x="-12" y="1461" on="1"/>
        <pt x="-12" y="1451" on="1"/>
        <pt x="-12" y="1340" on="0"/>
        <pt x="156" y="1340" on="1"/>
        <pt x="244" y="1340" on="0"/>
        <pt x="343" y="1398" on="0"/>
        <pt x="369" y="1461" on="1"/>
        <pt x="533" y="1461" on="1"/>
        <pt x="445" y="1183" on="0"/>
      </contour>
    </TTGlyph>
    <TTGlyph name="brokenbar" xMin="483" yMin="-455" xMax="745" yMax="1454">
      <contour>
        <pt x="483" y="676" on="1"/>
        <pt x="483" y="1454" on="1"/>
        <pt x="745" y="1454" on="1"/>
        <pt x="745" y="676" on="1"/>
      </contour>
      <contour>
        <pt x="483" y="-455" on="1"/>
        <pt x="483" y="324" on="1"/>
        <pt x="745" y="324" on="1"/>
        <pt x="745" y="-455" on="1"/>
      </contour>
    </TTGlyph>
    <TTGlyph name="bullet" xMin="343" yMin="386" xMax="940" yMax="974">
      <contour>
        <pt x="582" y="386" on="1"/>
        <pt x="476" y="386" on="0"/>
        <pt x="343" y="524" on="0"/>
        <pt x="343" y="625" on="1"/>
        <pt x="343" y="716" on="0"/>
        <pt x="447" y="880" on="0"/>
        <pt x="610" y="974" on="0"/>
        <pt x="696" y="974" on="1"/>
        <pt x="802" y="974" on="0"/>
        <pt x="940" y="839" on="0"/>
        <pt x="940" y="737" on="1"/>
        <pt x="940" y="649" on="0"/>
        <pt x="837" y="484" on="0"/>
        <pt x="668" y="386" on="0"/>
      </contour>
    </TTGlyph>
    <TTGlyph name="c" xMin="93" yMin="-20" xMax="1140" yMax="1102">
      <contour>
        <pt x="515" y="-20" on="1"/>
        <pt x="311" y="-20" on="0"/>
        <pt x="93" y="186" on="0"/>
        <pt x="93" y="378" on="1"/>
        <pt x="93" y="511" on="0"/>
        <pt x="185" y="794" on="0"/>
        <pt x="356" y="997" on="0"/>
        <pt x="594" y="1102" on="0"/>
        <pt x="737" y="1102" on="1"/>
        <pt x="927" y="1102" on="0"/>
        <pt x="1140" y="912" on="0"/>
        <pt x="1140" y="746" on="1"/>
        <pt x="1140" y="741" on="1"/>
        <pt x="854" y="727" on="1"/>
        <pt x="855" y="746" on="1"/>
        <pt x="855" y="816" on="0"/>
        <pt x="782" y="909" on="0"/>
        <pt x="694" y="909" on="1"/>
        <pt x="598" y="909" on="0"/>
        <pt x="468" y="774" on="0"/>
        <pt x="388" y="500" on="0"/>
        <pt x="388" y="385" on="1"/>
        <pt x="388" y="172" on="0"/>
        <pt x="554" y="172" on="1"/>
        <pt x="634" y="172" on="0"/>
        <pt x="763" y="273" on="0"/>
        <pt x="795" y="373" on="1"/>
        <pt x="1074" y="360" on="1"/>
        <pt x="1039" y="251" on="0"/>
        <pt x="877" y="77" on="0"/>
        <pt x="648" y="-20" on="0"/>
      </contour>
    </TTGlyph>
    <TTGlyph name="cacute" xMin="93" yMin="-20" xMax="1157" yMax="1458">
      <component glyphName="c" x="0" y="0" flags="0x204"/>
      <component glyphName="acute" x="102" y="0" flags="0x4"/>
    </TTGlyph>
    <TTGlyph name="caron" xMin="419" yMin="1183" xMax="1162" yMax="1461">
      <contour>
        <pt x="858" y="1183" on="1"/>
        <pt x="629" y="1183" on="1"/>
        <pt x="419" y="1432" on="1"/>
        <pt x="425" y="1461" on="1"/>
        <pt x="585" y="1461" on="1"/>
        <pt x="770" y="1327" on="1"/>
        <pt x="774" y="1327" on="1"/>
        <pt x="1003" y="1461" on="1"/>
        <pt x="1162" y="1461" on="1"/>
        <pt x="1156" y="1432" on="1"/>
      </contour>
    </TTGlyph>
    <TTGlyph name="caron.uc" xMin="194" yMin="1427" xMax="937" yMax="1705">
      <contour>
        <pt x="633" y="1427" on="1"/>
        <pt x="404" y="1427" on="1"/>
        <pt x="194" y="1676" on="1"/>
        <pt x="200" y="1705" on="1"/>
        <pt x="360" y="1705" on="1"/>
        <pt x="545" y="1571" on="1"/>
        <pt x="549" y="1571" on="1"/>
        <pt x="778" y="1705" on="1"/>
        <pt x="937" y="1705" on="1"/>
        <pt x="931" y="1676" on="1"/>
      </contour>
    </TTGlyph>
    <TTGlyph name="caroncommaaccent" xMin="549" yMin="1129" xMax="964" yMax="1484">
      <contour>
        <pt x="549" y="1129" on="1"/>
        <pt x="556" y="1162" on="1"/>
        <pt x="707" y="1484" on="1"/>
        <pt x="964" y="1484" on="1"/>
        <pt x="957" y="1447" on="1"/>
        <pt x="714" y="1129" on="1"/>
      </contour>
    </TTGlyph>
    <TTGlyph name="ccaron" xMin="93" yMin="-20" xMax="1158" yMax="1461">
      <component glyphName="c" x="0" y="0" flags="0x204"/>
      <component glyphName="caron" x="-4" y="0" flags="0x4"/>
    </TTGlyph>
    <TTGlyph name="ccedilla" xMin="93" yMin="-445" xMax="1140" yMax="1102">
      <component glyphName="c" x="0" y="0" flags="0x204"/>
      <component glyphName="cedilla" x="337" y="0" flags="0x4"/>
    </TTGlyph>
    <TTGlyph name="ccircumflex" xMin="93" yMin="-20" xMax="1140" yMax="1461">
      <component glyphName="c" x="0" y="0" flags="0x204"/>
      <component glyphName="circumflex" x="0" y="0" flags="0x4"/>
    </TTGlyph>
    <TTGlyph name="cdotaccent" xMin="93" yMin="-20" xMax="1140" yMax="1474">
      <component glyphName="c" x="0" y="0" flags="0x204"/>
      <component glyphName="dotaccent" x="20" y="0" flags="0x4"/>
    </TTGlyph>
    <TTGlyph name="cedilla" xMin="-101" yMin="-445" xMax="342" yMax="0">
      <contour>
        <pt x="-1" y="-445" on="1"/>
        <pt x="-47" y="-445" on="0"/>
        <pt x="-101" y="-439" on="1"/>
        <pt x="-78" y="-321" on="1"/>
        <pt x="-46" y="-328" on="0"/>
        <pt x="4" y="-328" on="1"/>
        <pt x="157" y="-328" on="0"/>
        <pt x="157" y="-245" on="1"/>
        <pt x="157" y="-220" on="0"/>
        <pt x="112" y="-190" on="0"/>
        <pt x="46" y="-190" on="1"/>
        <pt x="8" y="-190" on="0"/>
        <pt x="-6" y="-192" on="1"/>
        <pt x="100" y="0" on="1"/>
        <pt x="243" y="0" on="1"/>
        <pt x="183" y="-102" on="1"/>
        <pt x="342" y="-112" on="0"/>
        <pt x="342" y="-221" on="1"/>
        <pt x="342" y="-281" on="0"/>
        <pt x="268" y="-388" on="0"/>
        <pt x="110" y="-445" on="0"/>
      </contour>
    </TTGlyph>
    <TTGlyph name="cent" xMin="107" yMin="-60" xMax="1188" yMax="1380">
      <contour>
        <pt x="590" y="311" on="1"/>
        <pt x="678" y="311" on="0"/>
        <pt x="819" y="420" on="0"/>
        <pt x="852" y="520" on="1"/>
        <pt x="1133" y="508" on="1"/>
        <pt x="1079" y="353" on="0"/>
        <pt x="817" y="152" on="0"/>
        <pt x="635" y="131" on="1"/>
        <pt x="598" y="-60" on="1"/>
        <pt x="436" y="-60" on="1"/>
        <pt x="473" y="129" on="1"/>
        <pt x="297" y="146" on="0"/>
        <pt x="107" y="344" on="0"/>
        <pt x="107" y="517" on="1"/>
        <pt x="107" y="682" on="0"/>
        <pt x="249" y="995" on="0"/>
        <pt x="506" y="1178" on="0"/>
        <pt x="680" y="1196" on="1"/>
        <pt x="716" y="1380" on="1"/>
        <pt x="878" y="1380" on="1"/>
        <pt x="842" y="1196" on="1"/>
        <pt x="1007" y="1177" on="0"/>
        <pt x="1188" y="991" on="0"/>
        <pt x="1188" y="845" on="1"/>
        <pt x="1188" y="839" on="1"/>
        <pt x="903" y="825" on="1"/>
        <pt x="903" y="833" on="1"/>
        <pt x="903" y="921" on="0"/>
        <pt x="811" y="1015" on="0"/>
        <pt x="725" y="1015" on="1"/>
        <pt x="651" y="1015" on="0"/>
        <pt x="530" y="947" on="0"/>
        <pt x="442" y="813" on="0"/>
        <pt x="392" y="621" on="0"/>
        <pt x="392" y="540" on="1"/>
        <pt x="392" y="427" on="0"/>
        <pt x="493" y="311" on="0"/>
      </contour>
    </TTGlyph>
    <TTGlyph name="chi" xMin="-146" yMin="-424" xMax="1264" yMax="1104">
      <contour>
        <pt x="371" y="1104" on="1"/>
        <pt x="441" y="1104" on="0"/>
        <pt x="522" y="1060" on="0"/>
        <pt x="581" y="953" on="0"/>
        <pt x="652" y="692" on="0"/>
        <pt x="663" y="618" on="1"/>
        <pt x="731" y="729" on="1"/>
        <pt x="967" y="1082" on="1"/>
        <pt x="1264" y="1082" on="1"/>
        <pt x="755" y="392" on="1"/>
        <pt x="1010" y="-424" on="1"/>
        <pt x="710" y="-424" on="1"/>
        <pt x="599" y="8" on="1"/>
        <pt x="573" y="104" on="0"/>
        <pt x="563" y="198" on="1"/>
        <pt x="539" y="146" on="0"/>
        <pt x="453" y="13" on="1"/>
        <pt x="154" y="-424" on="1"/>
        <pt x="-146" y="-424" on="1"/>
        <pt x="467" y="405" on="1"/>
        <pt x="395" y="648" on="1"/>
        <pt x="345" y="812" on="0"/>
        <pt x="286" y="899" on="0"/>
        <pt x="236" y="899" on="1"/>
        <pt x="195" y="899" on="0"/>
        <pt x="152" y="883" on="1"/>
        <pt x="149" y="1074" on="1"/>
        <pt x="236" y="1104" on="0"/>
      </contour>
    </TTGlyph>
    <TTGlyph name="circle" xMin="163" yMin="162" xMax="1066" yMax="1065">
      <contour>
        <pt x="163" y="612" on="1"/>
        <pt x="163" y="734" on="0"/>
        <pt x="283" y="944" on="0"/>
        <pt x="492" y="1065" on="0"/>
        <pt x="613" y="1065" on="1"/>
        <pt x="735" y="1065" on="0"/>
        <pt x="945" y="944" on="0"/>
        <pt x="1066" y="733" on="0"/>
        <pt x="1066" y="612" on="1"/>
        <pt x="1066" y="491" on="0"/>
        <pt x="945" y="282" on="0"/>
        <pt x="736" y="162" on="0"/>
        <pt x="613" y="162" on="1"/>
        <pt x="491" y="162" on="0"/>
        <pt x="283" y="282" on="0"/>
        <pt x="163" y="490" on="0"/>
      </contour>
      <contour>
        <pt x="249" y="612" on="1"/>
        <pt x="249" y="514" on="0"/>
        <pt x="347" y="345" on="0"/>
        <pt x="514" y="248" on="0"/>
        <pt x="613" y="248" on="1"/>
        <pt x="711" y="248" on="0"/>
        <pt x="880" y="344" on="0"/>
        <pt x="980" y="514" on="0"/>
        <pt x="980" y="612" on="1"/>
        <pt x="980" y="710" on="0"/>
        <pt x="882" y="881" on="0"/>
        <pt x="711" y="979" on="0"/>
        <pt x="613" y="979" on="1"/>
        <pt x="516" y="979" on="0"/>
        <pt x="347" y="881" on="0"/>
        <pt x="249" y="712" on="0"/>
      </contour>
    </TTGlyph>
    <TTGlyph name="circumflex" xMin="371" yMin="1183" xMax="1113" yMax="1461">
      <contour>
        <pt x="1113" y="1211" on="1"/>
        <pt x="1108" y="1183" on="1"/>
        <pt x="949" y="1183" on="1"/>
        <pt x="772" y="1317" on="1"/>
        <pt x="768" y="1317" on="1"/>
        <pt x="531" y="1183" on="1"/>
        <pt x="371" y="1183" on="1"/>
        <pt x="376" y="1211" on="1"/>
        <pt x="683" y="1461" on="1"/>
        <pt x="912" y="1461" on="1"/>
      </contour>
    </TTGlyph>
    <TTGlyph name="circumflex.uc" xMin="146" yMin="1429" xMax="888" yMax="1707">
      <contour>
        <pt x="888" y="1457" on="1"/>
        <pt x="883" y="1429" on="1"/>
        <pt x="724" y="1429" on="1"/>
        <pt x="547" y="1563" on="1"/>
        <pt x="543" y="1563" on="1"/>
        <pt x="306" y="1429" on="1"/>
        <pt x="146" y="1429" on="1"/>
        <pt x="151" y="1457" on="1"/>
        <pt x="458" y="1707" on="1"/>
        <pt x="687" y="1707" on="1"/>
      </contour>
    </TTGlyph>
    <TTGlyph name="circumflexacute" xMin="-157" yMin="1427" xMax="774" yMax="1800">
      <contour>
        <pt x="557" y="1800" on="1"/>
        <pt x="774" y="1800" on="1"/>
        <pt x="771" y="1788" on="1"/>
        <pt x="511" y="1612" on="1"/>
        <pt x="415" y="1612" on="1"/>
        <pt x="417" y="1622" on="1"/>
      </contour>
      <contour>
        <pt x="499" y="1447" on="1"/>
        <pt x="495" y="1427" on="1"/>
        <pt x="390" y="1427" on="1"/>
        <pt x="204" y="1596" on="1"/>
        <pt x="202" y="1596" on="1"/>
        <pt x="-53" y="1427" on="1"/>
        <pt x="-157" y="1427" on="1"/>
        <pt x="-153" y="1447" on="1"/>
        <pt x="123" y="1717" on="1"/>
        <pt x="327" y="1717" on="1"/>
      </contour>
    </TTGlyph>
    <TTGlyph name="circumflexacute.lc" xMin="-243" yMin="1183" xMax="770" yMax="1574">
      <contour>
        <pt x="553" y="1574" on="1"/>
        <pt x="770" y="1574" on="1"/>
        <pt x="768" y="1562" on="1"/>
        <pt x="527" y="1386" on="1"/>
        <pt x="411" y="1386" on="1"/>
        <pt x="413" y="1396" on="1"/>
      </contour>
      <contour>
        <pt x="499" y="1211" on="1"/>
        <pt x="494" y="1183" on="1"/>
        <pt x="335" y="1183" on="1"/>
        <pt x="169" y="1375" on="1"/>
        <pt x="165" y="1375" on="1"/>
        <pt x="-83" y="1183" on="1"/>
        <pt x="-243" y="1183" on="1"/>
        <pt x="-238" y="1211" on="1"/>
        <pt x="82" y="1529" on="1"/>
        <pt x="311" y="1529" on="1"/>
      </contour>
    </TTGlyph>
    <TTGlyph name="circumflexgrave" xMin="-287" yMin="1427" xMax="505" yMax="1800">
      <contour>
        <pt x="3" y="1622" on="1"/>
        <pt x="1" y="1612" on="1"/>
        <pt x="-95" y="1612" on="1"/>
        <pt x="-287" y="1788" on="1"/>
        <pt x="-285" y="1800" on="1"/>
        <pt x="-68" y="1800" on="1"/>
      </contour>
      <contour>
        <pt x="129" y="1717" on="1"/>
        <pt x="333" y="1717" on="1"/>
        <pt x="505" y="1447" on="1"/>
        <pt x="501" y="1427" on="1"/>
        <pt x="397" y="1427" on="1"/>
        <pt x="208" y="1596" on="1"/>
        <pt x="206" y="1596" on="1"/>
        <pt x="-46" y="1427" on="1"/>
        <pt x="-151" y="1427" on="1"/>
        <pt x="-147" y="1447" on="1"/>
      </contour>
    </TTGlyph>
    <TTGlyph name="circumflexgrave.lc" xMin="-364" yMin="1183" xMax="505" yMax="1574">
      <contour>
        <pt x="-74" y="1396" on="1"/>
        <pt x="-76" y="1386" on="1"/>
        <pt x="-192" y="1386" on="1"/>
        <pt x="-364" y="1562" on="1"/>
        <pt x="-362" y="1574" on="1"/>
        <pt x="-145" y="1574" on="1"/>
      </contour>
      <contour>
        <pt x="80" y="1529" on="1"/>
        <pt x="309" y="1529" on="1"/>
        <pt x="505" y="1211" on="1"/>
        <pt x="499" y="1183" on="1"/>
        <pt x="339" y="1183" on="1"/>
        <pt x="166" y="1375" on="1"/>
        <pt x="162" y="1375" on="1"/>
        <pt x="-79" y="1183" on="1"/>
        <pt x="-238" y="1183" on="1"/>
        <pt x="-232" y="1211" on="1"/>
      </contour>
    </TTGlyph>
    <TTGlyph name="circumflexhook" xMin="-157" yMin="1426" xMax="675" yMax="1799">
      <contour>
        <pt x="565" y="1701" on="1"/>
        <pt x="565" y="1731" on="0"/>
        <pt x="512" y="1731" on="1"/>
        <pt x="462" y="1731" on="0"/>
        <pt x="418" y="1715" on="1"/>
        <pt x="411" y="1779" on="1"/>
        <pt x="473" y="1799" on="0"/>
        <pt x="540" y="1799" on="1"/>
        <pt x="675" y="1799" on="0"/>
        <pt x="675" y="1719" on="1"/>
        <pt x="675" y="1669" on="0"/>
        <pt x="591" y="1603" on="0"/>
        <pt x="532" y="1603" on="1"/>
        <pt x="528" y="1580" on="1"/>
        <pt x="467" y="1580" on="1"/>
        <pt x="482" y="1658" on="1"/>
        <pt x="565" y="1658" on="0"/>
      </contour>
      <contour>
        <pt x="499" y="1446" on="1"/>
        <pt x="495" y="1426" on="1"/>
        <pt x="390" y="1426" on="1"/>
        <pt x="204" y="1595" on="1"/>
        <pt x="202" y="1595" on="1"/>
        <pt x="-53" y="1426" on="1"/>
        <pt x="-157" y="1426" on="1"/>
        <pt x="-153" y="1446" on="1"/>
        <pt x="123" y="1716" on="1"/>
        <pt x="327" y="1716" on="1"/>
      </contour>
    </TTGlyph>
    <TTGlyph name="circumflexhook.lc" xMin="-243" yMin="1183" xMax="707" yMax="1653">
      <contour>
        <pt x="499" y="1211" on="1"/>
        <pt x="494" y="1183" on="1"/>
        <pt x="335" y="1183" on="1"/>
        <pt x="158" y="1317" on="1"/>
        <pt x="154" y="1317" on="1"/>
        <pt x="-83" y="1183" on="1"/>
        <pt x="-243" y="1183" on="1"/>
        <pt x="-238" y="1211" on="1"/>
        <pt x="69" y="1461" on="1"/>
        <pt x="298" y="1461" on="1"/>
      </contour>
      <contour>
        <pt x="567" y="1531" on="1"/>
        <pt x="567" y="1568" on="0"/>
        <pt x="499" y="1568" on="1"/>
        <pt x="436" y="1568" on="0"/>
        <pt x="381" y="1549" on="1"/>
        <pt x="371" y="1629" on="1"/>
        <pt x="445" y="1653" on="0"/>
        <pt x="534" y="1653" on="1"/>
        <pt x="707" y="1653" on="0"/>
        <pt x="707" y="1558" on="1"/>
        <pt x="707" y="1507" on="0"/>
        <pt x="628" y="1426" on="0"/>
        <pt x="541" y="1415" on="1"/>
        <pt x="534" y="1377" on="1"/>
        <pt x="443" y="1377" on="1"/>
        <pt x="461" y="1471" on="1"/>
        <pt x="524" y="1474" on="0"/>
        <pt x="567" y="1502" on="0"/>
      </contour>
    </TTGlyph>
    <TTGlyph name="circumflextilde" xMin="-133" yMin="1427" xMax="564" yMax="1800">
      <contour>
        <pt x="334" y="1606" on="1"/>
        <pt x="299" y="1606" on="0"/>
        <pt x="235" y="1629" on="0"/>
        <pt x="175" y="1658" on="0"/>
        <pt x="119" y="1681" on="0"/>
        <pt x="92" y="1681" on="1"/>
        <pt x="47" y="1681" on="0"/>
        <pt x="-4" y="1646" on="0"/>
        <pt x="-20" y="1606" on="1"/>
        <pt x="-111" y="1606" on="1"/>
        <pt x="-84" y="1686" on="0"/>
        <pt x="-28" y="1759" on="0"/>
        <pt x="57" y="1800" on="0"/>
        <pt x="120" y="1800" on="1"/>
        <pt x="156" y="1800" on="0"/>
        <pt x="221" y="1777" on="0"/>
        <pt x="280" y="1748" on="0"/>
        <pt x="334" y="1725" on="0"/>
        <pt x="360" y="1725" on="1"/>
        <pt x="408" y="1725" on="0"/>
        <pt x="458" y="1763" on="0"/>
        <pt x="472" y="1800" on="1"/>
        <pt x="564" y="1800" on="1"/>
        <pt x="537" y="1720" on="0"/>
        <pt x="480" y="1646" on="0"/>
        <pt x="398" y="1606" on="0"/>
      </contour>
      <contour>
        <pt x="186" y="1494" on="1"/>
        <pt x="22" y="1427" on="1"/>
        <pt x="-133" y="1427" on="1"/>
        <pt x="-131" y="1439" on="1"/>
        <pt x="106" y="1580" on="1"/>
        <pt x="301" y="1580" on="1"/>
        <pt x="481" y="1437" on="1"/>
        <pt x="479" y="1427" on="1"/>
        <pt x="324" y="1427" on="1"/>
      </contour>
    </TTGlyph>
    <TTGlyph name="circumflextilde.lc" xMin="-243" yMin="1183" xMax="595" yMax="1787">
      <contour>
        <pt x="342" y="1523" on="1"/>
        <pt x="302" y="1523" on="0"/>
        <pt x="229" y="1558" on="0"/>
        <pt x="161" y="1599" on="0"/>
        <pt x="100" y="1634" on="0"/>
        <pt x="73" y="1634" on="1"/>
        <pt x="37" y="1634" on="0"/>
        <pt x="-13" y="1589" on="0"/>
        <pt x="-37" y="1523" on="1"/>
        <pt x="-161" y="1523" on="1"/>
        <pt x="-131" y="1631" on="0"/>
        <pt x="-69" y="1729" on="0"/>
        <pt x="25" y="1787" on="0"/>
        <pt x="93" y="1787" on="1"/>
        <pt x="134" y="1787" on="0"/>
        <pt x="209" y="1753" on="0"/>
        <pt x="277" y="1711" on="0"/>
        <pt x="337" y="1677" on="0"/>
        <pt x="363" y="1677" on="1"/>
        <pt x="407" y="1677" on="0"/>
        <pt x="454" y="1735" on="0"/>
        <pt x="473" y="1787" on="1"/>
        <pt x="595" y="1787" on="1"/>
        <pt x="570" y="1687" on="0"/>
        <pt x="507" y="1583" on="0"/>
        <pt x="412" y="1523" on="0"/>
      </contour>
      <contour>
        <pt x="499" y="1211" on="1"/>
        <pt x="494" y="1183" on="1"/>
        <pt x="335" y="1183" on="1"/>
        <pt x="158" y="1317" on="1"/>
        <pt x="154" y="1317" on="1"/>
        <pt x="-83" y="1183" on="1"/>
        <pt x="-243" y="1183" on="1"/>
        <pt x="-238" y="1211" on="1"/>
        <pt x="69" y="1461" on="1"/>
        <pt x="298" y="1461" on="1"/>
      </contour>
    </TTGlyph>
    <TTGlyph name="club" xMin="97" yMin="0" xMax="1131" yMax="1195">
      <contour>
        <pt x="614" y="1195" on="1"/>
        <pt x="699" y="1195" on="0"/>
        <pt x="823" y="1134" on="0"/>
        <pt x="891" y="1025" on="0"/>
        <pt x="891" y="961" on="1"/>
        <pt x="891" y="894" on="0"/>
        <pt x="824" y="761" on="0"/>
        <pt x="773" y="725" on="1"/>
        <pt x="828" y="728" on="1"/>
        <pt x="963" y="728" on="0"/>
        <pt x="1131" y="591" on="0"/>
        <pt x="1131" y="478" on="1"/>
        <pt x="1131" y="370" on="0"/>
        <pt x="995" y="240" on="0"/>
        <pt x="896" y="240" on="1"/>
        <pt x="835" y="240" on="0"/>
        <pt x="699" y="299" on="0"/>
        <pt x="662" y="340" on="1"/>
        <pt x="662" y="207" on="0"/>
        <pt x="837" y="56" on="0"/>
        <pt x="982" y="56" on="1"/>
        <pt x="982" y="0" on="1"/>
        <pt x="246" y="0" on="1"/>
        <pt x="246" y="56" on="1"/>
        <pt x="391" y="56" on="0"/>
        <pt x="566" y="207" on="0"/>
        <pt x="566" y="340" on="1"/>
        <pt x="530" y="299" on="0"/>
        <pt x="395" y="240" on="0"/>
        <pt x="332" y="240" on="1"/>
        <pt x="232" y="240" on="0"/>
        <pt x="97" y="370" on="0"/>
        <pt x="97" y="478" on="1"/>
        <pt x="97" y="592" on="0"/>
        <pt x="265" y="728" on="0"/>
        <pt x="400" y="728" on="1"/>
        <pt x="455" y="725" on="1"/>
        <pt x="404" y="761" on="0"/>
        <pt x="337" y="894" on="0"/>
        <pt x="337" y="961" on="1"/>
        <pt x="337" y="1025" on="0"/>
        <pt x="405" y="1134" on="0"/>
        <pt x="529" y="1195" on="0"/>
      </contour>
    </TTGlyph>
    <TTGlyph name="colon" xMin="365" yMin="0" xMax="865" yMax="1085">
      <contour>
        <pt x="365" y="0" on="1"/>
        <pt x="424" y="305" on="1"/>
        <pt x="713" y="305" on="1"/>
        <pt x="654" y="0" on="1"/>
      </contour>
      <contour>
        <pt x="517" y="780" on="1"/>
        <pt x="576" y="1085" on="1"/>
        <pt x="865" y="1085" on="1"/>
        <pt x="806" y="780" on="1"/>
      </contour>
    </TTGlyph>
    <TTGlyph name="comma" xMin="82" yMin="-363" xMax="695" yMax="299">
      <contour>
        <pt x="82" y="-363" on="1"/>
        <pt x="380" y="299" on="1"/>
        <pt x="695" y="299" on="1"/>
        <pt x="255" y="-363" on="1"/>
      </contour>
    </TTGlyph>
    <TTGlyph name="commaaccentrotate" xMin="575" yMin="1211" xMax="990" yMax="1566">
      <contour>
        <pt x="990" y="1566" on="1"/>
        <pt x="984" y="1533" on="1"/>
        <pt x="832" y="1211" on="1"/>
        <pt x="575" y="1211" on="1"/>
        <pt x="583" y="1248" on="1"/>
        <pt x="825" y="1566" on="1"/>
      </contour>
    </TTGlyph>
    <TTGlyph name="copyright" xMin="31" yMin="38" xMax="1197" yMax="1484">
      <contour>
        <pt x="628" y="333" on="1"/>
        <pt x="460" y="333" on="0"/>
        <pt x="275" y="560" on="0"/>
        <pt x="275" y="763" on="1"/>
        <pt x="275" y="965" on="0"/>
        <pt x="453" y="1187" on="0"/>
        <pt x="621" y="1187" on="1"/>
        <pt x="838" y="1187" on="0"/>
        <pt x="924" y="978" on="1"/>
        <pt x="786" y="935" on="1"/>
        <pt x="737" y="1062" on="0"/>
        <pt x="623" y="1062" on="1"/>
        <pt x="528" y="1062" on="0"/>
        <pt x="428" y="909" on="0"/>
        <pt x="428" y="763" on="1"/>
        <pt x="428" y="621" on="0"/>
        <pt x="535" y="457" on="0"/>
        <pt x="628" y="457" on="1"/>
        <pt x="741" y="457" on="0"/>
        <pt x="799" y="611" on="1"/>
        <pt x="928" y="569" on="1"/>
        <pt x="891" y="456" on="0"/>
        <pt x="736" y="333" on="0"/>
      </contour>
      <contour>
        <pt x="1197" y="761" on="1"/>
        <pt x="1197" y="534" on="0"/>
        <pt x="1055" y="207" on="0"/>
        <pt x="791" y="38" on="0"/>
        <pt x="614" y="38" on="1"/>
        <pt x="437" y="38" on="0"/>
        <pt x="174" y="209" on="0"/>
        <pt x="31" y="535" on="0"/>
        <pt x="31" y="761" on="1"/>
        <pt x="31" y="987" on="0"/>
        <pt x="173" y="1313" on="0"/>
        <pt x="438" y="1484" on="0"/>
        <pt x="614" y="1484" on="1"/>
        <pt x="790" y="1484" on="0"/>
        <pt x="1055" y="1314" on="0"/>
        <pt x="1197" y="989" on="0"/>
      </contour>
      <contour>
        <pt x="1071" y="761" on="1"/>
        <pt x="1071" y="1049" on="0"/>
        <pt x="832" y="1368" on="0"/>
        <pt x="614" y="1368" on="1"/>
        <pt x="399" y="1368" on="0"/>
        <pt x="160" y="1049" on="0"/>
        <pt x="160" y="761" on="1"/>
        <pt x="160" y="470" on="0"/>
        <pt x="400" y="153" on="0"/>
        <pt x="614" y="153" on="1"/>
        <pt x="831" y="153" on="0"/>
        <pt x="1071" y="470" on="0"/>
      </contour>
    </TTGlyph>
    <TTGlyph name="currency" xMin="61" yMin="170" xMax="1223" yMax="1196">
      <contour>
        <pt x="310" y="905" on="1"/>
        <pt x="203" y="1038" on="1"/>
        <pt x="390" y="1194" on="1"/>
        <pt x="495" y="1061" on="1"/>
        <pt x="609" y="1120" on="0"/>
        <pt x="727" y="1120" on="1"/>
        <pt x="849" y="1120" on="0"/>
        <pt x="934" y="1061" on="1"/>
        <pt x="1095" y="1196" on="1"/>
        <pt x="1223" y="1038" on="1"/>
        <pt x="1061" y="903" on="1"/>
        <pt x="1087" y="842" on="0"/>
        <pt x="1087" y="768" on="1"/>
        <pt x="1087" y="694" on="0"/>
        <pt x="1031" y="536" on="0"/>
        <pt x="978" y="467" on="1"/>
        <pt x="1086" y="334" on="1"/>
        <pt x="897" y="174" on="1"/>
        <pt x="790" y="309" on="1"/>
        <pt x="678" y="250" on="0"/>
        <pt x="558" y="250" on="1"/>
        <pt x="434" y="250" on="0"/>
        <pt x="349" y="307" on="1"/>
        <pt x="187" y="170" on="1"/>
        <pt x="61" y="328" on="1"/>
        <pt x="222" y="465" on="1"/>
        <pt x="198" y="530" on="0"/>
        <pt x="198" y="598" on="1"/>
        <pt x="198" y="675" on="0"/>
        <pt x="255" y="836" on="0"/>
      </contour>
      <contour>
        <pt x="429" y="647" on="1"/>
        <pt x="429" y="573" on="0"/>
        <pt x="527" y="477" on="0"/>
        <pt x="602" y="477" on="1"/>
        <pt x="700" y="477" on="0"/>
        <pt x="854" y="630" on="0"/>
        <pt x="854" y="727" on="1"/>
        <pt x="854" y="801" on="0"/>
        <pt x="756" y="895" on="0"/>
        <pt x="683" y="895" on="1"/>
        <pt x="621" y="895" on="0"/>
        <pt x="505" y="828" on="0"/>
        <pt x="429" y="709" on="0"/>
      </contour>
    </TTGlyph>
    <TTGlyph name="cyrillic_otmark" xMin="-295" yMin="1160" xMax="619" yMax="1375">
      <contour>
        <pt x="619" y="1375" on="1"/>
        <pt x="487" y="1160" on="1"/>
        <pt x="448" y="1160" on="1"/>
        <pt x="423" y="1271" on="1"/>
        <pt x="209" y="1271" on="1"/>
        <pt x="140" y="1160" on="1"/>
        <pt x="100" y="1160" on="1"/>
        <pt x="75" y="1271" on="1"/>
        <pt x="-139" y="1271" on="1"/>
        <pt x="-208" y="1160" on="1"/>
        <pt x="-247" y="1160" on="1"/>
        <pt x="-295" y="1375" on="1"/>
      </contour>
    </TTGlyph>
    <TTGlyph name="cyrillicbreve" xMin="383" yMin="1184" xMax="1203" yMax="1475">
      <contour>
        <pt x="740" y="1184" on="1"/>
        <pt x="556" y="1184" on="0"/>
        <pt x="383" y="1286" on="0"/>
        <pt x="383" y="1402" on="1"/>
        <pt x="383" y="1438" on="0"/>
        <pt x="389" y="1475" on="1"/>
        <pt x="613" y="1475" on="1"/>
        <pt x="609" y="1430" on="1"/>
        <pt x="609" y="1373" on="0"/>
        <pt x="674" y="1325" on="0"/>
        <pt x="768" y="1325" on="1"/>
        <pt x="845" y="1325" on="0"/>
        <pt x="919" y="1354" on="0"/>
        <pt x="965" y="1419" on="0"/>
        <pt x="979" y="1475" on="1"/>
        <pt x="1203" y="1475" on="1"/>
        <pt x="1177" y="1364" on="0"/>
        <pt x="1070" y="1245" on="0"/>
        <pt x="880" y="1184" on="0"/>
      </contour>
    </TTGlyph>
    <TTGlyph name="d" xMin="77" yMin="-20" xMax="1264" yMax="1484">
      <contour>
        <pt x="712" y="0" on="1"/>
        <pt x="712" y="8" on="1"/>
        <pt x="712" y="30" on="0"/>
        <pt x="726" y="148" on="0"/>
        <pt x="731" y="176" on="1"/>
        <pt x="727" y="176" on="1"/>
        <pt x="659" y="76" on="0"/>
        <pt x="486" y="-20" on="0"/>
        <pt x="373" y="-20" on="1"/>
        <pt x="230" y="-20" on="0"/>
        <pt x="77" y="173" on="0"/>
        <pt x="77" y="349" on="1"/>
        <pt x="77" y="479" on="0"/>
        <pt x="159" y="779" on="0"/>
        <pt x="298" y="989" on="0"/>
        <pt x="487" y="1100" on="0"/>
        <pt x="602" y="1100" on="1"/>
        <pt x="710" y="1100" on="0"/>
        <pt x="850" y="1000" on="0"/>
        <pt x="872" y="909" on="1"/>
        <pt x="874" y="909" on="1"/>
        <pt x="906" y="1087" on="1"/>
        <pt x="983" y="1484" on="1"/>
        <pt x="1264" y="1484" on="1"/>
        <pt x="1022" y="236" on="1"/>
        <pt x="1010" y="177" on="0"/>
        <pt x="984" y="0" on="1"/>
      </contour>
      <contour>
        <pt x="821" y="693" on="1"/>
        <pt x="821" y="799" on="0"/>
        <pt x="737" y="909" on="0"/>
        <pt x="665" y="909" on="1"/>
        <pt x="577" y="909" on="0"/>
        <pt x="447" y="764" on="0"/>
        <pt x="372" y="484" on="0"/>
        <pt x="372" y="378" on="1"/>
        <pt x="372" y="172" on="0"/>
        <pt x="519" y="172" on="1"/>
        <pt x="581" y="172" on="0"/>
        <pt x="696" y="261" on="0"/>
        <pt x="782" y="427" on="0"/>
        <pt x="805" y="546" on="1"/>
        <pt x="821" y="629" on="0"/>
      </contour>
    </TTGlyph>
    <TTGlyph name="dagesh" xMin="567" yMin="625" xMax="727" yMax="782">
      <contour>
        <pt x="567" y="702" on="1"/>
        <pt x="567" y="737" on="0"/>
        <pt x="615" y="782" on="0"/>
        <pt x="647" y="782" on="1"/>
        <pt x="679" y="782" on="0"/>
        <pt x="727" y="737" on="0"/>
        <pt x="727" y="702" on="1"/>
        <pt x="727" y="670" on="0"/>
        <pt x="679" y="625" on="0"/>
        <pt x="647" y="625" on="1"/>
        <pt x="615" y="625" on="0"/>
        <pt x="567" y="670" on="0"/>
      </contour>
    </TTGlyph>
    <TTGlyph name="dagger" xMin="248" yMin="-213" xMax="1172" yMax="1484">
      <contour>
        <pt x="795" y="960" on="1"/>
        <pt x="545" y="-213" on="1"/>
        <pt x="390" y="-213" on="1"/>
        <pt x="596" y="960" on="1"/>
        <pt x="248" y="933" on="1"/>
        <pt x="288" y="1137" on="1"/>
        <pt x="624" y="1108" on="1"/>
        <pt x="669" y="1484" on="1"/>
        <pt x="924" y="1484" on="1"/>
        <pt x="823" y="1108" on="1"/>
        <pt x="1172" y="1137" on="1"/>
        <pt x="1132" y="933" on="1"/>
      </contour>
    </TTGlyph>
    <TTGlyph name="daggerdbl" xMin="90" yMin="-211" xMax="1177" yMax="1484">
      <contour>
        <pt x="598" y="980" on="1"/>
        <pt x="253" y="953" on="1"/>
        <pt x="293" y="1157" on="1"/>
        <pt x="627" y="1128" on="1"/>
        <pt x="680" y="1484" on="1"/>
        <pt x="895" y="1484" on="1"/>
        <pt x="810" y="1128" on="1"/>
        <pt x="1177" y="1157" on="1"/>
        <pt x="1137" y="953" on="1"/>
        <pt x="781" y="980" on="1"/>
        <pt x="688" y="635" on="1"/>
        <pt x="648" y="293" on="1"/>
        <pt x="1013" y="320" on="1"/>
        <pt x="974" y="116" on="1"/>
        <pt x="619" y="145" on="1"/>
        <pt x="566" y="-211" on="1"/>
        <pt x="351" y="-211" on="1"/>
        <pt x="436" y="145" on="1"/>
        <pt x="90" y="116" on="1"/>
        <pt x="129" y="320" on="1"/>
        <pt x="465" y="293" on="1"/>
        <pt x="557" y="635" on="1"/>
      </contour>
    </TTGlyph>
    <TTGlyph name="dalet" xMin="129" yMin="0" xMax="1272" yMax="1241">
      <contour>
        <pt x="879" y="0" on="1"/>
        <pt x="608" y="0" on="1"/>
        <pt x="801" y="999" on="1"/>
        <pt x="129" y="999" on="1"/>
        <pt x="176" y="1241" on="1"/>
        <pt x="1272" y="1241" on="1"/>
        <pt x="1225" y="999" on="1"/>
        <pt x="1071" y="999" on="1"/>
      </contour>
    </TTGlyph>
    <TTGlyph name="daletdagesh" xMin="129" yMin="0" xMax="1272" yMax="1241">
      <component glyphName="dalet" x="0" y="0" flags="0x204"/>
      <component glyphName="dagesh" x="-255" y="-153" flags="0x4"/>
    </TTGlyph>
    <TTGlyph name="daletwide" xMin="129" yMin="0" xMax="1272" yMax="1241">
      <component glyphName="dalet" x="0" y="0" flags="0x204"/>
    </TTGlyph>
    <TTGlyph name="dcaron" xMin="7" yMin="-20" xMax="1414" yMax="1484">
      <contour>
        <pt x="535" y="0" on="1"/>
        <pt x="535" y="8" on="1"/>
        <pt x="535" y="30" on="0"/>
        <pt x="549" y="148" on="0"/>
        <pt x="554" y="176" on="1"/>
        <pt x="550" y="176" on="1"/>
        <pt x="483" y="78" on="0"/>
        <pt x="338" y="-20" on="0"/>
        <pt x="246" y="-20" on="1"/>
        <pt x="133" y="-20" on="0"/>
        <pt x="7" y="165" on="0"/>
        <pt x="7" y="334" on="1"/>
        <pt x="7" y="514" on="0"/>
        <pt x="136" y="894" on="0"/>
        <pt x="347" y="1100" on="0"/>
        <pt x="475" y="1100" on="1"/>
        <pt x="648" y="1100" on="0"/>
        <pt x="695" y="909" on="1"/>
        <pt x="697" y="909" on="1"/>
        <pt x="729" y="1087" on="1"/>
        <pt x="806" y="1484" on="1"/>
        <pt x="1077" y="1484" on="1"/>
        <pt x="835" y="236" on="1"/>
        <pt x="823" y="177" on="0"/>
        <pt x="797" y="0" on="1"/>
      </contour>
      <contour>
        <pt x="647" y="715" on="1"/>
        <pt x="647" y="805" on="0"/>
        <pt x="589" y="909" on="0"/>
        <pt x="538" y="909" on="1"/>
        <pt x="473" y="909" on="0"/>
        <pt x="360" y="745" on="0"/>
        <pt x="292" y="455" on="0"/>
        <pt x="292" y="356" on="1"/>
        <pt x="292" y="264" on="0"/>
        <pt x="345" y="172" on="0"/>
        <pt x="392" y="172" on="1"/>
        <pt x="437" y="172" on="0"/>
        <pt x="529" y="261" on="0"/>
        <pt x="605" y="427" on="0"/>
        <pt x="628" y="546" on="1"/>
        <pt x="647" y="644" on="0"/>
      </contour>
      <contour>
        <pt x="1085" y="1129" on="1"/>
        <pt x="1092" y="1162" on="1"/>
        <pt x="1183" y="1484" on="1"/>
        <pt x="1414" y="1484" on="1"/>
        <pt x="1407" y="1447" on="1"/>
        <pt x="1224" y="1129" on="1"/>
      </contour>
    </TTGlyph>
    <TTGlyph name="dcroat" xMin="69" yMin="-20" xMax="1366" yMax="1484">
      <contour>
        <pt x="1333" y="1180" on="1"/>
        <pt x="1200" y="1180" on="1"/>
        <pt x="1017" y="236" on="1"/>
        <pt x="1005" y="177" on="0"/>
        <pt x="979" y="0" on="1"/>
        <pt x="707" y="0" on="1"/>
        <pt x="707" y="8" on="1"/>
        <pt x="707" y="30" on="0"/>
        <pt x="721" y="148" on="0"/>
        <pt x="726" y="176" on="1"/>
        <pt x="722" y="176" on="1"/>
        <pt x="654" y="76" on="0"/>
        <pt x="481" y="-20" on="0"/>
        <pt x="368" y="-20" on="1"/>
        <pt x="224" y="-20" on="0"/>
        <pt x="69" y="166" on="0"/>
        <pt x="69" y="338" on="1"/>
        <pt x="69" y="462" on="0"/>
        <pt x="149" y="757" on="0"/>
        <pt x="286" y="961" on="0"/>
        <pt x="474" y="1068" on="0"/>
        <pt x="591" y="1068" on="1"/>
        <pt x="699" y="1068" on="0"/>
        <pt x="838" y="969" on="0"/>
        <pt x="860" y="877" on="1"/>
        <pt x="862" y="877" on="1"/>
        <pt x="919" y="1180" on="1"/>
        <pt x="637" y="1180" on="1"/>
        <pt x="670" y="1349" on="1"/>
        <pt x="952" y="1349" on="1"/>
        <pt x="978" y="1484" on="1"/>
        <pt x="1259" y="1484" on="1"/>
        <pt x="1233" y="1349" on="1"/>
        <pt x="1366" y="1349" on="1"/>
      </contour>
      <contour>
        <pt x="813" y="672" on="1"/>
        <pt x="813" y="772" on="0"/>
        <pt x="731" y="877" on="0"/>
        <pt x="653" y="877" on="1"/>
        <pt x="562" y="877" on="0"/>
        <pt x="438" y="742" on="0"/>
        <pt x="365" y="473" on="0"/>
        <pt x="365" y="368" on="1"/>
        <pt x="365" y="172" on="0"/>
        <pt x="514" y="172" on="1"/>
        <pt x="616" y="172" on="0"/>
        <pt x="765" y="363" on="0"/>
        <pt x="797" y="530" on="1"/>
        <pt x="813" y="610" on="0"/>
      </contour>
    </TTGlyph>
    <TTGlyph name="degree" xMin="294" yMin="795" xMax="935" yMax="1425">
      <contour>
        <pt x="935" y="1110" on="1"/>
        <pt x="935" y="980" on="0"/>
        <pt x="748" y="795" on="0"/>
        <pt x="614" y="795" on="1"/>
        <pt x="482" y="795" on="0"/>
        <pt x="294" y="977" on="0"/>
        <pt x="294" y="1110" on="1"/>
        <pt x="294" y="1196" on="0"/>
        <pt x="379" y="1342" on="0"/>
        <pt x="526" y="1425" on="0"/>
        <pt x="614" y="1425" on="1"/>
        <pt x="749" y="1425" on="0"/>
        <pt x="935" y="1240" on="0"/>
      </contour>
      <contour>
        <pt x="777" y="1110" on="1"/>
        <pt x="777" y="1180" on="0"/>
        <pt x="684" y="1276" on="0"/>
        <pt x="614" y="1276" on="1"/>
        <pt x="543" y="1276" on="0"/>
        <pt x="448" y="1179" on="0"/>
        <pt x="448" y="1110" on="1"/>
        <pt x="448" y="1041" on="0"/>
        <pt x="546" y="942" on="0"/>
        <pt x="614" y="942" on="1"/>
        <pt x="681" y="942" on="0"/>
        <pt x="777" y="1040" on="0"/>
      </contour>
    </TTGlyph>
    <TTGlyph name="delta" xMin="51" yMin="-20" xMax="1265" yMax="1484">
      <contour>
        <pt x="855" y="583" on="1"/>
        <pt x="855" y="747" on="0"/>
        <pt x="728" y="903" on="1"/>
        <pt x="607" y="863" on="0"/>
        <pt x="434" y="707" on="0"/>
        <pt x="344" y="491" on="0"/>
        <pt x="344" y="383" on="1"/>
        <pt x="344" y="282" on="0"/>
        <pt x="441" y="176" on="0"/>
        <pt x="531" y="176" on="1"/>
        <pt x="631" y="176" on="0"/>
        <pt x="777" y="280" on="0"/>
        <pt x="855" y="483" on="0"/>
      </contour>
      <contour>
        <pt x="871" y="1294" on="1"/>
        <pt x="725" y="1301" on="1"/>
        <pt x="991" y="1008" on="1"/>
        <pt x="1066" y="925" on="0"/>
        <pt x="1149" y="739" on="0"/>
        <pt x="1149" y="622" on="1"/>
        <pt x="1149" y="548" on="0"/>
        <pt x="1135" y="483" on="1"/>
        <pt x="1106" y="335" on="0"/>
        <pt x="932" y="106" on="0"/>
        <pt x="662" y="-20" on="0"/>
        <pt x="498" y="-20" on="1"/>
        <pt x="282" y="-20" on="0"/>
        <pt x="51" y="177" on="0"/>
        <pt x="51" y="357" on="1"/>
        <pt x="51" y="410" on="0"/>
        <pt x="64" y="481" on="1"/>
        <pt x="140" y="863" on="0"/>
        <pt x="635" y="1023" on="1"/>
        <pt x="384" y="1337" on="1"/>
        <pt x="412" y="1484" on="1"/>
        <pt x="1265" y="1484" on="1"/>
        <pt x="1229" y="1294" on="1"/>
      </contour>
    </TTGlyph>
    <TTGlyph name="diamond" xMin="132" yMin="-1" xMax="1096" yMax="1198">
      <contour>
        <pt x="132" y="597" on="1"/>
        <pt x="132" y="600" on="1"/>
        <pt x="381" y="884" on="0"/>
        <pt x="608" y="1198" on="1"/>
        <pt x="620" y="1198" on="1"/>
        <pt x="847" y="884" on="0"/>
        <pt x="1096" y="600" on="1"/>
        <pt x="1096" y="597" on="1"/>
        <pt x="847" y="313" on="0"/>
        <pt x="620" y="-1" on="1"/>
        <pt x="608" y="-1" on="1"/>
        <pt x="381" y="313" on="0"/>
      </contour>
    </TTGlyph>
    <TTGlyph name="dieresis" xMin="421" yMin="1219" xMax="1115" yMax="1438">
      <contour>
        <pt x="845" y="1219" on="1"/>
        <pt x="888" y="1438" on="1"/>
        <pt x="1115" y="1438" on="1"/>
        <pt x="1072" y="1219" on="1"/>
      </contour>
      <contour>
        <pt x="421" y="1219" on="1"/>
        <pt x="464" y="1438" on="1"/>
        <pt x="688" y="1438" on="1"/>
        <pt x="645" y="1219" on="1"/>
      </contour>
    </TTGlyph>
    <TTGlyph name="dieresis.uc" xMin="188" yMin="1429" xMax="882" yMax="1648">
      <contour>
        <pt x="612" y="1429" on="1"/>
        <pt x="655" y="1648" on="1"/>
        <pt x="882" y="1648" on="1"/>
        <pt x="839" y="1429" on="1"/>
      </contour>
      <contour>
        <pt x="188" y="1429" on="1"/>
        <pt x="231" y="1648" on="1"/>
        <pt x="455" y="1648" on="1"/>
        <pt x="412" y="1429" on="1"/>
      </contour>
    </TTGlyph>
    <TTGlyph name="dieresistonos" xMin="383" yMin="1201" xMax="1158" yMax="1632">
      <contour>
        <pt x="644" y="1201" on="1"/>
        <pt x="651" y="1234" on="1"/>
        <pt x="787" y="1632" on="1"/>
        <pt x="1024" y="1632" on="1"/>
        <pt x="1017" y="1595" on="1"/>
        <pt x="759" y="1201" on="1"/>
      </contour>
      <contour>
        <pt x="383" y="1231" on="1"/>
        <pt x="426" y="1453" on="1"/>
        <pt x="626" y="1453" on="1"/>
        <pt x="583" y="1231" on="1"/>
      </contour>
      <contour>
        <pt x="915" y="1231" on="1"/>
        <pt x="958" y="1453" on="1"/>
        <pt x="1158" y="1453" on="1"/>
        <pt x="1115" y="1231" on="1"/>
      </contour>
    </TTGlyph>
    <TTGlyph name="divide" xMin="101" yMin="170" xMax="1128" yMax="1194">
      <contour>
        <pt x="495" y="961" on="1"/>
        <pt x="495" y="1194" on="1"/>
        <pt x="734" y="1194" on="1"/>
        <pt x="734" y="961" on="1"/>
      </contour>
      <contour>
        <pt x="101" y="569" on="1"/>
        <pt x="101" y="793" on="1"/>
        <pt x="1128" y="793" on="1"/>
        <pt x="1128" y="569" on="1"/>
      </contour>
      <contour>
        <pt x="495" y="170" on="1"/>
        <pt x="495" y="403" on="1"/>
        <pt x="734" y="403" on="1"/>
        <pt x="734" y="170" on="1"/>
      </contour>
    </TTGlyph>
</ttFont>
